<?xml version="1.0" encoding="UTF-8"?>
<!DOCTYPE svg PUBLIC "-//W3C//DTD SVG 1.1//EN" "http://www.w3.org/Graphics/SVG/1.1/DTD/svg11.dtd">
<!-- Creator: CorelDRAW 2019 (64 Bit) -->
<svg xmlns="http://www.w3.org/2000/svg" xml:space="preserve" width="210mm" height="297mm" version="1.1" style="shape-rendering:geometricPrecision; text-rendering:geometricPrecision; image-rendering:optimizeQuality; fill-rule:evenodd; clip-rule:evenodd"
viewBox="0 0 21000 29700"
 xmlns:xlink="http://www.w3.org/1999/xlink">
 <defs>
  <style type="text/css">
   <![CDATA[
    .fil0 {fill:black}
   ]]>
  </style>
 </defs>
 <g id="Camada_x0020_1">
  <metadata id="CorelCorpID_0Corel-Layer"/>
  <g id="_966161072">
   <path class="fil0" d="M9842.58 15535.71l894.13 0c-0.18,28.89 -0.45,57.73 -0.81,86.54 -0.23,15.98 -0.38,28.85 2.17,41.08l-895.49 0c-35.11,0 -63.83,-28.71 -63.83,-63.8l0 -0.01c0,-35.1 28.72,-63.81 63.83,-63.81z"/>
   <path class="fil0" d="M10411.16 14772.1l0.1 0 -0.1 0c-188.92,27.04 -332.67,124.31 -409.38,225.69 -108.02,142.77 -156.05,257.04 -154.03,485.29 302.09,-5.44 594.92,-3.64 889.24,-2.08 0.74,-212.24 -2.07,-425.72 -2.71,-637.42l-0.22 -25.12c-51.55,-21.74 -108.5,-38.1 -169.8,-46.36 -12.87,1.46 -140.31,0.12 -152.2,0l-0.5 0 -0.3 0 0.3 0 0.5 0 -0.9 0z"/>
   <path class="fil0" d="M10564.26 14723.54c17.37,-37.28 41.62,-76.41 17.37,-128.24 -43.87,-93.61 -265.75,-78.53 -170.47,128.24 0,0 139.62,1.53 153.1,0z"/>
   <path class="fil0" d="M10957.99 14041.02c-23.82,2.8 -30.24,7.21 -35.91,29 -4.98,19.14 -8.52,39.68 -1.51,59.78 9.96,28.38 0.95,82.35 0,117.13 -1.13,41.3 -2.03,83.15 -3.77,124.22 -2.47,57.82 3.1,70.34 -29.94,103.73l-2.71 2.73c-16.32,15.46 -35.43,29.78 -50.38,54.66 -20.12,26.94 -34.22,58.82 -38.79,109.75 -1.24,13.66 -1.63,46.7 -1.59,85.38l0 1.4 0 2.15 0 1.32 0 0.83 0.01 2.15 0 1.93 0 0.22 0 0.06c0.12,62.52 1.12,136.14 1.12,166.48 0,173.8 0.68,347.61 0.98,521.41l0.26 195.92c-0.32,19.71 -0.62,31.57 7.51,42.06l4.2 0c173.51,0 211.91,0 385.42,0l4.2 0c8.13,-10.49 7.83,-22.35 7.51,-42.06l0.26 -195.92c0.3,-173.8 0.98,-347.61 0.98,-521.41 0,-30.34 1,-103.97 1.12,-166.48l0 -0.06 0 -0.22 0 -1.93 0.01 -2.15 0 -0.83 0 -1.32 0 -2.15 0 -1.4c0.02,-38.69 -0.35,-71.72 -1.59,-85.38 -4.57,-50.93 -18.67,-82.81 -38.79,-109.75 -14.95,-24.88 -34.07,-39.19 -50.38,-54.66l-2.71 -2.73c-33.04,-33.39 -27.47,-45.91 -29.93,-103.73 -1.75,-41.07 -2.65,-82.92 -3.78,-124.22 -0.95,-34.78 -9.96,-88.75 0,-117.13 7.01,-20.1 3.47,-40.64 -1.51,-59.78 -5.66,-21.79 -12.09,-26.2 -35.91,-29l-0.19 -0.02c-10.87,-2.46 -24.65,-3.59 -42,-3.18 -17.35,-0.4 -31.14,0.72 -42,3.18l-0.19 0.02z"/>
  </g>
 </g>
</svg>
