<?xml version="1.0" encoding="UTF-8"?>
<!DOCTYPE svg PUBLIC "-//W3C//DTD SVG 1.1//EN" "http://www.w3.org/Graphics/SVG/1.1/DTD/svg11.dtd">
<!-- Creator: CorelDRAW 2019 (64 Bit) -->
<svg xmlns="http://www.w3.org/2000/svg" xml:space="preserve" width="2480px" height="3508px" version="1.1" shape-rendering="geometricPrecision" text-rendering="geometricPrecision" image-rendering="optimizeQuality" fill-rule="evenodd" clip-rule="evenodd"
viewBox="0 0 2480 3507.43"
 xmlns:xlink="http://www.w3.org/1999/xlink">
 <g id="Camada_x0020_1">
  <metadata id="CorelCorpID_0Corel-Layer"/>
  <g id="_850998528">
   <path fill="black" d="M1221.75 1837.29c5.28,-1.41 15.67,-6.29 20.32,-6.02 3.22,0.18 16.53,5.26 19.16,6.75 -9.41,1.53 -25.03,2.04 -34.78,0.66 -3.52,-0.5 -2.17,0 -4.7,-1.39zm52.51 -168.62c9.86,16 20.18,70.99 -33.08,70.68 -42.95,-0.25 -46.49,-36.29 -32.31,-70.86l65.39 0.18zm-27.41 152.83c-1.49,-16.01 -0.15,-38.88 -0.12,-55.64 0.03,-17.34 -3.94,-14.85 10.06,-17.62 7.88,-1.56 14.38,-4.62 19.48,-8.61 28.48,-22.25 11.67,-78.9 1.88,-81 -7.86,-1.69 -45.21,-0.27 -56.09,-0.31 -10.54,-0.04 -18.24,-2.95 -22.37,5.77 -16.41,34.6 -12.63,82.24 36.63,85.37l0.01 70.7c-1.56,5.8 -34.76,9.97 -38.9,15.61 -9,12.26 36.15,13.9 41.73,14 6.85,0.11 49.29,-0.84 47.37,-11.52 -2.11,-4.18 -3.27,-3.96 -8.5,-5.74l-31.18 -11.01z"/>
   <path fill="black" d="M1226.39 1694.11c1.08,4.97 -0.39,11.46 2.24,15.93 1.41,2.4 3.71,2.77 2.52,6.38 -1.7,5.18 -10.93,4.03 -12.22,-11.87 -0.64,-7.92 -0.65,-13.09 7.46,-10.44zm-14.46 -10.85c-5.21,28.8 -1.98,48.27 30.25,48.02 12.91,-0.09 23.48,-3.81 28.01,-12.82 6.29,-12.52 2.97,-22.23 1.39,-35.28l-59.65 0.08z"/>
  </g>
 </g>
</svg>
