<svg width="152" height="48" viewBox="0 0 152 48" fill="none" xmlns="http://www.w3.org/2000/svg">
<path d="M109.564 28.3055H107.486C107.486 27.1968 107.497 26.4461 107.52 26.0534C107.543 25.6607 107.613 25.4067 107.728 25.2912C107.867 25.1757 108.098 25.1179 108.421 25.1179H109.564V23.143C109.564 20.7177 110.13 19.0662 111.262 18.1885C112.394 17.3108 113.837 16.8719 115.593 16.8719C116.702 16.8719 117.556 17.0221 118.157 17.3223C118.757 17.6226 119.058 18.073 119.058 18.6736C119.058 19.3665 118.931 20.0595 118.677 20.7524C118.053 20.4521 117.268 20.302 116.321 20.302C115.374 20.302 114.646 20.4752 114.138 20.8217C113.653 21.1682 113.41 21.8034 113.41 22.7273V25.1179H115.939C115.939 26.1573 115.916 26.8849 115.87 27.3007C115.847 27.7165 115.789 27.9936 115.697 28.1322C115.604 28.2477 115.443 28.3055 115.212 28.3055H113.41V41.7485C113.41 41.864 113.364 42.0142 113.272 42.1989C113.202 42.3606 113.017 42.4415 112.717 42.4415H109.564V28.3055Z" fill="#FB8B24"/>
<path d="M121.697 42.7879C120.335 42.7879 119.272 42.5685 118.51 42.1297C117.748 41.6677 117.17 40.79 116.777 39.4965C116.408 38.203 116.223 36.2858 116.223 33.7451C116.223 27.7627 118.14 24.7715 121.974 24.7715C123.268 24.7715 124.296 25.0371 125.058 25.5683C125.843 26.0765 126.421 26.9658 126.79 28.2362C127.183 29.5066 127.379 31.2967 127.379 33.6065C127.379 36.8633 126.906 39.2077 125.959 40.6398C125.035 42.0719 123.614 42.7879 121.697 42.7879ZM121.801 39.6004C122.078 39.6004 122.309 39.4734 122.494 39.2193C122.679 38.9421 122.829 38.3762 122.945 37.5216C123.083 36.6439 123.153 35.3735 123.153 33.7104C123.153 32.0242 123.118 30.7885 123.049 30.0032C122.979 29.1947 122.852 28.6519 122.667 28.3748C122.483 28.0976 122.205 27.959 121.836 27.959C121.397 27.959 121.051 28.3517 120.797 29.137C120.566 29.9223 120.45 31.4468 120.45 33.7104C120.45 35.4428 120.496 36.7363 120.589 37.5909C120.704 38.4224 120.854 38.9652 121.039 39.2193C121.224 39.4734 121.478 39.6004 121.801 39.6004Z" fill="#FB8B24"/>
<path d="M134.25 42.7879C132.887 42.7879 131.825 42.5685 131.063 42.1297C130.3 41.6677 129.723 40.79 129.33 39.4965C128.961 38.203 128.776 36.2858 128.776 33.7451C128.776 27.7627 130.693 24.7715 134.527 24.7715C135.821 24.7715 136.849 25.0371 137.611 25.5683C138.396 26.0765 138.974 26.9658 139.343 28.2362C139.736 29.5066 139.932 31.2967 139.932 33.6065C139.932 36.8633 139.459 39.2077 138.512 40.6398C137.588 42.0719 136.167 42.7879 134.25 42.7879ZM134.354 39.6004C134.631 39.6004 134.862 39.4734 135.047 39.2193C135.232 38.9421 135.382 38.3762 135.497 37.5216C135.636 36.6439 135.705 35.3735 135.705 33.7104C135.705 32.0242 135.671 30.7885 135.601 30.0032C135.532 29.1947 135.405 28.6519 135.22 28.3748C135.035 28.0976 134.758 27.959 134.389 27.959C133.95 27.959 133.603 28.3517 133.349 29.137C133.118 29.9223 133.003 31.4468 133.003 33.7104C133.003 35.4428 133.049 36.7363 133.141 37.5909C133.257 38.4224 133.407 38.9652 133.592 39.2193C133.777 39.4734 134.031 39.6004 134.354 39.6004Z" fill="#FB8B24"/>
<path d="M146.942 42.7879C145.787 42.7879 144.805 42.6032 143.997 42.2336C143.211 41.8409 142.564 41.044 142.056 39.8429C141.571 38.6418 141.329 36.8864 141.329 34.5766C141.329 31.2043 141.756 28.7328 142.611 27.1621C143.488 25.5683 144.655 24.7715 146.11 24.7715C146.965 24.7715 147.646 24.9793 148.154 25.3951V18.6736C148.154 18.0961 148.247 17.7034 148.431 17.4956C148.639 17.2646 148.974 17.126 149.436 17.0798C149.921 17.0105 150.776 16.9759 152 16.9759V41.7485C150.429 42.4415 148.743 42.7879 146.942 42.7879ZM146.976 39.3925C147.461 39.3925 147.854 39.277 148.154 39.0461V28.2362C147.969 28.1207 147.715 28.0629 147.392 28.0629C147.092 28.0629 146.814 28.19 146.56 28.444C146.306 28.675 146.087 29.2409 145.902 30.1418C145.74 31.0195 145.66 32.3361 145.66 34.0915C145.66 36.1011 145.764 37.4869 145.971 38.2492C146.179 39.0114 146.514 39.3925 146.976 39.3925Z" fill="#FB8B24"/>
<path d="M44.514 38.4546V35.6482C44.514 35.2324 44.4447 34.9668 44.3061 34.8513C44.1675 34.7127 43.8903 34.6434 43.4745 34.6434H41.7075C39.5594 34.6434 38.4854 33.6271 38.4854 31.5945V28.0258C38.4854 25.9701 39.5594 24.9422 41.7075 24.9422H44.2368C46.408 24.9422 47.4936 25.9701 47.4936 28.0258V29.6542H44.4447V28.3376C44.4447 27.9219 44.3754 27.6563 44.2368 27.5408C44.0982 27.4022 43.821 27.3329 43.4053 27.3329H42.5737C42.158 27.3329 41.8808 27.4022 41.7422 27.5408C41.6036 27.6563 41.5343 27.9219 41.5343 28.3376V31.248C41.5343 31.6638 41.6036 31.9409 41.7422 32.0795C41.8808 32.195 42.158 32.2528 42.5737 32.2528H44.3754C46.5004 32.2528 47.5629 33.2806 47.5629 35.3364V38.8011C47.5629 40.8337 46.4888 41.85 44.3407 41.85H41.7768C39.6287 41.85 38.5547 40.8337 38.5547 38.8011V37.138H41.6036V38.4546C41.6036 38.8704 41.6729 39.1475 41.8115 39.2861C41.9501 39.4016 42.2272 39.4594 42.643 39.4594H43.4745C43.8903 39.4594 44.1675 39.4016 44.3061 39.2861C44.4447 39.1475 44.514 38.8704 44.514 38.4546Z" fill="#FB8B24"/>
<path d="M56.5408 24.9422H59.6591V46.6313H56.5408V40.4988C56.2406 41.3996 55.5245 41.85 54.3927 41.85H53.1454C51.0666 41.85 50.0272 40.8337 50.0272 38.8011V28.0258C50.0272 25.9701 51.0666 24.9422 53.1454 24.9422H54.3927C55.5245 24.9422 56.2406 25.3926 56.5408 26.2935V24.9422ZM54.1848 39.3208H55.3975C55.8132 39.3208 56.102 39.2284 56.2637 39.0436C56.4484 38.8588 56.5408 38.547 56.5408 38.1081V28.6841C56.5408 28.2453 56.4484 27.9334 56.2637 27.7486C56.102 27.5639 55.8132 27.4715 55.3975 27.4715H54.1848C53.7691 27.4715 53.4919 27.5408 53.3533 27.6793C53.2147 27.7948 53.1454 28.0605 53.1454 28.4762V38.316C53.1454 38.7318 53.2147 39.009 53.3533 39.1475C53.4919 39.263 53.7691 39.3208 54.1848 39.3208Z" fill="#FB8B24"/>
<path d="M69.1992 24.9422H72.3174V41.85H69.1992V40.4988C68.8989 41.3996 68.1829 41.85 67.0511 41.85H65.8038C63.725 41.85 62.6856 40.8337 62.6856 38.8011V24.9422H65.8038V38.316C65.8038 38.7318 65.8731 39.009 66.0117 39.1475C66.1503 39.263 66.4274 39.3208 66.8432 39.3208H68.0559C68.4716 39.3208 68.7603 39.2284 68.922 39.0436C69.1068 38.8588 69.1992 38.547 69.1992 38.1081V24.9422Z" fill="#FB8B24"/>
<path d="M81.6803 24.9422H84.7985V41.85H81.6803V40.4988C81.38 41.3996 80.664 41.85 79.5322 41.85H78.2849C76.206 41.85 75.1666 40.8337 75.1666 38.8011V28.0258C75.1666 25.9701 76.206 24.9422 78.2849 24.9422H79.5322C80.664 24.9422 81.38 25.3926 81.6803 26.2935V24.9422ZM79.3243 39.3208H80.5369C80.9527 39.3208 81.2414 39.2284 81.4031 39.0436C81.5879 38.8588 81.6803 38.547 81.6803 38.1081V28.6841C81.6803 28.2453 81.5879 27.9334 81.4031 27.7486C81.2414 27.5639 80.9527 27.4715 80.5369 27.4715H79.3243C78.9085 27.4715 78.6313 27.5408 78.4927 27.6793C78.3542 27.7948 78.2849 28.0605 78.2849 28.4762V38.316C78.2849 38.7318 78.3542 39.009 78.4927 39.1475C78.6313 39.263 78.9085 39.3208 79.3243 39.3208Z" fill="#FB8B24"/>
<path d="M93.715 24.9076H94.4079V27.6101H93.1606C91.7055 27.6101 90.9779 28.4647 90.9779 30.1739V41.85H87.8596V24.9422H90.9779V27.0211C91.1627 26.4205 91.486 25.9239 91.948 25.5312C92.4331 25.1155 93.0221 24.9076 93.715 24.9076Z" fill="#FB8B24"/>
<path d="M99.2683 24.9422H102.664C104.835 24.9422 105.921 25.9701 105.921 28.0258V34.3662H99.0951V38.3853C99.0951 38.778 99.1643 39.0436 99.3029 39.1822C99.4415 39.3208 99.7187 39.3901 100.134 39.3901H101.728C102.144 39.3901 102.421 39.3208 102.56 39.1822C102.698 39.0436 102.768 38.7664 102.768 38.3507V36.9648H105.817V38.8011C105.817 40.8337 104.743 41.85 102.594 41.85H99.2683C97.1202 41.85 96.0461 40.8337 96.0461 38.8011V28.0258C96.0461 25.9701 97.1202 24.9422 99.2683 24.9422ZM99.0951 32.0795H102.837V28.4069C102.837 28.0143 102.768 27.7486 102.629 27.6101C102.514 27.4715 102.248 27.4022 101.832 27.4022H100.134C99.7187 27.4022 99.4415 27.4715 99.3029 27.6101C99.1643 27.7486 99.0951 28.0143 99.0951 28.4069V32.0795Z" fill="#FB8B24"/>
<rect x="2" y="2" width="29.2015" height="43.8022" rx="2.72686" fill="#FB8B24" stroke="#721D64" stroke-width="2.63514"/>
<path d="M23.9 7.55126L7.45822 5.68433H25.8126C26.5279 5.68433 27.1078 6.26424 27.1078 6.97959V40.4123L25.0464 8.75409C25.0057 8.12857 24.5229 7.62198 23.9 7.55126Z" fill="#FFBE5C" stroke="#FFBE5C" stroke-width="0.681716" stroke-linecap="round" stroke-linejoin="round"/>
<path d="M22.2477 26.1299C21.5261 26.4061 21.102 27.1945 21.3664 27.9205C21.764 29.0124 22.9752 29.571 24.0639 29.1647C25.1739 28.7505 25.7188 27.4981 25.2652 26.4035L25.1822 26.2014C24.8959 25.5045 24.0586 25.2228 23.4093 25.6049C23.0442 25.7984 22.6557 25.9738 22.2477 26.1299Z" fill="#FF5C5C"/>
<path d="M7.03588 19.647C7.54404 19.7848 8.18663 19.5173 8.65663 19.2799C9.14582 19.0329 9.82955 18.8482 10.6132 18.7955C11.8895 18.7096 13.2758 18.9798 14.3744 19.7096C14.813 20.0009 15.4136 20.0157 15.7895 19.647C16.1653 19.2782 16.1743 18.668 15.7542 18.3506C14.1705 17.154 12.1761 16.7793 10.4852 16.8931C9.49895 16.9594 8.55674 17.1943 7.7971 17.5779C7.33528 17.8111 6.87923 18.1327 6.54711 18.5544C6.22134 18.968 6.52772 19.5091 7.03588 19.647Z" fill="#4B0740"/>
<path d="M26.1898 19.647C26.698 19.5091 27.0044 18.968 26.6786 18.5544C26.3465 18.1327 25.8904 17.8111 25.4286 17.5779C24.669 17.1943 23.7267 16.9594 22.7405 16.8931C21.0496 16.7793 19.0552 17.154 17.4715 18.3506C17.0514 18.668 17.0604 19.2782 17.4362 19.647C17.8121 20.0157 18.4127 20.0009 18.8513 19.7096C19.9499 18.9798 21.3362 18.7096 22.6125 18.7955C23.3962 18.8482 24.0799 19.0329 24.5691 19.2799C25.0391 19.5173 25.6817 19.7848 26.1898 19.647Z" fill="#4B0740"/>
<path fill-rule="evenodd" clip-rule="evenodd" d="M25.5831 21.9004C25.0719 21.7742 24.5546 22.0991 24.2439 22.5242C23.9037 22.9899 23.3742 23.4456 22.6441 23.8509C21.4869 24.4934 19.9354 24.9423 18.2079 25.07C15.0204 25.3058 11.4133 24.4408 8.7594 21.9483C8.3756 21.5878 7.77539 21.5498 7.38256 21.9004C6.98973 22.251 6.95329 22.8568 7.33214 23.2224C10.4687 26.2498 14.7139 27.2404 18.3486 26.9716C18.8676 26.9332 19.3617 27.2282 19.5398 27.7173L19.8191 28.484C20.5297 30.4352 22.6942 31.4336 24.6397 30.7075C26.6233 29.9672 27.5971 27.7291 26.7865 25.7731L26.0724 24.0498C25.9409 23.7325 25.9872 23.3741 26.1477 23.0704C26.1567 23.0534 26.1655 23.0364 26.1743 23.0193C26.4141 22.5506 26.0943 22.0265 25.5831 21.9004ZM21.3664 27.9205C21.102 27.1945 21.5261 26.4061 22.2477 26.1299C22.6557 25.9738 23.0442 25.7984 23.4093 25.6049C24.0586 25.2228 24.8959 25.5045 25.1822 26.2014L25.2652 26.4035C25.7188 27.4981 25.1739 28.7505 24.0639 29.1647C22.9752 29.571 21.764 29.0124 21.3664 27.9205Z" fill="#4B0740"/>
</svg>
