<?xml version="1.0" encoding="UTF-8"?>
<!DOCTYPE svg PUBLIC "-//W3C//DTD SVG 1.1//EN" "http://www.w3.org/Graphics/SVG/1.1/DTD/svg11.dtd">
<!-- Creator: CorelDRAW 2019 (64 Bit) -->
<svg xmlns="http://www.w3.org/2000/svg" xml:space="preserve" width="210mm" height="297mm" version="1.1" style="shape-rendering:geometricPrecision; text-rendering:geometricPrecision; image-rendering:optimizeQuality; fill-rule:evenodd; clip-rule:evenodd"
viewBox="0 0 21000 29700"
 xmlns:xlink="http://www.w3.org/1999/xlink">
 <defs>
  <style type="text/css">
   <![CDATA[
    .fil1 {fill:black}
    .fil0 {fill:#D6A828}
   ]]>
  </style>
 </defs>
 <g id="Camada_x0020_1">
  <metadata id="CorelCorpID_0Corel-Layer"/>
  <path class="fil0" d="M13648.82 14037.73c448.9,0 812.8,363.9 812.8,812.8 0,448.9 -363.9,812.8 -812.8,812.8 -448.9,0 -812.8,-363.9 -812.8,-812.8 0,-448.9 363.9,-812.8 812.8,-812.8z"/>
  <g id="_960823072">
   <path class="fil1" d="M13235.87 15206.14l527.9 0c-0.11,17.06 -0.26,34.09 -0.48,51.09 -0.14,9.44 -0.22,17.04 1.28,24.26l-528.7 0c-20.73,0 -37.69,-16.95 -37.69,-37.67l0 -0.01c0,-20.72 16.96,-37.67 37.69,-37.67z"/>
   <path class="fil1" d="M13571.56 14755.29l0.06 0 -0.06 0c-111.54,15.97 -196.41,73.4 -241.7,133.26 -63.78,84.29 -92.13,151.76 -90.94,286.52 178.35,-3.22 351.25,-2.15 525.01,-1.23 0.44,-125.31 -1.21,-251.35 -1.59,-376.34l-0.13 -14.83c-30.44,-12.84 -64.06,-22.49 -100.25,-27.38 -7.6,0.87 -82.85,0.08 -89.87,0l-0.29 0 -0.18 0 0.18 0 0.29 0 -0.53 0z"/>
   <path class="fil1" d="M13661.96 14726.62c10.25,-22.01 24.57,-45.11 10.25,-75.71 -25.9,-55.27 -156.9,-46.36 -100.65,75.71 0,0 82.43,0.91 90.4,0z"/>
   <path class="fil1" d="M13894.42 14323.65c-14.07,1.66 -17.86,4.26 -21.2,17.13 -2.95,11.3 -5.04,23.43 -0.89,35.29 5.87,16.76 0.56,48.63 0,69.16 -0.68,24.38 -1.21,49.09 -2.24,73.34 -1.45,34.14 1.84,41.53 -17.67,61.24l-1.6 1.61c-9.63,9.13 -20.92,17.59 -29.74,32.28 -11.88,15.9 -20.21,34.73 -22.91,64.79 -0.73,8.07 -0.96,27.58 -0.94,50.41l0 0.83 0 1.27 0 0.78 0 0.49 0.01 1.27 0 1.14 0 0.13 0 0.03c0.07,36.91 0.66,80.39 0.66,98.3 0,102.61 0.4,205.23 0.58,307.84l0.15 115.68c-0.18,11.64 -0.36,18.64 4.44,24.83l2.47 0c102.45,0 125.12,0 227.57,0l2.47 0c4.8,-6.19 4.62,-13.19 4.44,-24.83l0.15 -115.68c0.18,-102.61 0.58,-205.23 0.58,-307.84 0,-17.91 0.59,-61.39 0.66,-98.3l0 -0.03 0 -0.13 0 -1.14 0.01 -1.27 0 -0.49 0 -0.78 0 -1.27 0 -0.83c0.01,-22.84 -0.21,-42.34 -0.94,-50.41 -2.7,-30.06 -11.02,-48.89 -22.9,-64.79 -8.83,-14.69 -20.12,-23.14 -29.75,-32.28l-1.6 -1.61c-19.51,-19.71 -16.22,-27.1 -17.67,-61.24 -1.03,-24.25 -1.56,-48.96 -2.23,-73.34 -0.56,-20.53 -5.88,-52.4 0,-69.16 4.14,-11.86 2.05,-23.99 -0.89,-35.29 -3.35,-12.87 -7.14,-15.47 -21.2,-17.13l-0.12 -0.01c-6.42,-1.45 -14.55,-2.12 -24.79,-1.88 -10.25,-0.23 -18.39,0.43 -24.8,1.88l-0.11 0.01z"/>
  </g>
 </g>
</svg>
