<svg width="24" height="24" viewBox="0 0 24 24" fill="none" xmlns="http://www.w3.org/2000/svg">
<path d="M12 4.595C10.9104 3.59311 9.48419 3.03705 8.00398 3.037C7.22052 3.03782 6.44495 3.19356 5.72192 3.49527C4.99888 3.79698 4.34265 4.2387 3.79098 4.795C1.43798 7.158 1.43898 10.854 3.79298 13.207L11.125 20.539C11.295 20.838 11.623 21.031 12 21.031C12.1548 21.0295 12.3071 20.9917 12.4446 20.9207C12.5822 20.8496 12.7011 20.7474 12.792 20.622L20.207 13.207C22.561 10.853 22.561 7.158 20.205 4.791C19.6536 4.23572 18.9979 3.7949 18.2756 3.49389C17.5532 3.19287 16.7785 3.0376 15.996 3.037C14.5158 3.03724 13.0897 3.59328 12 4.595Z" fill="#4B0740"/>
</svg>
