<?xml version="1.0" encoding="utf-8"?><svg xml:space="preserve" viewBox="0 0 128 128" y="0px" x="0px" xmlns:xlink="http://www.w3.org/1999/xlink" xmlns="http://www.w3.org/2000/svg" id="圖層_1" version="1.1" width="199px" height="199px" style="width:100%;height:100%;background-size:initial;background-repeat-y:initial;background-repeat-x:initial;background-position-y:initial;background-position-x:initial;background-origin:initial;background-color:initial;background-clip:initial;background-attachment:initial;animation-play-state:paused" ><g class="ldl-scale" style="transform-origin:50% 50%;transform:rotate(0deg) scale(0.8, 0.8);animation-play-state:paused" ><path d="z" fill="none" style="animation-play-state:paused" ></path>
<g style="animation-play-state:paused" ><path d="M53.82,68.94c0-6.22,4.56-11.28,10.18-11.28c5.62,0,10.18,5.04,10.18,11.28H53.82z" stroke-miterlimit="12.8" stroke-linejoin="round" stroke-linecap="round" stroke-width="4.48" stroke="#333435" fill="#E15C64" style="stroke:rgb(51, 52, 53);fill:rgb(225, 92, 100);animation-play-state:paused" ></path>
<path d="M97.28,81.18c0-20.13-66.56-20.13-66.56,0H97.28z" stroke-miterlimit="12.8" stroke-linejoin="round" stroke-linecap="round" stroke-width="4.48" stroke="#333435" fill="#E15C64" style="stroke:rgb(51, 52, 53);fill:rgb(225, 92, 100);animation-play-state:paused" ></path></g>
<path d="M84.4,109.15H43.6c-9.48,0-17.16-7.68-17.16-17.16V75.66c0-0.86,0.83-1.46,1.65-1.2l5.02,1.64c8.78,2.87,17.97,4.33,27.21,4.33h7.39 c9.24,0,18.42-1.46,27.21-4.31l5.02-1.64c0.82-0.27,1.65,0.35,1.65,1.2v16.31C101.57,101.45,93.89,109.15,84.4,109.15z" stroke-miterlimit="12.8" stroke-linejoin="round" stroke-linecap="round" stroke-width="4.48" stroke="#333435" fill="#C33837" style="stroke:rgb(51, 52, 53);fill:rgb(195, 56, 55);animation-play-state:paused" ></path>
<line y2="78.09" x2="115.2" y1="86.86" x1="101.57" stroke-miterlimit="12.8" stroke-linejoin="round" stroke-linecap="round" stroke-width="4.48" stroke="#333435" fill="none" style="stroke:rgb(51, 52, 53);animation-play-state:paused" ></line>
<line y2="78.09" x2="12.8" y1="86.86" x1="26.43" stroke-miterlimit="12.8" stroke-linejoin="round" stroke-linecap="round" stroke-width="4.48" stroke="#333435" fill="none" style="stroke:rgb(51, 52, 53);animation-play-state:paused" ></line>
<path d="M99.29,37.88c-3.99,3.01-5.13,8.52-2.68,12.88l0,0c2.47,4.35,1.33,9.86-2.68,12.88" stroke-miterlimit="12.8" stroke-linejoin="round" stroke-linecap="round" stroke-width="4.48" stroke="#333435" fill="none" style="stroke:rgb(51, 52, 53);animation-play-state:paused" ></path>
<path d="M84.76,18.85c4.84,5.38,4.94,13.52,0.23,19.02l0,0c-4.71,5.49-4.61,13.63,0.23,19.02" stroke-miterlimit="12.8" stroke-linejoin="round" stroke-linecap="round" stroke-width="4.48" stroke="#333435" fill="none" style="stroke:rgb(51, 52, 53);animation-play-state:paused" ></path>
<path d="z" fill="none" style="animation-play-state:paused" ></path>
<metadata xmlns:d="https://loading.io/stock/" style="animation-play-state:paused" ><d:name style="animation-play-state:paused" >cookware</d:name>


<d:tags style="animation-play-state:paused" >food,hot,soup,cooking</d:tags>


<d:license style="animation-play-state:paused" >by</d:license>


<d:slug style="animation-play-state:paused" >nfchj0</d:slug></metadata></g><!-- generated by https://loading.io/ --></svg>