<?xml version="1.0" encoding="UTF-8" standalone="no"?>
<!-- Created with Inkscape (http://www.inkscape.org/) -->

<svg
   xmlns:dc="http://purl.org/dc/elements/1.1/"
   xmlns:cc="http://creativecommons.org/ns#"
   xmlns:rdf="http://www.w3.org/1999/02/22-rdf-syntax-ns#"
   xmlns:svg="http://www.w3.org/2000/svg"
   xmlns="http://www.w3.org/2000/svg"
   xmlns:sodipodi="http://sodipodi.sourceforge.net/DTD/sodipodi-0.dtd"
   xmlns:inkscape="http://www.inkscape.org/namespaces/inkscape"
   width="40"
   height="40"
   viewBox="0 0 10.583333 10.583333"
   version="1.1"
   id="svg8"
   inkscape:version="0.92.5 (2060ec1f9f, 2020-04-08)"
   sodipodi:docname="drinkIcon.svg"
   inkscape:export-filename="/home/rogerio-lambert/Downloads/search.png"
   inkscape:export-xdpi="96"
   inkscape:export-ydpi="96">
  <defs
     id="defs2" />
  <sodipodi:namedview
     id="base"
     pagecolor="#ffffff"
     bordercolor="#666666"
     borderopacity="1.0"
     inkscape:pageopacity="0.0"
     inkscape:pageshadow="2"
     inkscape:zoom="3.959798"
     inkscape:cx="-40.842642"
     inkscape:cy="-45.279563"
     inkscape:document-units="mm"
     inkscape:current-layer="layer1"
     showgrid="false"
     units="px"
     inkscape:window-width="1920"
     inkscape:window-height="1016"
     inkscape:window-x="0"
     inkscape:window-y="27"
     inkscape:window-maximized="1"
     showguides="true"
     inkscape:guide-bbox="true"
     inkscape:snap-global="false" />
  <metadata
     id="metadata5">
    <rdf:RDF>
      <cc:Work
         rdf:about="">
        <dc:format>image/svg+xml</dc:format>
        <dc:type
           rdf:resource="http://purl.org/dc/dcmitype/StillImage" />
        <dc:title></dc:title>
      </cc:Work>
    </rdf:RDF>
  </metadata>
  <g
     inkscape:label="Camada 1"
     inkscape:groupmode="layer"
     id="layer1"
     transform="translate(0,-286.41667)">
    <g
       id="g1841"
       transform="matrix(1.0281399,0,0,1.0281399,16.641123,-14.361733)">
      <path
         style="fill:#fefefe;stroke-width:0.03204252"
         d="m -11.747189,302.38777 -1.345786,-0.0185 -0.02249,-0.14419 c -0.02481,-0.15908 5.03e-4,-0.53725 0.0375,-0.56011 0.01291,-0.008 0.259935,-0.0292 0.548953,-0.0472 0.711058,-0.0442 1.006791,-0.13213 1.194349,-0.35503 0.08169,-0.0971 0.0841,-0.11225 0.08274,-0.52209 -0.0016,-0.48119 -0.02916,-0.66632 -0.116691,-0.78356 -0.0529,-0.0709 -0.108903,-0.0902 -0.407117,-0.14038 -0.400257,-0.0674 -0.951191,-0.24324 -1.205092,-0.38464 -0.566316,-0.31538 -0.899417,-0.75651 -1.082918,-1.43411 -0.07781,-0.28731 -0.08322,-0.35394 -0.08487,-1.04388 -0.0023,-0.95806 0.08761,-1.53716 0.447699,-2.88383 0.223558,-0.83607 0.266955,-0.96698 0.355418,-1.07211 l 0.08199,-0.0974 h 2.399602 2.3996012 l 0.049222,0.0751 c 0.1370038,0.2091 0.4814814,1.39543 0.6573961,2.26398 0.1563508,0.77196 0.2013619,1.24817 0.1832358,1.93858 -0.018193,0.69293 -0.053834,0.87422 -0.2551341,1.29772 -0.1042215,0.21926 -0.180127,0.32288 -0.3893614,0.53152 -0.4358474,0.4346 -0.9482172,0.66726 -1.7557424,0.79728 -0.2692152,0.0433 -0.3067222,0.058 -0.3818312,0.14959 -0.07948,0.0969 -0.0842,0.12452 -0.103066,0.60382 -0.02137,0.54272 -6.72e-4,0.68612 0.11465,0.79445 0.174704,0.16413 0.4557866,0.22773 1.1541632,0.26117 0.2957537,0.0142 0.5477703,0.0358 0.5600371,0.048 0.012267,0.0123 0.022622,0.16614 0.02301,0.34192 5.511e-4,0.2498 -0.00979,0.32626 -0.047357,0.35002 -0.026435,0.0167 -0.3234567,0.0306 -0.6600476,0.0309 -0.3365913,2.5e-4 -0.7186977,0.005 -0.8491267,0.011 -0.130428,0.006 -0.842746,0.002 -1.582928,-0.008 z m 1.7783594,-3.36683 c 0.7788152,-0.15881 1.3450394,-0.51467 1.504276,-0.94539 0.1102342,-0.29818 0.1598015,-0.52077 0.1921827,-0.86303 0.068655,-0.72567 -0.131193,-1.93184 -0.5047091,-3.04616 l -0.1503678,-0.4486 -0.2883826,-0.0259 c -0.4166168,-0.0374 -3.5312726,-0.0123 -3.5723976,0.0288 -0.04523,0.0452 -0.294856,0.88162 -0.44862,1.50313 -0.188759,0.76296 -0.232317,1.07753 -0.232933,1.68224 -8.29e-4,0.81293 0.115233,1.20388 0.457194,1.54003 0.312445,0.30714 0.900282,0.54416 1.576329,0.6356 0.359125,0.0486 1.077271,0.0189 1.4674284,-0.0607 z m -1.0734244,-0.16618 c -0.05287,-0.0178 -0.255189,-0.0437 -0.449597,-0.0575 -0.650082,-0.0462 -1.16245,-0.24543 -1.455464,-0.56603 -0.226795,-0.24815 -0.358013,-0.63549 -0.2514,-0.7421 0.02903,-0.029 0.498737,-0.0385 1.917485,-0.0385 1.033468,0 2.0759713,0.009 2.3166734,0.021 l 0.4376402,0.021 v 0.11738 c 0,0.22016 -0.091991,0.44777 -0.2486582,0.61526 -0.2516075,0.26899 -0.7092499,0.43954 -1.4495954,0.54023 -0.149798,0.0204 -0.343469,0.0573 -0.430379,0.082 -0.180502,0.0514 -0.251312,0.0527 -0.386705,0.007 z"
         id="path1855"
         inkscape:connector-curvature="0" />
      <path
         style="fill:#fefbf3;stroke-width:0.03204252"
         d="m -11.074296,298.81028 c -0.08812,-0.0245 -0.25815,-0.0449 -0.377851,-0.0452 -0.676025,-0.002 -1.393829,-0.34992 -1.630585,-0.79052 -0.105626,-0.19657 -0.136653,-0.3412 -0.09136,-0.42584 0.03502,-0.0654 0.05016,-0.066 1.916673,-0.0658 1.034754,6e-5 2.0669933,0.01 2.2938649,0.0212 l 0.4124938,0.021 -0.017814,0.1726 c -0.021165,0.20507 -0.1286061,0.40196 -0.3075915,0.56366 -0.258171,0.23324 -0.6078776,0.35781 -1.3166662,0.46902 -0.220292,0.0346 -0.450903,0.078 -0.512469,0.0965 -0.136573,0.0411 -0.166019,0.0398 -0.3687,-0.0166 z"
         id="path1853"
         inkscape:connector-curvature="0" />
      <path
         style="fill:#fdf8e9;stroke-width:0.03204252"
         d="m -10.971272,298.80874 c -0.01376,-0.0138 -0.193973,-0.0349 -0.400469,-0.047 -0.449589,-0.0264 -0.705418,-0.0881 -1.048641,-0.25288 -0.333183,-0.16 -0.531047,-0.3364 -0.654536,-0.58352 -0.111131,-0.2224 -0.121921,-0.31809 -0.04458,-0.39542 0.04926,-0.0493 0.231263,-0.0527 2.257859,-0.0423 2.4970563,0.0127 2.3390745,-0.005 2.2704536,0.25512 -0.1449777,0.54964 -0.592777,0.81038 -1.7023136,0.99122 -0.597892,0.0974 -0.649479,0.10314 -0.677768,0.0749 z"
         id="path1851"
         inkscape:connector-curvature="0" />
      <path
         style="fill:#fdf4da;stroke-width:0.03204252"
         d="m -11.003363,298.77665 c -0.01374,-0.0137 -0.193924,-0.0349 -0.40042,-0.047 -0.206497,-0.0121 -0.469173,-0.0463 -0.583725,-0.076 -0.491415,-0.12749 -0.914661,-0.41571 -1.070913,-0.72927 -0.09442,-0.18948 -0.108441,-0.36074 -0.03193,-0.3901 0.06826,-0.0262 3.5430424,-0.0247 4.0617287,0.002 0.2901216,0.0148 0.4161727,0.0332 0.4273347,0.0622 0.036048,0.0939 -0.087568,0.39214 -0.2267123,0.54691 -0.2505472,0.27867 -0.626154,0.42465 -1.4334581,0.55712 -0.540927,0.0888 -0.710484,0.10575 -0.741902,0.0743 z"
         id="path1849"
         inkscape:connector-curvature="0" />
      <path
         style="fill:#fdf2d3;stroke-width:0.03204252"
         d="m -11.074296,298.73371 c -0.03525,-0.0159 -0.176442,-0.0298 -0.313766,-0.0311 -0.713199,-0.006 -1.421934,-0.33931 -1.640414,-0.77046 -0.0676,-0.1334 -0.09343,-0.2395 -0.08407,-0.34527 0.0028,-0.0315 0.397487,-0.0401 1.856982,-0.0401 1.01939,0 2.0302046,0.01 2.2462558,0.0211 l 0.3928207,0.0211 -0.02015,0.12601 c -0.061693,0.38581 -0.390679,0.67011 -0.9537948,0.82424 -0.2740446,0.075 -0.9901527,0.19745 -1.2435477,0.21263 -0.09693,0.006 -0.205073,-0.002 -0.240319,-0.0183 z"
         id="path1847"
         inkscape:connector-curvature="0" />
      <path
         style="fill:#fdf0cb;stroke-width:0.03204252"
         d="m -10.971272,298.74466 c -0.01376,-0.0138 -0.193973,-0.0349 -0.400469,-0.047 -0.629086,-0.0369 -1.111367,-0.20871 -1.42901,-0.50912 -0.180049,-0.17029 -0.320315,-0.42836 -0.302151,-0.55592 l 0.0099,-0.0697 h 2.201332 c 1.5003372,0 2.2120854,0.0108 2.2351012,0.0338 0.065189,0.0652 -0.054837,0.36116 -0.2166132,0.53411 -0.2500543,0.26733 -0.6240014,0.40925 -1.420349,0.53904 -0.597892,0.0974 -0.649479,0.10315 -0.677768,0.0749 z"
         id="path1845"
         inkscape:connector-curvature="0" />
      <path
         style="fill:#fcefc7;stroke:#fef0c8;stroke-width:0.03204252;stroke-opacity:1"
         d="m -11.003363,298.71257 c -0.01374,-0.0137 -0.193924,-0.0349 -0.40042,-0.047 -0.424928,-0.0249 -0.702013,-0.0879 -0.990611,-0.22499 -0.364272,-0.1731 -0.68256,-0.5362 -0.68256,-0.77867 v -0.089 l 2.192255,0.011 c 1.2057398,0.006 2.2013091,0.0201 2.2123763,0.0311 0.051767,0.0518 -0.062527,0.32682 -0.1988213,0.47841 -0.1838545,0.2045 -0.3413877,0.29519 -0.685382,0.39458 -0.4337647,0.12533 -1.396619,0.27475 -1.446837,0.22454 z"
         id="path1843"
         inkscape:connector-curvature="0" />
    </g>
  </g>
</svg>
