<?xml version="1.0" encoding="UTF-8"?>
<svg xmlns="http://www.w3.org/2000/svg" xmlns:xlink="http://www.w3.org/1999/xlink" width="30pt" height="auto" viewBox="0 0 375 375" version="1.2">
<defs>
<clipPath id="clip1">
  <path d="M 48 34 L 323 34 L 323 312 L 48 312 Z M 48 34 "/>
</clipPath>
<clipPath id="clip2">
  <path d="M 24.941406 76.773438 L 276.761719 0.0390625 L 357.429688 264.769531 L 105.613281 341.503906 Z M 24.941406 76.773438 "/>
</clipPath>
<clipPath id="clip3">
  <path d="M 276.882812 0 L 25.066406 76.734375 L 105.734375 341.464844 L 357.554688 264.734375 Z M 276.882812 0 "/>
</clipPath>
<clipPath id="clip4">
  <path d="M 155 94 L 188 94 L 188 127 L 155 127 Z M 155 94 "/>
</clipPath>
<clipPath id="clip5">
  <path d="M 24.941406 76.773438 L 276.761719 0.0390625 L 357.429688 264.769531 L 105.613281 341.503906 Z M 24.941406 76.773438 "/>
</clipPath>
<clipPath id="clip6">
  <path d="M 276.882812 0 L 25.066406 76.734375 L 105.734375 341.464844 L 357.554688 264.734375 Z M 276.882812 0 "/>
</clipPath>
<clipPath id="clip7">
  <path d="M 68 192 L 112 192 L 112 237 L 68 237 Z M 68 192 "/>
</clipPath>
<clipPath id="clip8">
  <path d="M 24.941406 76.773438 L 276.761719 0.0390625 L 357.429688 264.769531 L 105.613281 341.503906 Z M 24.941406 76.773438 "/>
</clipPath>
<clipPath id="clip9">
  <path d="M 276.882812 0 L 25.066406 76.734375 L 105.734375 341.464844 L 357.554688 264.734375 Z M 276.882812 0 "/>
</clipPath>
</defs>
<g id="surface1">
<g clip-path="url(#clip1)" clip-rule="nonzero">
<g clip-path="url(#clip2)" clip-rule="nonzero">
<g clip-path="url(#clip3)" clip-rule="nonzero">
<path style=" stroke:none;fill-rule:nonzero;fill:rgb(95.689392%,67.449951%,12.939453%);fill-opacity:1;" d="M 175.863281 171.578125 L 51.429688 149.082031 C 49.515625 148.734375 48.289062 146.867188 48.683594 144.964844 C 58.625 96.945312 93.847656 55.742188 144.09375 40.625 C 215.84375 19.03125 292.535156 59.441406 315.398438 130.914062 C 338.949219 204.515625 297.796875 282.894531 224.230469 305.3125 C 188.675781 316.148438 152.117188 311.910156 121.40625 296.257812 C 119.679688 295.378906 118.984375 293.253906 119.914062 291.546875 L 180.027344 180.269531 C 181.949219 176.703125 179.839844 172.300781 175.863281 171.578125 Z M 175.863281 171.578125 "/>
</g>
</g>
</g>
<g clip-path="url(#clip4)" clip-rule="nonzero">
<g clip-path="url(#clip5)" clip-rule="nonzero">
<g clip-path="url(#clip6)" clip-rule="nonzero">
<path style=" stroke:none;fill-rule:nonzero;fill:rgb(18.818665%,20.388794%,23.139954%);fill-opacity:1;" d="M 156.058594 114.976562 C 156.214844 115.484375 156.390625 115.984375 156.597656 116.476562 C 156.800781 116.964844 157.027344 117.445312 157.277344 117.914062 C 157.527344 118.382812 157.800781 118.835938 158.097656 119.277344 C 158.394531 119.71875 158.710938 120.144531 159.046875 120.554688 C 159.382812 120.964844 159.738281 121.359375 160.117188 121.734375 C 160.492188 122.109375 160.882812 122.464844 161.292969 122.800781 C 161.707031 123.136719 162.132812 123.453125 162.574219 123.746094 C 163.015625 124.042969 163.46875 124.3125 163.9375 124.5625 C 164.40625 124.8125 164.882812 125.039062 165.375 125.242188 C 165.863281 125.445312 166.363281 125.625 166.871094 125.777344 C 167.378906 125.933594 167.894531 126.058594 168.414062 126.164062 C 168.933594 126.265625 169.457031 126.34375 169.988281 126.394531 C 170.515625 126.449219 171.042969 126.472656 171.574219 126.472656 C 172.105469 126.472656 172.632812 126.445312 173.160156 126.394531 C 173.6875 126.339844 174.210938 126.261719 174.734375 126.160156 C 175.253906 126.054688 175.765625 125.925781 176.273438 125.769531 C 176.78125 125.617188 177.277344 125.4375 177.769531 125.234375 C 178.257812 125.03125 178.738281 124.800781 179.203125 124.550781 C 179.671875 124.300781 180.125 124.027344 180.566406 123.734375 C 181.007812 123.4375 181.429688 123.121094 181.839844 122.785156 C 182.25 122.445312 182.640625 122.089844 183.015625 121.714844 C 183.390625 121.339844 183.746094 120.945312 184.082031 120.535156 C 184.417969 120.125 184.730469 119.695312 185.027344 119.253906 C 185.320312 118.8125 185.589844 118.359375 185.839844 117.890625 C 186.089844 117.421875 186.316406 116.941406 186.515625 116.449219 C 186.71875 115.960938 186.898438 115.460938 187.050781 114.953125 C 187.203125 114.445312 187.332031 113.929688 187.433594 113.410156 C 187.535156 112.886719 187.613281 112.363281 187.664062 111.835938 C 187.714844 111.304688 187.742188 110.777344 187.738281 110.246094 C 187.738281 109.714844 187.710938 109.183594 187.660156 108.65625 C 187.605469 108.128906 187.527344 107.601562 187.421875 107.082031 C 187.320312 106.5625 187.1875 106.046875 187.035156 105.539062 C 186.878906 105.03125 186.699219 104.53125 186.496094 104.039062 C 186.292969 103.550781 186.066406 103.070312 185.816406 102.601562 C 185.5625 102.132812 185.289062 101.679688 184.996094 101.238281 C 184.699219 100.796875 184.382812 100.371094 184.046875 99.960938 C 183.710938 99.550781 183.351562 99.160156 182.976562 98.78125 C 182.601562 98.40625 182.207031 98.050781 181.796875 97.714844 C 181.386719 97.378906 180.960938 97.0625 180.519531 96.769531 C 180.078125 96.472656 179.625 96.203125 179.15625 95.953125 C 178.6875 95.703125 178.207031 95.476562 177.71875 95.273438 C 177.226562 95.070312 176.726562 94.890625 176.21875 94.738281 C 175.710938 94.582031 175.199219 94.457031 174.679688 94.351562 C 174.15625 94.25 173.632812 94.171875 173.105469 94.121094 C 172.578125 94.066406 172.050781 94.042969 171.519531 94.042969 C 170.988281 94.042969 170.460938 94.070312 169.933594 94.121094 C 169.402344 94.175781 168.878906 94.253906 168.359375 94.355469 C 167.839844 94.460938 167.328125 94.589844 166.820312 94.746094 C 166.3125 94.898438 165.8125 95.078125 165.324219 95.28125 C 164.835938 95.484375 164.355469 95.714844 163.886719 95.964844 C 163.421875 96.214844 162.96875 96.488281 162.527344 96.78125 C 162.085938 97.078125 161.660156 97.394531 161.253906 97.730469 C 160.84375 98.070312 160.449219 98.425781 160.078125 98.800781 C 159.703125 99.175781 159.347656 99.570312 159.011719 99.980469 C 158.675781 100.390625 158.359375 100.820312 158.066406 101.261719 C 157.773438 101.703125 157.5 102.15625 157.253906 102.625 C 157.003906 103.09375 156.777344 103.574219 156.574219 104.066406 C 156.371094 104.554688 156.195312 105.054688 156.042969 105.5625 C 155.890625 106.070312 155.761719 106.585938 155.660156 107.109375 C 155.554688 107.628906 155.480469 108.152344 155.429688 108.683594 C 155.378906 109.210938 155.351562 109.738281 155.351562 110.269531 C 155.355469 110.800781 155.378906 111.332031 155.433594 111.859375 C 155.488281 112.390625 155.566406 112.914062 155.667969 113.433594 C 155.773438 113.953125 155.902344 114.46875 156.058594 114.976562 Z M 156.058594 114.976562 "/>
</g>
</g>
</g>
<g clip-path="url(#clip7)" clip-rule="nonzero">
<g clip-path="url(#clip8)" clip-rule="nonzero">
<g clip-path="url(#clip9)" clip-rule="nonzero">
<path style=" stroke:none;fill-rule:nonzero;fill:rgb(18.818665%,20.388794%,23.139954%);fill-opacity:1;" d="M 69.191406 220.773438 C 69.398438 221.449219 69.636719 222.117188 69.90625 222.769531 C 70.179688 223.421875 70.480469 224.0625 70.816406 224.683594 C 71.148438 225.308594 71.515625 225.914062 71.90625 226.503906 C 72.300781 227.089844 72.722656 227.65625 73.171875 228.203125 C 73.621094 228.75 74.09375 229.273438 74.597656 229.773438 C 75.097656 230.273438 75.621094 230.746094 76.167969 231.195312 C 76.714844 231.644531 77.28125 232.0625 77.871094 232.457031 C 78.457031 232.847656 79.0625 233.210938 79.6875 233.546875 C 80.3125 233.878906 80.949219 234.179688 81.601562 234.449219 C 82.257812 234.71875 82.921875 234.957031 83.597656 235.164062 C 84.273438 235.367188 84.957031 235.539062 85.652344 235.675781 C 86.34375 235.8125 87.042969 235.917969 87.746094 235.984375 C 88.449219 236.054688 89.15625 236.089844 89.859375 236.085938 C 90.566406 236.085938 91.273438 236.050781 91.976562 235.980469 C 92.679688 235.910156 93.375 235.808594 94.070312 235.667969 C 94.761719 235.53125 95.445312 235.359375 96.121094 235.152344 C 96.796875 234.945312 97.460938 234.707031 98.113281 234.4375 C 98.765625 234.164062 99.402344 233.863281 100.027344 233.527344 C 100.648438 233.195312 101.253906 232.832031 101.839844 232.4375 C 102.425781 232.042969 102.992188 231.621094 103.539062 231.171875 C 104.085938 230.722656 104.605469 230.25 105.105469 229.75 C 105.605469 229.246094 106.078125 228.722656 106.523438 228.175781 C 106.972656 227.628906 107.390625 227.0625 107.78125 226.472656 C 108.171875 225.882812 108.535156 225.277344 108.867188 224.652344 C 109.199219 224.03125 109.5 223.390625 109.769531 222.738281 C 110.039062 222.082031 110.273438 221.417969 110.480469 220.738281 C 110.683594 220.0625 110.851562 219.378906 110.988281 218.683594 C 111.125 217.988281 111.230469 217.289062 111.296875 216.585938 C 111.367188 215.882812 111.398438 215.175781 111.398438 214.46875 C 111.394531 213.761719 111.359375 213.054688 111.289062 212.351562 C 111.21875 211.648438 111.113281 210.949219 110.976562 210.253906 C 110.835938 209.5625 110.664062 208.875 110.457031 208.199219 C 110.25 207.523438 110.011719 206.855469 109.742188 206.203125 C 109.46875 205.550781 109.167969 204.910156 108.832031 204.289062 C 108.5 203.664062 108.136719 203.058594 107.742188 202.46875 C 107.347656 201.882812 106.925781 201.316406 106.476562 200.769531 C 106.027344 200.222656 105.554688 199.699219 105.054688 199.199219 C 104.550781 198.699219 104.027344 198.226562 103.480469 197.777344 C 102.933594 197.328125 102.367188 196.90625 101.777344 196.515625 C 101.191406 196.121094 100.585938 195.761719 99.960938 195.425781 C 99.335938 195.09375 98.699219 194.792969 98.046875 194.523438 C 97.394531 194.253906 96.726562 194.015625 96.050781 193.808594 C 95.375 193.605469 94.691406 193.433594 93.996094 193.296875 C 93.304688 193.160156 92.605469 193.054688 91.902344 192.988281 C 91.199219 192.917969 90.496094 192.882812 89.789062 192.882812 C 89.082031 192.886719 88.375 192.921875 87.671875 192.992188 C 86.96875 193.058594 86.273438 193.164062 85.578125 193.304688 C 84.886719 193.441406 84.203125 193.613281 83.527344 193.820312 C 82.851562 194.027344 82.1875 194.265625 81.535156 194.535156 C 80.882812 194.808594 80.246094 195.109375 79.621094 195.445312 C 79 195.777344 78.394531 196.140625 77.808594 196.535156 C 77.222656 196.929688 76.65625 197.351562 76.109375 197.800781 C 75.566406 198.25 75.042969 198.722656 74.542969 199.222656 C 74.046875 199.726562 73.574219 200.25 73.125 200.796875 C 72.675781 201.34375 72.257812 201.910156 71.867188 202.5 C 71.476562 203.089844 71.113281 203.695312 70.78125 204.320312 C 70.449219 204.941406 70.148438 205.582031 69.878906 206.234375 C 69.609375 206.890625 69.375 207.554688 69.167969 208.230469 C 68.964844 208.910156 68.796875 209.59375 68.660156 210.289062 C 68.523438 210.984375 68.417969 211.683594 68.351562 212.386719 C 68.285156 213.089844 68.25 213.796875 68.25 214.503906 C 68.253906 215.210938 68.289062 215.917969 68.359375 216.621094 C 68.429688 217.324219 68.535156 218.023438 68.671875 218.71875 C 68.8125 219.410156 68.984375 220.097656 69.191406 220.773438 Z M 69.191406 220.773438 "/>
</g>
</g>
</g>
</g>
</svg>
