<?xml version="1.0" encoding="UTF-8"?>
<svg xmlns="http://www.w3.org/2000/svg" xmlns:xlink="http://www.w3.org/1999/xlink" width="30pt" height="30pt" viewBox="0 0 30 30" version="1.2">
<defs>
<clipPath id="clip1">
  <path d="M 388 584 L 736 584 L 736 955 L 388 955 Z M 388 584 "/>
</clipPath>
<clipPath id="clip2">
  <path d="M 340.808594 647.261719 L 677.929688 544.53125 L 785.6875 898.152344 L 448.5625 1000.878906 Z M 340.808594 647.261719 "/>
</clipPath>
<clipPath id="clip3">
  <path d="M 340.808594 647.261719 L 677.929688 544.53125 L 785.6875 898.152344 L 448.5625 1000.878906 Z M 340.808594 647.261719 "/>
</clipPath>
<clipPath id="clip4">
  <path d="M 518 669 L 562 669 L 562 713 L 518 713 Z M 518 669 "/>
</clipPath>
<clipPath id="clip5">
  <path d="M 340.808594 647.261719 L 677.929688 544.53125 L 785.6875 898.152344 L 448.5625 1000.878906 Z M 340.808594 647.261719 "/>
</clipPath>
<clipPath id="clip6">
  <path d="M 340.808594 647.261719 L 677.929688 544.53125 L 785.6875 898.152344 L 448.5625 1000.878906 Z M 340.808594 647.261719 "/>
</clipPath>
<clipPath id="clip7">
  <path d="M 679 716 L 738 716 L 738 775 L 679 775 Z M 679 716 "/>
</clipPath>
<clipPath id="clip8">
  <path d="M 340.808594 647.261719 L 677.929688 544.53125 L 785.6875 898.152344 L 448.5625 1000.878906 Z M 340.808594 647.261719 "/>
</clipPath>
<clipPath id="clip9">
  <path d="M 340.808594 647.261719 L 677.929688 544.53125 L 785.6875 898.152344 L 448.5625 1000.878906 Z M 340.808594 647.261719 "/>
</clipPath>
</defs>
<g id="surface1">
<g clip-path="url(#clip1)" clip-rule="nonzero">
<g clip-path="url(#clip2)" clip-rule="nonzero">
<g clip-path="url(#clip3)" clip-rule="nonzero">
<path style=" stroke:none;fill-rule:nonzero;fill:rgb(95.689392%,67.449951%,12.939453%);fill-opacity:1;" d="M 581.046875 762.121094 L 702.582031 644.390625 C 704.453125 642.578125 704.421875 639.589844 702.566406 637.78125 C 655.703125 591.964844 585.824219 572.554688 518.703125 593.265625 C 422.851562 622.835938 367.738281 724.820312 395.625 821.105469 C 424.335938 920.253906 528.527344 976.453125 627.019531 946.441406 C 674.613281 931.9375 712.089844 899.976562 734.554688 859.722656 C 735.820312 857.460938 735.003906 854.589844 732.699219 853.386719 L 582.898438 774.863281 C 578.101562 772.34375 577.167969 765.890625 581.046875 762.121094 Z M 581.046875 762.121094 "/>
</g>
</g>
</g>
<g clip-path="url(#clip4)" clip-rule="nonzero">
<g clip-path="url(#clip5)" clip-rule="nonzero">
<g clip-path="url(#clip6)" clip-rule="nonzero">
<path style=" stroke:none;fill-rule:nonzero;fill:rgb(18.818665%,20.388794%,23.139954%);fill-opacity:1;" d="M 560.851562 684.609375 C 561.058594 685.289062 561.230469 685.976562 561.371094 686.671875 C 561.507812 687.367188 561.613281 688.070312 561.683594 688.773438 C 561.753906 689.480469 561.789062 690.1875 561.789062 690.898438 C 561.792969 691.609375 561.757812 692.316406 561.6875 693.023438 C 561.621094 693.726562 561.515625 694.429688 561.378906 695.125 C 561.242188 695.820312 561.070312 696.507812 560.863281 697.1875 C 560.660156 697.867188 560.421875 698.535156 560.148438 699.191406 C 559.878906 699.847656 559.578125 700.488281 559.242188 701.113281 C 558.910156 701.738281 558.542969 702.347656 558.152344 702.9375 C 557.757812 703.527344 557.335938 704.097656 556.886719 704.648438 C 556.4375 705.195312 555.960938 705.722656 555.460938 706.226562 C 554.957031 706.726562 554.433594 707.203125 553.882812 707.65625 C 553.335938 708.105469 552.765625 708.527344 552.175781 708.925781 C 551.585938 709.320312 550.980469 709.683594 550.355469 710.019531 C 549.726562 710.355469 549.085938 710.660156 548.433594 710.929688 C 547.777344 711.203125 547.109375 711.445312 546.429688 711.652344 C 545.75 711.859375 545.0625 712.03125 544.367188 712.171875 C 543.671875 712.308594 542.96875 712.414062 542.265625 712.484375 C 541.558594 712.554688 540.847656 712.589844 540.140625 712.59375 C 539.429688 712.59375 538.722656 712.558594 538.015625 712.492188 C 537.308594 712.421875 536.605469 712.320312 535.910156 712.183594 C 535.214844 712.042969 534.527344 711.875 533.847656 711.667969 C 533.167969 711.464844 532.5 711.226562 531.84375 710.957031 C 531.1875 710.683594 530.546875 710.382812 529.917969 710.050781 C 529.292969 709.714844 528.683594 709.351562 528.09375 708.957031 C 527.503906 708.566406 526.933594 708.144531 526.382812 707.695312 C 525.835938 707.246094 525.308594 706.769531 524.804688 706.269531 C 524.304688 705.769531 523.828125 705.242188 523.375 704.695312 C 522.925781 704.148438 522.503906 703.578125 522.105469 702.992188 C 521.710938 702.402344 521.347656 701.792969 521.011719 701.167969 C 520.675781 700.542969 520.371094 699.902344 520.101562 699.25 C 519.828125 698.59375 519.589844 697.925781 519.382812 697.246094 C 519.175781 696.570312 519 695.882812 518.863281 695.1875 C 518.722656 694.492188 518.617188 693.789062 518.546875 693.082031 C 518.476562 692.378906 518.441406 691.671875 518.441406 690.960938 C 518.441406 690.25 518.472656 689.542969 518.542969 688.835938 C 518.613281 688.128906 518.714844 687.429688 518.851562 686.734375 C 518.992188 686.039062 519.164062 685.351562 519.367188 684.671875 C 519.574219 683.992188 519.8125 683.324219 520.082031 682.667969 C 520.351562 682.011719 520.65625 681.371094 520.988281 680.746094 C 521.324219 680.117188 521.6875 679.511719 522.082031 678.917969 C 522.476562 678.328125 522.898438 677.757812 523.347656 677.210938 C 523.796875 676.660156 524.273438 676.136719 524.773438 675.632812 C 525.273438 675.128906 525.800781 674.652344 526.347656 674.203125 C 526.894531 673.753906 527.464844 673.328125 528.054688 672.933594 C 528.644531 672.539062 529.253906 672.175781 529.878906 671.839844 C 530.503906 671.503906 531.144531 671.199219 531.800781 670.925781 C 532.457031 670.65625 533.121094 670.414062 533.800781 670.207031 C 534.480469 670 535.167969 669.828125 535.863281 669.6875 C 536.5625 669.550781 537.261719 669.445312 537.96875 669.375 C 538.675781 669.304688 539.382812 669.265625 540.09375 669.265625 C 540.800781 669.265625 541.511719 669.300781 542.21875 669.367188 C 542.925781 669.4375 543.625 669.539062 544.320312 669.675781 C 545.019531 669.8125 545.707031 669.984375 546.386719 670.191406 C 547.066406 670.394531 547.734375 670.632812 548.390625 670.902344 C 549.046875 671.171875 549.6875 671.476562 550.3125 671.808594 C 550.9375 672.144531 551.546875 672.507812 552.136719 672.898438 C 552.730469 673.292969 553.300781 673.714844 553.847656 674.164062 C 554.398438 674.613281 554.921875 675.089844 555.425781 675.589844 C 555.929688 676.089844 556.40625 676.613281 556.855469 677.164062 C 557.308594 677.710938 557.730469 678.277344 558.125 678.867188 C 558.519531 679.457031 558.886719 680.066406 559.21875 680.691406 C 559.554688 681.316406 559.859375 681.957031 560.132812 682.609375 C 560.40625 683.265625 560.644531 683.933594 560.851562 684.609375 Z M 560.851562 684.609375 "/>
</g>
</g>
</g>
<g clip-path="url(#clip7)" clip-rule="nonzero">
<g clip-path="url(#clip8)" clip-rule="nonzero">
<g clip-path="url(#clip9)" clip-rule="nonzero">
<path style=" stroke:none;fill-rule:nonzero;fill:rgb(18.818665%,20.388794%,23.139954%);fill-opacity:1;" d="M 736.300781 737.109375 C 736.578125 738.011719 736.808594 738.929688 736.992188 739.855469 C 737.179688 740.78125 737.316406 741.714844 737.410156 742.65625 C 737.503906 743.597656 737.554688 744.539062 737.554688 745.484375 C 737.554688 746.429688 737.507812 747.371094 737.417969 748.3125 C 737.324219 749.253906 737.1875 750.1875 737.003906 751.117188 C 736.820312 752.042969 736.59375 752.957031 736.320312 753.863281 C 736.046875 754.769531 735.730469 755.65625 735.367188 756.53125 C 735.007812 757.40625 734.605469 758.257812 734.160156 759.09375 C 733.714844 759.929688 733.230469 760.738281 732.703125 761.523438 C 732.179688 762.3125 731.617188 763.070312 731.019531 763.800781 C 730.417969 764.535156 729.785156 765.234375 729.117188 765.902344 C 728.449219 766.574219 727.75 767.207031 727.019531 767.808594 C 726.289062 768.410156 725.53125 768.972656 724.746094 769.5 C 723.960938 770.023438 723.152344 770.511719 722.316406 770.957031 C 721.484375 771.40625 720.628906 771.808594 719.757812 772.171875 C 718.882812 772.535156 717.996094 772.855469 717.089844 773.132812 C 716.183594 773.40625 715.269531 773.636719 714.34375 773.824219 C 713.414062 774.007812 712.480469 774.148438 711.539062 774.242188 C 710.597656 774.335938 709.65625 774.382812 708.710938 774.386719 C 707.761719 774.386719 706.820312 774.34375 705.878906 774.25 C 704.9375 774.160156 704.003906 774.023438 703.074219 773.839844 C 702.148438 773.65625 701.230469 773.429688 700.324219 773.15625 C 699.421875 772.882812 698.53125 772.566406 697.65625 772.203125 C 696.78125 771.84375 695.929688 771.441406 695.09375 770.996094 C 694.257812 770.554688 693.449219 770.070312 692.660156 769.546875 C 691.875 769.019531 691.117188 768.460938 690.382812 767.859375 C 689.652344 767.261719 688.953125 766.628906 688.28125 765.960938 C 687.613281 765.296875 686.976562 764.597656 686.375 763.867188 C 685.777344 763.136719 685.210938 762.378906 684.6875 761.59375 C 684.160156 760.808594 683.671875 760 683.226562 759.167969 C 682.78125 758.335938 682.375 757.480469 682.011719 756.609375 C 681.648438 755.734375 681.332031 754.847656 681.054688 753.941406 C 680.78125 753.039062 680.550781 752.125 680.363281 751.195312 C 680.179688 750.269531 680.039062 749.335938 679.945312 748.394531 C 679.851562 747.457031 679.804688 746.511719 679.800781 745.566406 C 679.800781 744.621094 679.847656 743.679688 679.9375 742.738281 C 680.03125 741.796875 680.167969 740.863281 680.351562 739.9375 C 680.535156 739.007812 680.761719 738.09375 681.035156 737.1875 C 681.308594 736.28125 681.628906 735.394531 681.988281 734.519531 C 682.351562 733.644531 682.753906 732.792969 683.199219 731.957031 C 683.640625 731.125 684.128906 730.3125 684.652344 729.527344 C 685.175781 728.738281 685.738281 727.980469 686.335938 727.25 C 686.9375 726.519531 687.570312 725.816406 688.238281 725.148438 C 688.90625 724.480469 689.605469 723.84375 690.335938 723.242188 C 691.066406 722.640625 691.824219 722.078125 692.609375 721.554688 C 693.394531 721.027344 694.207031 720.539062 695.039062 720.09375 C 695.871094 719.644531 696.726562 719.242188 697.597656 718.878906 C 698.472656 718.515625 699.363281 718.195312 700.265625 717.921875 C 701.171875 717.644531 702.085938 717.414062 703.015625 717.230469 C 703.941406 717.042969 704.875 716.902344 705.816406 716.808594 C 706.757812 716.714844 707.703125 716.667969 708.648438 716.664062 C 709.59375 716.664062 710.535156 716.710938 711.476562 716.800781 C 712.417969 716.890625 713.351562 717.027344 714.28125 717.210938 C 715.207031 717.394531 716.125 717.625 717.03125 717.898438 C 717.9375 718.167969 718.824219 718.488281 719.699219 718.847656 C 720.574219 719.207031 721.429688 719.609375 722.261719 720.054688 C 723.097656 720.5 723.90625 720.984375 724.695312 721.507812 C 725.480469 722.03125 726.242188 722.59375 726.972656 723.191406 C 727.703125 723.789062 728.40625 724.421875 729.074219 725.089844 C 729.742188 725.757812 730.378906 726.457031 730.980469 727.183594 C 731.582031 727.914062 732.144531 728.671875 732.671875 729.457031 C 733.195312 730.242188 733.683594 731.050781 734.128906 731.886719 C 734.578125 732.71875 734.980469 733.570312 735.34375 734.441406 C 735.707031 735.316406 736.027344 736.203125 736.300781 737.109375 Z M 736.300781 737.109375 "/>
</g>
</g>
</g>
</g>
</svg>
