<svg width="12" height="12" viewBox="0 0 12 12" fill="none" xmlns="http://www.w3.org/2000/svg">
<path d="M9.27271 2.18256H9.81816V2.72801C9.81816 2.87267 9.87563 3.01141 9.97792 3.1137C10.0802 3.216 10.219 3.27346 10.3636 3.27346C10.5083 3.27346 10.647 3.216 10.7493 3.1137C10.8516 3.01141 10.9091 2.87267 10.9091 2.72801V2.18256H11.4545C11.5992 2.18256 11.7379 2.12509 11.8402 2.0228C11.9425 1.92051 12 1.78177 12 1.6371C12 1.49244 11.9425 1.3537 11.8402 1.25141C11.7379 1.14912 11.5992 1.09165 11.4545 1.09165H10.9091V0.546198C10.9091 0.401535 10.8516 0.262797 10.7493 0.160504C10.647 0.0582119 10.5083 0.000744715 10.3636 0.000744715C10.219 0.000744715 10.0802 0.0582119 9.97792 0.160504C9.87563 0.262797 9.81816 0.401535 9.81816 0.546198V1.09165H9.27271C9.12805 1.09165 8.98931 1.14912 8.88702 1.25141C8.78472 1.3537 8.72726 1.49244 8.72726 1.6371C8.72726 1.78177 8.78472 1.92051 8.88702 2.0228C8.98931 2.12509 9.12805 2.18256 9.27271 2.18256ZM3.27272 3.27346V8.728C3.27272 8.87266 3.33019 9.0114 3.43248 9.11369C3.53477 9.21598 3.67351 9.27345 3.81818 9.27345C3.96284 9.27345 4.10158 9.21598 4.20387 9.11369C4.30616 9.0114 4.36363 8.87266 4.36363 8.728V3.27346C4.36363 3.1288 4.30616 2.99006 4.20387 2.88777C4.10158 2.78548 3.96284 2.72801 3.81818 2.72801C3.67351 2.72801 3.53477 2.78548 3.43248 2.88777C3.33019 2.99006 3.27272 3.1288 3.27272 3.27346ZM11.2363 4.36437C11.1661 4.37868 11.0994 4.40669 11.0401 4.44678C10.9807 4.48688 10.9298 4.53828 10.8903 4.59805C10.8508 4.65782 10.8234 4.72479 10.8098 4.79513C10.7962 4.86547 10.7965 4.93781 10.8109 5.00801C11.0239 6.0423 10.8976 7.11769 10.451 8.07456C10.0043 9.03143 9.26095 9.81875 8.33133 10.3197C7.40171 10.8206 6.33534 11.0084 5.29052 10.8552C4.2457 10.702 3.27813 10.216 2.53143 9.46929C1.78474 8.72259 1.29872 7.75502 1.14553 6.7102C0.992336 5.66538 1.18014 4.59901 1.68105 3.66939C2.18197 2.73977 2.96929 1.99645 3.92616 1.54977C4.88303 1.10309 5.95842 0.976867 6.99271 1.18983C7.13738 1.21877 7.28761 1.18905 7.41036 1.10721C7.53311 1.02538 7.61833 0.898134 7.64726 0.75347C7.67619 0.608807 7.64647 0.458575 7.56464 0.335825C7.4828 0.213074 7.35556 0.127859 7.2109 0.0989263C6.81172 0.0245544 6.40593 -0.00834767 5.99999 0.000744715C4.8133 0.000744715 3.65327 0.352638 2.66658 1.01192C1.67988 1.67121 0.910849 2.60828 0.456724 3.70464C0.00259972 4.80099 -0.11622 6.00739 0.115291 7.17127C0.346802 8.33515 0.918245 9.40425 1.75736 10.2434C2.59647 11.0825 3.66557 11.6539 4.82945 11.8854C5.99333 12.1169 7.19973 11.9981 8.29608 11.544C9.39244 11.0899 10.3295 10.3208 10.9888 9.33415C11.6481 8.34745 12 7.18742 12 6.00073C12.0011 5.59768 11.9609 5.19557 11.88 4.80073C11.8669 4.72955 11.8398 4.66168 11.8003 4.60107C11.7607 4.54046 11.7095 4.48834 11.6496 4.44772C11.5897 4.40711 11.5223 4.37882 11.4513 4.36451C11.3804 4.3502 11.3073 4.35016 11.2363 4.36437ZM5.45454 4.36437V4.90982C5.45694 5.31349 5.60847 5.70202 5.87999 6.00073C5.60847 6.29944 5.45694 6.68797 5.45454 7.09164V7.63709C5.45454 8.07108 5.62694 8.4873 5.93381 8.79417C6.24069 9.10105 6.65691 9.27345 7.0909 9.27345H7.63635C8.07034 9.27345 8.48655 9.10105 8.79343 8.79417C9.10031 8.4873 9.27271 8.07108 9.27271 7.63709V7.09164C9.2703 6.68797 9.11878 6.29944 8.84726 6.00073C9.11878 5.70202 9.2703 5.31349 9.27271 4.90982V4.36437C9.27271 3.93038 9.10031 3.51417 8.79343 3.20729C8.48655 2.90041 8.07034 2.72801 7.63635 2.72801H7.0909C6.65691 2.72801 6.24069 2.90041 5.93381 3.20729C5.62694 3.51417 5.45454 3.93038 5.45454 4.36437ZM8.1818 7.63709C8.1818 7.78175 8.12434 7.92049 8.02204 8.02279C7.91975 8.12508 7.78101 8.18254 7.63635 8.18254H7.0909C6.94623 8.18254 6.80749 8.12508 6.7052 8.02279C6.60291 7.92049 6.54544 7.78175 6.54544 7.63709V7.09164C6.54544 6.94697 6.60291 6.80824 6.7052 6.70594C6.80749 6.60365 6.94623 6.54618 7.0909 6.54618H7.63635C7.78101 6.54618 7.91975 6.60365 8.02204 6.70594C8.12434 6.80824 8.1818 6.94697 8.1818 7.09164V7.63709ZM8.1818 4.36437V4.90982C8.1818 5.05449 8.12434 5.19323 8.02204 5.29552C7.91975 5.39781 7.78101 5.45528 7.63635 5.45528H7.0909C6.94623 5.45528 6.80749 5.39781 6.7052 5.29552C6.60291 5.19323 6.54544 5.05449 6.54544 4.90982V4.36437C6.54544 4.21971 6.60291 4.08097 6.7052 3.97868C6.80749 3.87639 6.94623 3.81892 7.0909 3.81892H7.63635C7.78101 3.81892 7.91975 3.87639 8.02204 3.97868C8.12434 4.08097 8.1818 4.21971 8.1818 4.36437Z" fill="white"/>
</svg>
