<?xml version="1.0" encoding="UTF-8"?>
<!DOCTYPE svg PUBLIC "-//W3C//DTD SVG 1.1//EN" "http://www.w3.org/Graphics/SVG/1.1/DTD/svg11.dtd">
<!-- Creator: CorelDRAW 2019 (64 Bit) -->
<svg xmlns="http://www.w3.org/2000/svg" xml:space="preserve" width="210mm" height="297mm" version="1.1" style="shape-rendering:geometricPrecision; text-rendering:geometricPrecision; image-rendering:optimizeQuality; fill-rule:evenodd; clip-rule:evenodd"
viewBox="0 0 21000 29700"
 xmlns:xlink="http://www.w3.org/1999/xlink">
 <defs>
  <style type="text/css">
   <![CDATA[
    .fil1 {fill:black}
    .fil0 {fill:#D6A828}
   ]]>
  </style>
 </defs>
 <g id="Camada_x0020_1">
  <metadata id="CorelCorpID_0Corel-Layer"/>
  <path class="fil0" d="M14461.62 14037.73c448.9,0 812.8,363.9 812.8,812.8 0,448.9 -363.9,812.8 -812.8,812.8 -448.9,0 -812.8,-363.9 -812.8,-812.8 0,-448.9 363.9,-812.8 812.8,-812.8z"/>
  <g id="_710324032">
   <path class="fil1" d="M14337.73 15391.23c33.11,-8.86 98.23,-39.45 127.45,-37.8 20.16,1.13 103.64,33.03 120.17,42.38 -59.02,9.58 -157.03,12.79 -218.17,4.1 -22.1,-3.14 -13.6,0.02 -29.45,-8.68zm329.3 -1057.62c61.88,100.37 126.59,445.24 -207.47,443.33 -269.38,-1.55 -291.61,-227.6 -202.66,-444.47l410.13 1.14zm-171.92 958.57c-9.31,-100.43 -0.9,-243.87 -0.71,-348.96 0.19,-108.79 -24.72,-93.14 63.07,-110.52 49.43,-9.78 90.18,-29.01 122.21,-54.04 178.6,-139.54 73.18,-494.85 11.76,-508.04 -49.26,-10.58 -283.55,-1.68 -351.76,-1.95 -66.12,-0.25 -114.44,-18.5 -140.36,36.19 -102.89,217.05 -79.18,515.85 229.79,535.46l0.05 443.43c-9.78,36.38 -218.01,62.56 -243.97,97.93 -56.49,76.93 226.69,87.2 261.69,87.78 43.01,0.73 309.16,-5.23 297.13,-72.2 -13.21,-26.23 -20.54,-24.84 -53.29,-36.01l-195.61 -69.07z"/>
   <path class="fil1" d="M14366.8 14493.17c6.76,31.16 -2.46,71.89 14.05,99.91 8.85,15.05 23.25,17.37 15.8,40.06 -10.66,32.45 -68.52,25.26 -76.62,-74.45 -4.03,-49.69 -4.08,-82.12 46.77,-65.52zm-90.72 -68.05c-32.64,180.65 -12.37,302.75 189.75,301.22 80.98,-0.61 147.3,-23.95 175.69,-80.44 39.47,-78.53 18.6,-139.42 8.74,-221.25l-374.18 0.47z"/>
  </g>
 </g>
</svg>
