<?xml version="1.0" encoding="UTF-8"?>
<!DOCTYPE svg PUBLIC "-//W3C//DTD SVG 1.1//EN" "http://www.w3.org/Graphics/SVG/1.1/DTD/svg11.dtd">
<!-- Creator: CorelDRAW 2019 (64 Bit) -->
<svg xmlns="http://www.w3.org/2000/svg" xml:space="preserve" width="210mm" height="297mm" version="1.1" style="shape-rendering:geometricPrecision; text-rendering:geometricPrecision; image-rendering:optimizeQuality; fill-rule:evenodd; clip-rule:evenodd"
viewBox="0 0 21000 29700"
 xmlns:xlink="http://www.w3.org/1999/xlink">
 <defs>
  <style type="text/css">
   <![CDATA[
    .fil0 {fill:#D6A828}
    .fil1 {fill:black}
   ]]>
  </style>
 </defs>
 <g id="Camada_x0020_1">
  <metadata id="CorelCorpID_0Corel-Layer"/>
  <path class="fil0" d="M14329.93 14037.73c448.9,0 812.8,363.9 812.8,812.8 0,448.9 -363.9,812.8 -812.8,812.8 -448.9,0 -812.8,-363.9 -812.8,-812.8 0,-448.9 363.9,-812.8 812.8,-812.8z"/>
  <g id="_709992320">
   <path class="fil1" d="M14206.02 14494.1c113.77,-8.67 258.75,-0.22 359.97,30.34 12.31,3.72 25.23,7.78 37.79,11.35 29.09,8.25 73.83,34.76 99.76,49.22 74.62,41.58 160.98,144.75 157.09,239.05 -6.98,169.22 -346.27,237.15 -561.63,135.73 -57.82,-27.23 -97.02,-91.04 -155.08,-142.17 -37.1,-32.68 -81.88,-55.24 -132.38,-66l-83.94 -10.22c-164.13,-27.87 -173.8,-130.08 -57.77,-185.19 75.73,-35.98 241.13,-54.87 336.19,-62.11zm22.33 -36.02c-100.03,4.93 -330.89,29.2 -408.85,79.94 -20.81,13.54 -44.57,38.85 -56.45,65.04 -14.99,33.08 -10.87,71.02 -10.87,109.4 0,40.47 0.01,80.94 -0.02,121.42 -0.1,132.68 122.08,130.68 221.44,144.31 17.2,2.36 31.53,7.31 47.65,11.88 41.63,11.79 80.42,39.07 111.39,69.33 19.55,19.1 39.77,40.46 59.33,62.01 23.52,25.9 32.88,37.37 63.26,58.23 125.02,85.82 361.38,81.05 500.42,21.97 54.91,-23.33 103.94,-56 134.63,-110.56 16.82,-29.92 17.24,-66.22 17.23,-98.6 -0.01,-36.39 1.8,-150.53 -0.45,-181.81 -4.7,-65.43 -64.9,-158.73 -105.29,-194.95 -39.97,-35.85 -95.48,-79.65 -147.92,-97.12 -29.42,-9.8 -57.51,-24.08 -90.44,-31.35 -125.17,-27.64 -200.82,-35.75 -335.06,-29.14z"/>
   <path class="fil1" d="M14158.43 14605.91c1.87,15.91 21.11,25.89 37.15,31.25 38.83,12.98 89.7,11.82 160.76,40 34.95,13.86 60.06,27.47 86.51,47.21 47.77,35.67 84.83,95.38 120.04,147.44 9.88,14.6 18.7,23.46 30.54,36.46 75.92,83.44 193.79,-14.74 212.31,-58.03 29.02,-67.85 -37.68,-162.46 -67.44,-190.91 -23.47,-22.43 -45.6,-41.48 -76.32,-57.45 -29.58,-15.39 -61.88,-29 -95.87,-37.95 -88.38,-23.31 -249.91,-65.53 -343.1,-26.26 -23.76,10.02 -68.02,39.05 -64.58,68.24z"/>
   <path class="fil1" d="M14110.41 14729.8c8.32,26.77 52.79,50.02 82.89,75.5l83.02 75.66c19.37,19.76 59.1,53.27 101.83,56.11 50.25,3.35 83.21,-23.82 95.24,-62.4 14.6,-46.86 -12.65,-83.61 -38.19,-112.87 -49.55,-56.78 -152.48,-78.24 -228.28,-88.92 -39.76,-5.6 -109.83,14.1 -96.51,56.92z"/>
   <path class="fil1" d="M14091 14628.21c13.17,-69.96 -61.55,-75.69 -120.02,-65.22 -43.42,7.78 -118.94,38.31 -122.79,75.67 -4.42,42.74 91.42,63.06 125.36,66.77 28.73,3.15 58.41,-2.73 78.26,-16.81 14.07,-9.99 34.83,-37.25 39.19,-60.41z"/>
  </g>
 </g>
</svg>
