<?xml version="1.0" encoding="UTF-8"?>
<!DOCTYPE svg PUBLIC "-//W3C//DTD SVG 1.1//EN" "http://www.w3.org/Graphics/SVG/1.1/DTD/svg11.dtd">
<!-- Creator: CorelDRAW 2019 (64 Bit) -->
<svg xmlns="http://www.w3.org/2000/svg" xml:space="preserve" width="210mm" height="297mm" version="1.1" style="shape-rendering:geometricPrecision; text-rendering:geometricPrecision; image-rendering:optimizeQuality; fill-rule:evenodd; clip-rule:evenodd"
viewBox="0 0 21000 29700"
 xmlns:xlink="http://www.w3.org/1999/xlink">
 <defs>
  <style type="text/css">
   <![CDATA[
    .fil1 {fill:black}
    .fil0 {fill:#D6A828}
   ]]>
  </style>
 </defs>
 <g id="Camada_x0020_1">
  <metadata id="CorelCorpID_0Corel-Layer"/>
  <path class="fil0" d="M14329.93 14037.73c448.9,0 812.8,363.9 812.8,812.8 0,448.9 -363.9,812.8 -812.8,812.8 -448.9,0 -812.8,-363.9 -812.8,-812.8 0,-448.9 363.9,-812.8 812.8,-812.8z"/>
  <g id="_851668032">
   <path class="fil1" d="M14704.08 15155.4c6.89,-2.02 13.76,3.05 14,10.22 0.33,9.72 -37.07,40.78 -37.09,40.78 -8.17,2.93 -15.38,-2.92 -15.23,-10.54 0.2,-9.38 33.78,-39.13 38.32,-40.46zm87.44 -36.57c7.22,-4.43 15.24,0 16.44,7.03 1.54,9.06 -5.08,11.98 -9.26,16.33 -4.58,4.76 -23.33,24.68 -25.5,25.73 -6.82,3.29 -15.49,1.05 -16.77,-7.37 -1.55,-10.11 11.47,-18.56 21.72,-29.32 3.41,-3.57 9.07,-9.76 13.37,-12.4zm-132.49 -6.58c7.69,-2.96 15.42,2.1 15.31,10.15 -0.14,9.69 -36.77,40.41 -36.77,40.41 -8.05,3.11 -15.13,-2.3 -15.23,-10.04 -0.15,-10.88 35.79,-40.18 36.69,-40.52zm83.65 -40.55c9.79,-6.98 28.64,2.53 9.03,21.93l-25.67 25.47c-10.99,7.53 -28.15,-4.14 -9.55,-22.44 8.81,-8.67 16.32,-17.93 26.19,-24.96zm-45.67 -49.11c7.57,-4.14 26.47,3.76 6.03,23.96 -4.55,4.5 -23.05,24.08 -27.07,25.73 -8.91,3.64 -15.41,-1.98 -15.95,-9.09 -0.56,-7.53 5.65,-11.32 9.5,-15.08 9.34,-9.11 16.92,-19.74 27.49,-25.52zm-20.66 -39.79c-31.73,5.46 -57.85,35.44 -70.12,59.48 -15.28,29.94 -21.67,72.16 -18.4,111.64 1.44,17.5 2.98,40.73 7.52,56.51 5.13,17.84 18.49,23.37 38.99,26.6 38.68,6.11 81.99,7.81 119.04,-1.48 63.96,-16.05 124.43,-74.3 77.72,-149.25 -13.39,-21.48 -41.95,-51.79 -60.91,-68.21 -19.19,-16.63 -54.92,-41.98 -93.84,-35.29z"/>
   <path class="fil1" d="M14661.26 14704.34c33.28,0.22 71.2,-4.77 95.45,10.45 50.07,31.41 45.51,105.92 -11.55,129.2 -24.88,10.16 -70.81,1.78 -100.26,5.28l-6.24 35.87c40.02,1.93 98.18,4.12 129.47,-11.91 94.56,-48.46 70.79,-189.77 -35.22,-204.43 -12.18,-1.69 -57.82,-2.35 -69.47,-0.56l-2.18 36.1z"/>
   <path class="fil1" d="M14327.98 14383.18c-20.06,-18.65 -41.36,-38.49 -41.21,-71.76 0.11,-7.16 1.85,-14.32 4.53,-21.11 3.14,-7.96 7.63,-15.53 12.33,-22.03l2.67 -3.75c8.84,-12.56 18.66,-26.44 36.18,-25.66 12.65,0.57 17.22,4.37 16.93,10.88 -0.24,5.42 -5.1,11.79 -11.18,19.77 -9.45,12.4 -22.32,29.26 -22.32,48.3 0,15.8 15.1,30.48 31.31,46.27 30.66,29.84 65.09,63.35 23.03,120.25l-2.55 3.52c-10.44,14.41 -24.41,33.68 -45.96,27.62 -9.8,-2.75 -12.38,-7.39 -10.61,-13.67 1.41,-5.02 6.46,-10.44 12.41,-16.88 5.7,-6.15 12.41,-13.41 17.01,-21.49 22.01,-38.76 0.63,-58.67 -22.57,-80.26zm132.23 -6.1c5.11,-7.58 11.6,-14.21 18.18,-16.67 7.36,-2.74 14.8,-2.14 20.1,0.32 1.79,0.85 3.42,1.94 4.71,3.18 1.43,1.4 2.52,3 3.16,4.71 1.02,2.77 0.99,5.81 -0.44,8.86 -1.24,2.64 -3.71,5.49 -6.48,8.64 -2.92,3.34 -6.26,7.15 -8.13,10.82 -7.54,14.7 1.97,23.05 12.47,32.23l4.65 4.13c9.52,8.64 15.03,17.6 17.68,26.32 3.22,10.58 2.25,20.8 -0.86,29.77 -3.07,8.82 -8.21,16.47 -13.4,22.18 -5.48,6 -11.3,10.04 -15.05,11.18 -7.68,2.35 -14.82,1.86 -19.87,-0.35 -1.96,-0.86 -3.68,-1.99 -5.01,-3.32 -1.45,-1.46 -2.52,-3.17 -3.09,-5.05 -0.79,-2.58 -0.65,-5.41 0.6,-8.26 1,-2.33 4.04,-5.7 7.34,-9.41 3.12,-3.47 6.54,-7.29 8.07,-9.82 10.83,-17.78 -0.44,-28.5 -12.59,-40.04 -12.03,-11.45 -24.78,-23.58 -22.96,-43.49 0.62,-6.69 4.97,-17.15 10.92,-25.93z"/>
   <path class="fil1" d="M14891.52 15044.36c-29.91,-22.09 -46.94,-6.35 -54.49,-19.88 -9.19,-16.48 14.46,-15.89 20.59,-52.89 -36.17,6.4 -37.62,30.06 -53.26,20.41 -10.44,-6.45 -1.01,-19.42 -12.63,-43.28 -4.04,-8.31 -4.01,-8.65 -8.34,-11.39 -7.11,16.08 -15.14,30.1 -8.49,52.23 2.98,9.94 22.95,26.33 30.91,34.34 5.66,5.69 10.34,10.22 15.93,15.94 5.42,5.55 7.81,11.62 18.79,14.8 15.78,4.57 42.5,0.75 50.99,-10.28z"/>
   <path class="fil1" d="M14159.19 14622.62c-10.72,3.65 -21.24,8.37 -31.38,14.24 -8.47,4.9 -6.75,12.22 -23.62,-0.01 -9.77,-7.05 -36.97,-20.19 -64.37,-25.44 -125.9,-24.06 -305.71,149.68 -186.57,265.61 -42.37,86.14 -32.5,230.09 -30.69,293.99 1.81,63.89 49.07,69.04 49.07,69.04 58.47,0.6 361.35,13.73 396.09,0 3.23,-1.27 6.76,-2.77 10.5,-4.51 -4.66,-10.89 -9.65,-24.72 -14.66,-40.05 -4.34,3.91 -11.31,6.18 -22.93,6.18 -32.83,0 -340.46,0 -340.46,0 0,0 -27.63,2.28 -37.4,-29.07 -9.77,-31.35 -7.27,-163.07 3.63,-203.04 10.9,-39.96 32.7,-98.33 32.7,-98.33 0,0 -65.66,-46.38 -39.97,-112.41 25.7,-66.04 104.94,-70.88 137.64,-58.15 32.7,12.72 62.45,38.76 65.4,45.42 2.96,6.66 7.72,5.47 11.35,1.82 3.64,-3.64 32.3,-34.8 69.05,-47.24 6.39,-2.16 13.57,-3.4 21.19,-3.75 -0.85,-10.29 -1.62,-20.61 -2.29,-30.73 -1,-15.05 -1.8,-29.76 -2.28,-43.57z"/>
   <path class="fil1" d="M14291.8 14975.38c15.54,-10.95 18.88,15.37 22.02,26.1 2.89,9.9 14.15,32.3 4.37,38.92 -17.81,12.06 -24.65,-26.62 -30.24,-46.47 -4.34,-15.44 -0.72,-15.32 3.85,-18.55zm-34.69 -273.86c13.09,-5.02 15.81,6.91 15.91,18.21 0.1,11.69 1.11,23.47 2.11,35.02 1.93,22.37 3.58,45.08 6.23,67.14l13.51 96.37c1.62,9.4 6.67,24.15 -4.36,27.75 -13.41,4.38 -15.55,-8.93 -17.2,-18.78 -9.01,-53.8 -16.51,-108.09 -20.38,-162.78 -0.81,-11.4 -1.79,-22.95 -2.41,-34.05 -0.67,-11.99 -3.73,-24.92 6.59,-28.88zm320.95 539.44c-4.29,-8.69 -11.83,-11.56 -16.03,-31.93 -13.44,-65.29 -12.07,-150.15 30.81,-203.32 8.97,-11.11 7.99,-18.38 11.48,-38.21 19.37,-109.83 33.92,-192.27 40.13,-305.06 1.3,-23.76 5.28,-75.63 1.79,-97.1 -18.46,-3.89 -447.88,-1.47 -453.2,0.58 -4.69,55.9 8.62,187.71 16.4,246.3 10.23,76.94 24.9,151.36 42.74,223.83 7.4,30.07 52.16,190.94 63.27,201.28 7.69,7.16 111.46,3.89 128.6,3.89 43.48,0 91.06,1.82 134.01,-0.26z"/>
  </g>
 </g>
</svg>
