<?xml version="1.0" encoding="UTF-8"?>
<!DOCTYPE svg PUBLIC "-//W3C//DTD SVG 1.1//EN" "http://www.w3.org/Graphics/SVG/1.1/DTD/svg11.dtd">
<!-- Creator: CorelDRAW 2019 (64 Bit) -->
<svg xmlns="http://www.w3.org/2000/svg" xml:space="preserve" width="210mm" height="297mm" version="1.1" style="shape-rendering:geometricPrecision; text-rendering:geometricPrecision; image-rendering:optimizeQuality; fill-rule:evenodd; clip-rule:evenodd"
viewBox="0 0 21000 29700"
 xmlns:xlink="http://www.w3.org/1999/xlink">
 <defs>
  <style type="text/css">
   <![CDATA[
    .fil1 {fill:black}
    .fil0 {fill:#D6A828}
   ]]>
  </style>
 </defs>
 <g id="Camada_x0020_1">
  <metadata id="CorelCorpID_0Corel-Layer"/>
  <path class="fil0" d="M14329.93 14037.73c448.9,0 812.8,363.9 812.8,812.8 0,448.9 -363.9,812.8 -812.8,812.8 -448.9,0 -812.8,-363.9 -812.8,-812.8 0,-448.9 363.9,-812.8 812.8,-812.8z"/>
  <g id="_712562912">
   <path class="fil1" d="M14193.82 14430.32c197.63,0 364.02,128.39 413.68,303.02 -29.54,-9.6 -61.03,-14.79 -93.72,-14.79 -83.94,0 -160.05,34.07 -215.09,89.1 -55,55 -89.1,131.09 -89.1,215.06 0,10.14 0.51,20.21 1.47,30.11 22.02,19.52 44.39,37.1 73.96,55.54 -9.99,-26.66 -15.45,-55.51 -15.45,-85.65 0,-134.83 109.35,-244.18 244.21,-244.18 134.84,0 244.18,109.35 244.18,244.18 0,134.86 -109.34,244.21 -244.18,244.21l-6.02 -0.06 -0.27 -0.03 -6.27 -0.24 -317.69 -13.05c-5.22,-0.24 -10.46,-0.48 -15.68,-0.72 -224.69,-12.89 -402.8,-191.87 -402.8,-410.86 0,-227.32 192,-411.64 428.77,-411.64z"/>
   <path class="fil1" d="M14666.95 14813.03l44.9 -28.53c-13.91,-34.54 -23.93,-88.77 32.36,-116.87 20.75,-10.37 46.6,-16.02 70.7,-14.78 19.07,0.97 37.6,6.23 52.88,16.65 17.09,11.65 29.62,28.92 34.23,52.72 2.67,13.72 2.45,29.51 -1.49,47.49 18.56,5.3 37.11,14.09 51.3,25.12 21.21,16.48 34.7,38.61 32.1,64.7 -2.61,26.44 -13.93,48.5 -30.37,64.15 -17.76,16.9 -41.29,26.17 -66.4,25.5 -21.38,-0.56 -40.12,-7.2 -56.19,-17.96 -6.25,-4.2 -12.04,-8.99 -17.38,-14.24 -22.25,14.71 -44.71,28.55 -65.98,35.25 -3.45,-11.47 -7.72,-22.57 -12.75,-33.26 23.59,-6.58 56.68,-30.56 86.53,-50.23 14.51,24.92 36.78,43.88 66.6,44.66 30.33,0.81 56.78,-21.83 60.29,-57.37 2.61,-26.3 -36.56,-49.1 -70.51,-54.79 -3.51,-0.58 -17.15,-21.87 -15.86,-25.85 29.05,-90.07 -53.72,-99.6 -101.7,-75.61 -49.58,24.74 -1.64,97.56 -1.64,97.56l-72.4 46.03c-1.45,0.76 -2.82,1.59 -4.07,2.46 -9.1,-8.67 -18.89,-16.62 -29.25,-23.81 4.71,-2.93 9.72,-5.91 14.1,-8.99z"/>
  </g>
 </g>
</svg>
