<?xml version="1.0" encoding="UTF-8"?>
<!DOCTYPE svg PUBLIC "-//W3C//DTD SVG 1.1//EN" "http://www.w3.org/Graphics/SVG/1.1/DTD/svg11.dtd">
<!-- Creator: CorelDRAW 2019 (64 Bit) -->
<svg xmlns="http://www.w3.org/2000/svg" xml:space="preserve" width="210mm" height="297mm" version="1.1" style="shape-rendering:geometricPrecision; text-rendering:geometricPrecision; image-rendering:optimizeQuality; fill-rule:evenodd; clip-rule:evenodd"
viewBox="0 0 21000 29700"
 xmlns:xlink="http://www.w3.org/1999/xlink">
 <defs>
  <style type="text/css">
   <![CDATA[
    .fil1 {fill:black}
    .fil0 {fill:#D6A828}
   ]]>
  </style>
 </defs>
 <g id="Camada_x0020_1">
  <metadata id="CorelCorpID_0Corel-Layer"/>
  <path class="fil0" d="M14329.93 14037.73c448.9,0 812.8,363.9 812.8,812.8 0,448.9 -363.9,812.8 -812.8,812.8 -448.9,0 -812.8,-363.9 -812.8,-812.8 0,-448.9 363.9,-812.8 812.8,-812.8z"/>
  <g id="_119687248">
   <path class="fil1" d="M14596.38 14739.24c-16.5,12.65 -68.8,13.25 -92.92,16.9 -31.96,4.83 -64.42,13.32 -93.52,21.54 -112.17,31.65 -189.25,118.03 -215.62,234.98 -21.75,96.46 34.1,162.36 41.42,185.18 -25.67,35.58 -39.78,45.96 -93.25,45.84 -42.11,-0.09 -250.17,4.14 -274.99,-4 -85.99,-28.22 -132.06,-209.16 -126.72,-294.24 5.2,-82.81 38.49,-142.14 82.04,-200.8 124.12,-167.21 404.8,-230.05 615.5,-129.41 34.27,16.38 153.17,87.57 158.06,124.01z"/>
   <path class="fil1" d="M14884.85 14731.21c156.5,38.15 36.33,253.2 -80.21,163.7 -3.96,-3.03 -4.41,-3.81 -8.22,-7.2 -0.67,-0.6 -1.5,-1.38 -2.15,-1.96l-7.03 -6.08c-7.84,20.39 -27.54,53.94 -39.5,75.02 -15.21,26.82 -26.59,50.98 -41.28,77.3 -29.03,52.03 -56.71,101.98 -94.05,139 -86.12,85.37 -248.69,103.83 -332.25,7.7 -102.27,-117.64 -32.12,-353.94 232.98,-377.64 22.28,-1.98 178.68,-25.39 198.15,-32.23 -30.85,-69.15 4.79,-126.33 58.6,-139.81 36.95,-9.28 60.58,0.3 83.67,18.18 14.32,11.08 15.57,11.52 25.16,32.33 8.09,17.58 6.06,32.14 6.13,51.69z"/>
  </g>
 </g>
</svg>
