<?xml version="1.0" encoding="UTF-8"?>
<!DOCTYPE svg PUBLIC "-//W3C//DTD SVG 1.1//EN" "http://www.w3.org/Graphics/SVG/1.1/DTD/svg11.dtd">
<!-- Creator: CorelDRAW 2019 (64 Bit) -->
<svg xmlns="http://www.w3.org/2000/svg" xml:space="preserve" width="210mm" height="297mm" version="1.1" style="shape-rendering:geometricPrecision; text-rendering:geometricPrecision; image-rendering:optimizeQuality; fill-rule:evenodd; clip-rule:evenodd"
viewBox="0 0 21000 29700"
 xmlns:xlink="http://www.w3.org/1999/xlink">
 <defs>
  <style type="text/css">
   <![CDATA[
    .fil0 {fill:#D6A828}
    .fil1 {fill:black}
   ]]>
  </style>
 </defs>
 <g id="Camada_x0020_1">
  <metadata id="CorelCorpID_0Corel-Layer"/>
  <path class="fil0" d="M14329.93 14037.73c448.9,0 812.8,363.9 812.8,812.8 0,448.9 -363.9,812.8 -812.8,812.8 -448.9,0 -812.8,-363.9 -812.8,-812.8 0,-448.9 363.9,-812.8 812.8,-812.8z"/>
  <path class="fil1" d="M14882.03 15123.69c-40.29,6.08 -81.79,6.16 -125.83,-2.56 -124.34,-24.62 -181.88,-93.79 -225.01,-201.2 -20.5,-51.08 -37.57,-103.28 -55.17,-157.9 -39.04,-121.09 -66.18,-185.87 -156.03,-270.1 -38.26,-35.87 -81.88,-58.64 -154.55,-57.29 29.53,-14.73 79.1,5.06 101.7,0.61 29.94,-5.88 60.11,-23.99 44.3,-60.82 -14.82,-34.49 -54.25,-12.87 -86.75,-20.1 -32.97,-7.32 -33.22,-37.8 -51.73,-58.91 -12.23,-13.92 -24.7,-6.98 -37.17,1.96 -28.33,20.25 -43.28,35.62 -75.87,13.28 -32.5,-22.23 -26.03,33.71 -49.47,48.45 -12.92,8.11 -29.37,3.19 -38.85,15.43 -12.61,16.26 4.41,28.97 4.92,40.88 0.59,14.28 -19.65,14.85 -26.36,27.89 4.69,12.64 17.29,16.11 28.9,22.23 11.23,5.92 20.77,11.97 30.87,16.72 -8.18,6.24 -24.4,8.37 -34.69,13.3 -21.81,10.42 -56.23,38.8 -63.5,62.99 -1.66,5.55 -0.42,0.81 -0.45,4.66l102.45 11.41c-3.66,12.8 -35.83,60.2 -45.49,90.19 -37.8,117.31 87.67,130.49 119.82,71.83 13.72,-25.07 15.26,-88.19 14.31,-121.05 9.63,10.47 10.34,33.87 10.98,47.26 2.65,55.46 -12.9,83.72 -37.59,126.8 -27.15,47.4 -54.26,89.83 -76.88,144.93 -35.21,85.81 -53.88,188.12 -42.43,284.41 1.85,15.6 4.52,30.97 7.58,46.31 2.5,12.5 4.14,27.06 9.03,38.91 2.08,5.03 0.87,2.45 2.7,4.92 3.3,-25.24 4.78,-41.4 16.08,-61.97 8.13,-14.78 21.98,-35.95 34.77,-42.48 -10.13,56.94 -27.12,81.79 -19.35,158.62 94.89,60.1 207.38,94.89 328.01,94.89 169.51,0 322.99,-68.7 434.07,-179.78 45.15,-45.16 83.3,-97.33 112.68,-154.72z"/>
 </g>
</svg>
