<?xml version="1.0" encoding="UTF-8"?>
<!DOCTYPE svg PUBLIC "-//W3C//DTD SVG 1.1//EN" "http://www.w3.org/Graphics/SVG/1.1/DTD/svg11.dtd">
<!-- Creator: CorelDRAW 2019 (64 Bit) -->
<svg xmlns="http://www.w3.org/2000/svg" xml:space="preserve" width="210mm" height="297mm" version="1.1" style="shape-rendering:geometricPrecision; text-rendering:geometricPrecision; image-rendering:optimizeQuality; fill-rule:evenodd; clip-rule:evenodd"
viewBox="0 0 21000 29700"
 xmlns:xlink="http://www.w3.org/1999/xlink">
 <defs>
  <style type="text/css">
   <![CDATA[
    .fil0 {fill:#D6A828}
    .fil1 {fill:black}
   ]]>
  </style>
 </defs>
 <g id="Camada_x0020_1">
  <metadata id="CorelCorpID_0Corel-Layer"/>
  <path class="fil0" d="M14329.93 14037.73c448.9,0 812.8,363.9 812.8,812.8 0,448.9 -363.9,812.8 -812.8,812.8 -448.9,0 -812.8,-363.9 -812.8,-812.8 0,-448.9 363.9,-812.8 812.8,-812.8z"/>
  <path class="fil1" d="M14433.69 14944.01c40.37,14.63 127.67,38.84 164.84,37.98 -2.87,-16.87 -7.17,-29.79 -14.13,-44.33 -3.37,-7.04 -6.97,-13.2 -10.91,-19.01 -4.26,-6.27 -8.57,-10.91 -12.19,-16.58 22.09,2.44 44.66,13.66 59.44,23.84 7.98,5.5 16.77,13.39 22,19.74 3.41,4.13 6.3,6.93 9.68,11.72 2.59,3.69 5.48,9.46 8.67,12.03 4.57,-27.27 0.81,-52.68 -14.63,-74.54 -5.16,-7.31 -8.96,-10.63 -14.39,-16.33 24.24,4.34 51.32,24.48 65.61,38.89 15.69,15.83 22.12,26.15 34.09,46.18 7,-15.47 2.41,-61.56 -2.03,-78.2 -6.35,-23.79 -14.86,-41.19 -26.88,-58.68 -12.59,-18.3 -24.83,-29.92 -42.31,-43.27 -11.37,-8.69 -40.57,-24.9 -56.98,-27.7 20.57,0.39 63.07,22.37 77.67,31.58 23.12,14.57 40.17,31.12 57.22,51.93 23.96,29.25 43.67,73.74 49.13,114.33 2.55,18.97 1.32,32.59 1.8,50.94 17.38,-19.06 33.93,-56.11 38.72,-89.29 5.56,-38.59 -1.5,-78.3 -16.25,-108.74 -9.09,-18.78 -18.88,-34.72 -32.16,-48.1 -19.9,-20.04 -38.99,-34.55 -66.36,-45.95 -21.24,-8.85 -30.84,-8.37 -50.31,-13.57 30.31,0.33 66.12,11.86 89.52,23.61 36.8,18.49 67.06,45.12 89.85,79.13 25.42,37.92 38.82,80.62 39.7,129.48 3.8,-3.26 6.7,-8.49 9.18,-12.73 33.34,-57.1 40.04,-125.6 13.05,-187.26 -8.54,-19.5 -19.6,-35.71 -32.55,-51.93 -3.82,-4.78 -6.37,-6.68 -10.47,-10.93 -11.03,-11.42 -21.49,-19.98 -35.35,-28.81 -39.1,-24.9 -89.75,-36.3 -137.2,-29.47 -28.4,4.08 -39.83,10.96 -63.96,19.69 3.79,-1.93 9.72,-6.87 14.97,-9.83 17.09,-9.65 33.86,-17.2 53.56,-22.38 69.72,-18.33 142.81,-0.64 196.97,43.98 9.13,7.52 20.35,21.2 24.85,24.64 -0.64,-19.57 -20.52,-57.96 -29.41,-71.49 -43.28,-65.9 -118.67,-105.84 -205.64,-95.81 -50.66,5.85 -85.58,25.78 -121.34,56.03 -8.9,7.53 -16.77,17.12 -23.88,26.43 -30.83,40.38 -41.5,79.9 -44.15,132.31 -11.03,4.21 -23.99,11.79 -35.74,16.7 -42.14,17.58 -83.54,28.85 -130.84,19.48 -61.18,-12.11 -89.5,-46.14 -110.71,-98.99 -10.09,-25.13 -18.48,-50.81 -27.15,-77.69 -19.21,-59.57 -32.56,-91.44 -76.76,-132.89 -18.83,-17.65 -40.29,-28.85 -76.04,-28.19 14.53,-7.24 38.91,2.49 50.03,0.31 14.73,-2.9 29.58,-11.81 21.8,-29.93 -7.29,-16.97 -26.69,-6.33 -42.68,-9.89 -16.22,-3.6 -16.35,-18.59 -25.46,-28.98 -6.01,-6.85 -12.14,-3.44 -18.28,0.96 -13.94,9.97 -21.29,17.52 -37.33,6.54 -15.99,-10.94 -12.81,16.58 -24.34,23.83 -6.35,4 -14.45,1.57 -19.12,7.6 -6.2,7.99 2.18,14.25 2.42,20.11 0.29,7.02 -9.67,7.31 -12.96,13.72 2.31,6.22 8.5,7.93 14.21,10.94 5.53,2.91 10.22,5.89 15.2,8.23 -4.03,3.07 -12.01,4.11 -17.07,6.53 -10.73,5.13 -27.66,19.1 -31.24,31 -0.83,2.74 -0.21,0.4 -0.23,2.29l50.41 5.62c-1.8,6.3 -17.63,29.62 -22.38,44.37 -18.6,57.72 43.14,64.21 58.95,35.34 6.75,-12.32 7.51,-43.39 7.04,-59.56 4.74,5.16 5.09,16.67 5.41,23.26 1.3,27.29 -6.36,41.19 -18.5,62.38 -13.36,23.32 -26.7,44.2 -37.83,71.32 -17.32,42.2 -26.5,92.55 -20.87,139.93 0.91,7.67 2.22,15.23 3.73,22.78 1.23,6.15 2.04,13.31 4.44,19.14 1.02,2.48 0.42,1.21 1.33,2.43 1.62,-12.42 2.35,-20.38 7.91,-30.5 4,-7.27 10.82,-17.69 17.11,-20.9 -5.27,29.63 -14.32,41.6 -8.75,84.83 5.49,42.51 23.34,68.81 46.22,100.33 7.11,9.8 14.17,17.87 21.2,26.94 13.88,17.91 36.81,40.61 53.1,57.07 6.1,6.16 27,26.01 29.67,31.32 10.77,21.41 18.11,65.3 31.64,89.23 13.51,23.87 38.61,24.12 56.68,40.65 19.64,17.98 9.5,37.68 12.89,61.24 1.2,8.32 4.89,9.93 8.41,15.23 -3.78,15.6 -9.57,32.65 -14.47,48.02 -10.96,34.39 -5.86,36.07 -21.52,40.45 -47.91,13.38 -76.44,-0.7 -90.27,32.15 16.41,-3.01 22.08,-5.68 40.93,-4.4 22.43,1.53 40.56,-0.44 62.13,-6.39 11.11,-3.07 7.71,-1.63 18.12,0.75 6.72,1.54 14.05,0.55 20.98,2.7 8.34,2.58 7.48,4.06 18.6,4.77 -3.23,-27.24 -11.06,-17.48 -26.52,-25.9 -14.79,-8.06 -2.01,-24.87 0.99,-35.84 16.02,4.48 9.98,9.12 33.89,6.94 -0.94,-1.05 -0.61,-0.74 -1.87,-1.82 -3.99,-3.42 -8.32,-5.74 -11.83,-9.72 -18.46,-20.93 -4.67,-25.94 2.58,-48.45 9.68,1 8.34,-1.98 12.79,-6.46 4.63,-4.68 9.58,-2.39 13.64,-5.61 3.71,-2.94 1.94,-8.03 7.86,-11.43 4.6,-2.64 11.02,-2.03 16.72,-2.46 0.06,-6.1 -0.06,-10.46 0.79,-16.6 0.93,-6.83 -0.17,-6.75 -3.31,-12.45 -7.94,-14.4 -16.02,-28.77 -25.31,-42.12 -4.7,-6.74 -9.9,-12.34 -13.99,-19.42 6.14,3.21 8.48,7.74 13.76,12.18l33.61 30.56c12.81,12.9 21,14.48 28.32,35.91 3.69,10.79 6.85,17.25 16.2,22.31 2.04,1.09 7.26,2.7 8.49,4.97l13.18 106.67c-18.95,9.33 -21.74,11.78 -46.86,11.59 -20.87,-0.17 -32.53,3.35 -37.78,20.63 14.29,-2.87 21.11,-5.6 37.79,-4.58 22.29,1.36 35.31,0.94 56.63,-4.05l34.07 4.57c7.46,2.9 7.38,3.45 16.54,4.08 -0.42,-26.29 -15.35,-17.16 -35.77,-33.12l-0.88 -31.3c20.3,4.18 23.27,5.54 41.75,-3 -3.52,-2.36 -14.49,-4.57 -19.75,-7 -7.11,-3.28 -10.8,-6.05 -16.15,-10.54 -8.63,-7.23 -6.4,-4.83 -6.76,-19.84 -0.4,-16.42 -3.53,-32.88 2.89,-47.24 2.67,-5.96 6.89,-10.65 8.79,-16.99 2.83,-9.47 -2.35,-15.79 -0.83,-23.18 1.24,-6.07 10.6,-7.9 17.41,-8.46 -1.86,-19.46 -3.28,-20.92 16.21,-25.37 -0.07,-34.44 -1.11,-23.13 27.46,-35.61 15.6,-6.82 28.54,-14.13 42.45,-22.76 6.39,-3.96 14.1,-9.27 19.58,-13.63 3.48,-2.76 5.51,-4.3 8.87,-7.11 2.81,-2.36 5.64,-5.2 8.54,-7.53 9.44,-7.58 24.76,-22.77 31.07,-32.61 -24.05,7.41 -30.6,13.36 -62.94,21.01 -116.52,27.57 -232.13,-9.7 -315.61,-86.29 -17.75,-16.28 -62.32,-70.97 -70.42,-97.49 6.75,6.66 12.13,15.93 18.39,23.33l19.1 21.58c8.96,9.37 21.46,20.14 32.46,29.52 3.96,3.37 6.86,5.71 11.35,8.99 91.56,67.04 207.61,92.7 321.21,63.47 14.31,-3.68 50.81,-14.85 59.84,-21.72 -13.96,-0.19 -28.52,1.61 -43.01,1.24 -38.5,-0.98 -78.35,-5.87 -115.01,-15.68 -29.77,-7.96 -101.25,-33.47 -122.75,-51.99 9.03,1.84 21.75,7.5 31.66,10.43 11.03,3.25 21.35,6.25 32.62,9.1 47.14,11.91 96.61,18.18 145.67,18.77 14.86,0.18 66.88,-0.5 77.69,-4.33 -7.77,-2.97 -16.92,-5.06 -24.83,-7.55 -8.7,-2.75 -16.2,-5.49 -24.82,-8.43 -22.42,-7.67 -122.04,-48.8 -135.16,-61.93 6.78,1.72 14.95,5.41 22.24,8.05z"/>
 </g>
</svg>
