<?xml version="1.0" encoding="UTF-8"?>
<!DOCTYPE svg PUBLIC "-//W3C//DTD SVG 1.1//EN" "http://www.w3.org/Graphics/SVG/1.1/DTD/svg11.dtd">
<!-- Creator: CorelDRAW 2019 (64 Bit) -->
<svg xmlns="http://www.w3.org/2000/svg" xml:space="preserve" width="210mm" height="297mm" version="1.1" style="shape-rendering:geometricPrecision; text-rendering:geometricPrecision; image-rendering:optimizeQuality; fill-rule:evenodd; clip-rule:evenodd"
viewBox="0 0 21000 29700"
 xmlns:xlink="http://www.w3.org/1999/xlink">
 <defs>
  <style type="text/css">
   <![CDATA[
    .fil1 {fill:black}
    .fil0 {fill:#D6A828}
   ]]>
  </style>
 </defs>
 <g id="Camada_x0020_1">
  <metadata id="CorelCorpID_0Corel-Layer"/>
  <path class="fil0" d="M14461.63 14037.73c448.9,0 812.8,363.9 812.8,812.8 0,448.9 -363.9,812.8 -812.8,812.8 -448.9,0 -812.8,-363.9 -812.8,-812.8 0,-448.9 363.9,-812.8 812.8,-812.8z"/>
  <g id="_711993360">
   <path class="fil1" d="M14343.43 15398.35c12.97,-8.7 93.81,-37.72 110.53,-36.89 17.87,0.89 93.04,28.51 106.15,37.13 -70.5,11.39 -146.33,11.12 -216.68,-0.24zm-221.65 -829.73c75.11,-5.4 165.85,-1.02 242.66,-1.02 117.2,0 148.21,21.8 185.96,-57.49 -85.44,0.92 -477.95,-11.12 -519.57,9.86 -11.6,46.45 22.66,55.92 52.57,91.48 96.69,114.95 216.53,233.55 320.62,346.08 23.67,19.88 20.45,16.61 20.19,55.26 -0.66,99.39 -0.15,198.81 -0.15,298.2 -53.49,12.67 -123.04,40.35 -178.56,59.18 -28.1,9.53 -64.87,36.98 -22.29,59.14 16.16,8.4 74.06,18.71 94.65,21.99 107.2,17.07 215.41,13.98 321.59,-9.81 42.32,-9.48 62.69,-7.4 54.78,-55.44 -28.25,-14.6 -177.49,-67.84 -214.51,-75.77 0.07,-100.92 -0.38,-202.03 0.05,-302.91 0.15,-35.4 1.74,-35.45 22.45,-52.47 83.52,-89.82 167.04,-178.16 251.63,-266.71l106.47 -115.87c15.46,-17.42 22.97,-24.5 14.49,-54.06 -28.64,-10.23 -119.49,-9.74 -158.38,-5.11 -15.23,16.46 -29.8,36.24 -40.19,54.26l108.88 2.62c-28.92,23.58 -50.5,61.43 -82.11,88.37l-246.05 265.93c-19.08,-7.17 -15.77,-6.76 -28.98,-22.57 -103.39,-110.31 -204.35,-221.45 -306.2,-333.14z"/>
   <path class="fil1" d="M14560.99 14642.79c11.71,-23.51 54.53,-71.43 73.85,-94.87 54.93,-66.62 42.21,-74.17 83.52,-79.9 49.38,-6.84 68.76,-39.93 66.36,-92.4 -1.36,-29.88 15.47,-31.46 28.74,-51.89 11.46,-17.67 7.76,-50.48 -21.92,-38.05 -17.94,7.52 -26.2,35.24 -41.1,44.61 -13.52,8.52 -86.9,3.41 -92.13,75.81 -2.91,40.32 16.74,22.59 -12.31,57.72 -18.66,22.55 -137.24,176.84 -149.28,179.8l-246.76 1.01c15.68,22.02 27.74,34.42 51.12,55.95l152.15 162.13 203.13 -219.22 -95.37 -0.7z"/>
  </g>
 </g>
</svg>
