<?xml version="1.0" encoding="UTF-8"?>
<!DOCTYPE svg PUBLIC "-//W3C//DTD SVG 1.1//EN" "http://www.w3.org/Graphics/SVG/1.1/DTD/svg11.dtd">
<!-- Creator: CorelDRAW 2019 (64 Bit) -->
<svg xmlns="http://www.w3.org/2000/svg" xml:space="preserve" width="210mm" height="297mm" version="1.1" style="shape-rendering:geometricPrecision; text-rendering:geometricPrecision; image-rendering:optimizeQuality; fill-rule:evenodd; clip-rule:evenodd"
viewBox="0 0 21000 29700"
 xmlns:xlink="http://www.w3.org/1999/xlink">
 <defs>
  <style type="text/css">
   <![CDATA[
    .fil1 {fill:black}
    .fil0 {fill:#D6A828}
   ]]>
  </style>
 </defs>
 <g id="Camada_x0020_1">
  <metadata id="CorelCorpID_0Corel-Layer"/>
  <path class="fil0" d="M14329.93 14037.73c448.9,0 812.8,363.9 812.8,812.8 0,448.9 -363.9,812.8 -812.8,812.8 -448.9,0 -812.8,-363.9 -812.8,-812.8 0,-448.9 363.9,-812.8 812.8,-812.8z"/>
  <path class="fil1" d="M14334.98 15341.22c29.08,-29.01 50.7,-42.73 82.39,-76.65 20.89,-22.37 50.04,-58.95 69.37,-90.03 72.12,-115.96 54.84,-151.32 76.39,-241.06 7.42,104.24 -13.54,182.11 -62.11,255.29 -38.04,57.31 -97.83,124.66 -166.04,152.45zm7.06 -147c2.12,-47.12 91.97,-214.51 116.34,-287.05 8.7,-25.92 22.98,-79.94 36.02,-99.94 3,82.98 -24.17,153.64 -52.82,219.04l-72.84 133.37c-7.26,10.8 -22.04,26.32 -26.7,34.58zm-262.1 -101.91c-28.41,-82.99 27.99,-202.68 82.11,-256.65 11.09,-11.05 13.65,-9.28 21.5,-20.81 -10.05,24.85 -44.36,72.09 -65.17,122.51 -22.5,54.49 -32.69,90.45 -38.44,154.95zm86.37 297.58c11.17,-148.04 -26.7,-310.77 32.29,-391.34 -16.7,89.42 -23.08,107.5 -16.37,208.35 14.37,-38.41 6,-92.93 40.93,-178.77 43.15,-106.05 108.83,-143.39 166.78,-273.79 18.77,-42.23 55.7,-124.44 92.78,-126.99 -44.55,35.69 -68.91,127.07 -88.14,173.95 -27.56,67.16 -69.23,112.97 -104.23,167.6 -112.34,175.4 -64.84,339.29 -124.04,420.99zm224.87 -751.44c-33.52,37.67 -51.71,83.44 -75.4,130.83 -47.43,94.92 -155.53,168.28 -172.47,305.52 -11.08,89.83 9.87,142.3 8.96,221.24 -21.77,-43.52 -33.66,-165.32 -27.56,-221.4 15.82,-145.37 123.17,-219.19 177.52,-314.17 22.23,-38.85 66.43,-127.16 106.82,-148.92 2.1,-1.52 5.27,-3.63 7.84,-4.12 7.47,-1.92 11.62,-0.27 11.62,-0.27l-14.2 11.05 -23.13 20.24zm-667.8 290.55l-1.84 11.42 12.93 -0.79c64,-5.88 246.26,0.21 286.65,-18.98 12.4,-8.9 32.94,-71.77 77.94,-119.87 80.61,-86.16 83.08,-61.66 147.2,-143.09 17,-21.59 25.5,-29.97 44.87,-48.91 46.12,-45.11 53.56,-61.6 91.01,-102.73l114.95 5.29 -16.67 43.38c-60.04,-0.71 -101.4,21.39 -132.93,49.54 -33.76,30.13 -59,59.12 -87.76,94.97 -44.87,55.94 -102.43,73.03 -165.93,194.91 -51.67,99.18 -62.08,177.08 -35.15,298.07 10.25,46.02 27.45,97.48 46.16,136.22 9.91,20.53 20.06,39.61 29.2,59.72 10.17,22.39 10.17,45.83 25.35,63.55 11.4,5.89 164.34,-69.27 182.7,-79.73 53.55,-30.47 112.51,-78.49 146.44,-116.14 105.44,-116.98 108.62,-233.45 99.93,-420.34 -20.09,26.58 -0.08,18.03 -45.78,69.66 9.76,-45.7 46.13,-110.65 49.26,-187.09 4.25,-103.99 -68.23,-141.41 -77.26,-154.11 5.57,-18.52 14.75,-40.62 26.89,-52.19 13.19,-8.23 167.47,-10.36 252.14,-55.56 7.25,-37.5 -24.66,-71.83 -50.78,-81.73 -18.82,5.45 -48.07,25.23 -70.68,34.44 -23.87,9.72 -48.57,17.48 -74.74,23.6 -56.38,13.18 -117.26,18.96 -177.97,17.92 -149.39,-2.56 -202.47,-29.43 -329.99,-68.03l-12.66 42.73c37.98,11.09 80,31 123.64,44.16l121.93 28.09c14.54,5.05 4.38,-0.18 12.63,6.93 -26.22,27 -42.62,59.06 -70.04,76.64 -195.73,-67.55 -355.37,-11.99 -466.94,148.64 -26.21,37.74 -60.77,103.43 -68.22,157.99l83.58 -72.48c10.92,-8.39 86.83,-52.66 89.23,-57.29l-54.6 -2.38c17.65,-6.97 35.92,-5.08 56.44,-4.41 29.71,0.97 89.05,-26.95 136.72,-41.79 -29.6,-20.57 -73.89,-13.07 -108.44,-21.33 94.34,-6.06 101.1,16.25 134.89,12.46 30.12,-3.38 86.02,-30.67 109.04,-41.26 -4.48,-5.24 -1.74,-2.89 -8.01,-7.84 -2.72,-2.15 -6.22,-4.26 -8.87,-5.71 -2.9,-1.57 -12.44,-5.48 -16.34,-6.97 -42.2,-16.11 -92.22,-15.13 -133.46,-21.74 9.93,3.47 50.02,-3.4 99.3,4.75 86.22,14.84 54.92,55.45 130.25,-5.09 -31.99,47.35 -75.31,69.7 -140.47,95.36 -62.94,24.78 -63.57,76.76 -99.92,137.15 -0.46,-42.87 33.12,-81.93 46.14,-115.9 -23.42,5.82 -96.89,31.31 -107.86,46.67 -6.17,8.61 -43.36,91.52 -44.7,100.14 -1.84,-35.62 15.39,-65.62 24.83,-94.9 -71.45,25.74 -160.27,97.29 -194.23,143.98z"/>
 </g>
</svg>
