<?xml version="1.0" encoding="UTF-8"?>
<!DOCTYPE svg PUBLIC "-//W3C//DTD SVG 1.1//EN" "http://www.w3.org/Graphics/SVG/1.1/DTD/svg11.dtd">
<!-- Creator: CorelDRAW 2019 (64 Bit) -->
<svg xmlns="http://www.w3.org/2000/svg" xml:space="preserve" width="210mm" height="297mm" version="1.1" style="shape-rendering:geometricPrecision; text-rendering:geometricPrecision; image-rendering:optimizeQuality; fill-rule:evenodd; clip-rule:evenodd"
viewBox="0 0 21000 29700"
 xmlns:xlink="http://www.w3.org/1999/xlink">
 <defs>
  <style type="text/css">
   <![CDATA[
    .fil1 {fill:black}
    .fil0 {fill:#D6A828}
   ]]>
  </style>
 </defs>
 <g id="Camada_x0020_1">
  <metadata id="CorelCorpID_0Corel-Layer"/>
  <path class="fil0" d="M14329.93 14037.73c448.9,0 812.8,363.9 812.8,812.8 0,448.9 -363.9,812.8 -812.8,812.8 -448.9,0 -812.8,-363.9 -812.8,-812.8 0,-448.9 363.9,-812.8 812.8,-812.8z"/>
  <g id="_712986976">
   <path class="fil1" d="M14685.39 14768.99l2.52 -19.51 10.55 9.73c55.81,36.96 44.7,108.8 -34.47,120.9 9.27,-39.02 20.91,-68.43 21.4,-111.12zm-651.44 -106.12c32.31,-66.61 120.55,-55.92 183.92,-87.3 -8.38,-18.48 -18.53,-31.02 -27.59,-53.14 -133.24,20.94 -221.38,61.33 -222.13,194.06 -2.38,423.17 482.98,550.04 665.31,222.92 82.22,3.05 142.45,-31.26 155.64,-99.96 20.13,-104.87 -85.18,-143.95 -95.76,-156.7 -17.6,-21.24 9.46,-70.41 -94.01,-120.61 -53.32,-25.89 -109.7,-38.16 -174,-46.51 2.79,64.94 39.96,67.68 66.02,73.45 36.13,8.02 75.84,22.99 102.28,39.03 85.21,51.74 -17.56,111.05 -164.9,131.3l-0.03 0.01c-18.21,10.05 -50.86,23.65 -48.82,60.57 1.47,26.77 -2.46,50.69 -18.99,61.32 -39.13,25.12 -58.71,-19.2 -56.6,-53.08 1.78,-28.33 -16.71,-62.4 -16.71,-62.4l-0.02 -0.03c-60.49,-2.8 -121.18,-13.07 -174.49,-33.29 -35.62,-13.53 -75.02,-26.81 -79.12,-69.64z"/>
   <path class="fil1" d="M14243.91 14246.51c24.31,66.45 104.9,82.22 -5.84,182.69 -26.36,23.91 -42.54,58.14 -20.07,104.42 9.49,19.53 45.29,64.68 72.29,68.48 50.91,-43.28 -6.85,-55.52 9.61,-117.17 10.56,-39.53 50.65,-50.11 67.98,-87.02 38.33,-81.63 -69.66,-179.3 -123.97,-151.4z"/>
   <path class="fil1" d="M14309.98 14696.46c52.06,29.78 132.98,-28.71 128.07,-86.78 -3.38,-39.85 -30.91,-41.51 -34.6,-81.5 -1.65,-17.78 62.39,-142.72 -22.39,-90.62 -8.06,4.92 -25.76,18.29 -33.75,26.96 -63.05,68.46 37.12,100.25 17.25,165.14 -14.9,48.62 -38.3,33.89 -54.58,66.8z"/>
   <path class="fil1" d="M13870.95 15102.25c-83.21,-63.27 -30.26,-130.46 44.73,-155.85 -7.74,-26.71 -15.72,-35.92 -24.08,-68.94 -179.49,78.34 -203.92,249.51 61.36,344.37 505.31,146.88 1198.61,-49.47 866.53,-312.29l-20.68 68.78c14.31,16.93 35.46,32.46 31.15,67.04 -1.66,13.34 -8.78,26.19 -15.8,34.36 -151,176.47 -776.48,149.26 -943.21,22.53z"/>
  </g>
 </g>
</svg>
