<?xml version="1.0" encoding="UTF-8"?>
<!DOCTYPE svg PUBLIC "-//W3C//DTD SVG 1.1//EN" "http://www.w3.org/Graphics/SVG/1.1/DTD/svg11.dtd">
<!-- Creator: CorelDRAW 2019 (64 Bit) -->
<svg xmlns="http://www.w3.org/2000/svg" xml:space="preserve" width="210mm" height="297mm" version="1.1" style="shape-rendering:geometricPrecision; text-rendering:geometricPrecision; image-rendering:optimizeQuality; fill-rule:evenodd; clip-rule:evenodd"
viewBox="0 0 21000 29700"
 xmlns:xlink="http://www.w3.org/1999/xlink">
 <defs>
  <style type="text/css">
   <![CDATA[
    .fil2 {fill:black}
    .fil0 {fill:#999999}
    .fil1 {fill:#D6A828}
   ]]>
  </style>
 </defs>
 <g id="Camada_x0020_1">
  <metadata id="CorelCorpID_0Corel-Layer"/>
  <path class="fil0" d="M13303.82 14037.73c448.9,0 812.8,363.9 812.8,812.8 0,448.9 -363.9,812.8 -812.8,812.8 -448.9,0 -812.8,-363.9 -812.8,-812.8 0,-448.9 363.9,-812.8 812.8,-812.8zm-459.11 894.85c26.97,22.93 54.14,53.36 79.82,79.05 40.47,40.46 224.52,230.13 244.19,238.52 14.36,-19.98 53.01,-54.17 72.95,-73.98l373.09 -370.7c6.75,-6.69 12.18,-11.38 18.4,-18.41l53.61 -56.84c17.61,-17.49 59.84,-63.62 76.5,-74.01l39.91 -41.82 -162.86 -163.48 -470.92 468.51c-29.16,-12.12 -165.86,-172.33 -199.87,-192.81 -30.74,17.94 -91.83,91.14 -122.64,121.05 -14.97,14.54 -28.28,26.93 -42.43,41.64l40.25 43.28z"/>
  <path class="fil1" d="M13303.82 14037.73c448.9,0 812.8,363.9 812.8,812.8 0,448.9 -363.9,812.8 -812.8,812.8 -448.9,0 -812.8,-363.9 -812.8,-812.8 0,-448.9 363.9,-812.8 812.8,-812.8z"/>
  <g id="_712666240">
   <path class="fil2" d="M12800.77 15079.18c5.37,-0.51 34.18,6.04 38.03,8.06l28.29 6.14c4.34,1.54 1.94,0.59 3.53,1.66 8.05,-1.04 19.85,2.85 27.35,4.57 12.78,2.03 125.62,20.83 126.85,21.73 6.19,-0.65 12.12,0.5 18.2,1.53 7.99,0.67 38.26,2.66 42.55,5.74 10.03,-1.28 39.31,2.71 51.45,3.74 17.38,1.47 34.65,2.74 52.07,3.6 112.43,5.54 205,3.76 317.76,-6.96l37.6 -3.91c5.26,-0.99 10.5,-1.88 16.11,-0.95 5.58,-3.74 26.2,-4.66 34.64,-5.47l112.82 -17.79c4.04,-2.69 6.03,-2.35 16.48,-4.46 6.34,-1.27 12.07,-2.65 18.59,-3.62 5.17,-2.21 13.38,-3.68 19.33,-3.34 7.16,-6.31 34.2,-7.29 45.36,-12.19l-0.71 -20.27 -0.25 -28.31c8.56,2.72 17.39,13.39 24.07,20.24 4.62,4.73 16.55,16.12 13.67,28.05 -2.96,12.29 -32.6,32.85 -47.48,38.57 -12.38,7.43 -41.72,18.72 -57.82,23.37 -10.75,3.63 -43.04,14.95 -52.93,14.65 -5.94,4.93 -26.81,8.2 -36.02,9.63 -5.34,2.24 -13.12,3.67 -19.26,3.39 -5.66,4.51 -29.38,7.08 -38.28,8.04 -8.77,3.38 -98.98,15.81 -109.3,13.87 -6.32,4.03 -29.63,3.96 -39.06,4.44l-9.06 -0.2c-6.89,4.25 -35.65,3.27 -46.03,3.59 -6.01,0.31 -10.25,1.06 -15.75,-0.49 -0.33,0.18 -0.81,0.34 -1.06,0.41 -0.27,0.08 -0.77,0.3 -1.11,0.39 -0.35,0.08 -0.77,0.23 -1.17,0.31 -0.43,0.09 -0.8,0.16 -1.27,0.23l-15.9 0.5c-6.68,0.15 -13.35,0.24 -20.03,0.37l-29.54 0.24 -28.46 -0.26 -20.58 -0.42c-8.29,-0.13 -16.73,-0.5 -24.85,-0.83 -4.29,-0.17 -8.61,-0.24 -12.89,-0.4l-7.02 -0.67c-0.4,-0.09 -0.91,-0.28 -1.22,-0.36 -0.31,-0.08 -0.94,0.04 -1.16,-0.44 -0.21,-0.46 -0.77,-0.27 -1.12,-0.47 -5.29,1.65 -13.92,0.73 -18.93,-0.04 -8.72,-0.27 -24.75,0.89 -31.08,-3.05 -8.18,1.44 -18.92,-0.25 -26.81,-1.45 -18.17,-1.2 -113.9,-10.82 -122.4,-17.49 -6.18,0.57 -12.05,-1.01 -17.86,-2.57 -7.17,-0.86 -13.76,-2.52 -20.53,-3.92 -5.33,-1.09 -12.97,-1.77 -17.31,-4.98 -6.18,0.56 -14.59,-1.74 -20.16,-4.03 -15.19,-2.43 -50.57,-12.6 -62.55,-17.9 -9.65,-2.44 -51.48,-18.45 -56.35,-22.91 -16.24,-4.94 -46.43,-25.84 -49.81,-39.76 -3.02,-12.43 8.75,-22.34 14.14,-27.49 3.83,-3.66 6.71,-6.94 10.87,-10.84 3.32,-3.12 7.52,-7.88 12.84,-8.66 0.83,13.54 -2.09,39.22 0.52,49.84zm300.24 -344.87c-8.39,6.41 -18.32,13.01 -27.19,20.2 -14.19,11.49 -36.37,32.05 -48.06,46.25l-20.67 24.82c-2.55,7.07 -14.09,22.63 -19.02,31.16 -3.31,5.73 -13.99,28.51 -17.99,31.45 -0.54,8.62 -6.93,17.71 -10.79,26.79 -2.07,4.85 -7.99,23.28 -10.02,26.01 -2.32,11.45 -12.81,53.55 -18.1,58.95 -7.61,7.78 -19.88,5.58 -26.41,-1.62 -7.3,-8.04 -5.82,-22.8 -1.71,-28.56 -1.12,-8.27 3.4,-20.53 5.95,-27.75l23.08 -60.9c0.38,-7.43 9.28,-21.38 12.99,-28.24 3.02,-5.6 11.38,-23 15.42,-24.99 8.67,-20.6 51.96,-70.07 71.12,-87.08 15.14,-13.45 54.19,-45.17 70.52,-49.8 14.63,-0.07 21.36,5.42 21.89,19.71 -0.88,9 -2.8,10.56 -7.92,14.55 -4.36,3.4 -7.96,6.29 -13.09,9.05zm204.56 -60.48c-5.4,3.66 -23.2,3.64 -30.54,4.12 -6.6,0.37 -15.71,2.34 -21.18,0.39l-7.62 2.43c-20.3,3.45 -37.43,9.05 -44.07,0 -6.39,-2.8 -8.57,-13.81 -6.67,-20.48 6.78,-23.77 110.41,-24.98 119.02,-18.64 14.74,10.86 7.07,34.24 -8.94,32.18zm-59.48 -114.68c-1.22,-6.63 2.02,-18.1 5.26,-21.85 3.24,-10.98 14.5,-23.81 24.36,-27.01 2.09,-2.43 2.06,-2.43 5.82,-2.47 3.77,-3.57 7.82,-4.26 13.19,-5.05 10.01,-1.47 19.84,-0.47 29.32,3.23 5.92,2.3 7.43,2.89 10.16,6.42 8.24,1.48 18.8,13.91 19.57,21.63 6.2,4.71 8.42,19.06 8.5,28.22l-115.06 0c-3.48,-1.56 -0.52,1.03 -1.83,-1.53 -3.18,-6.16 -0.49,0.58 0.71,-1.59zm30.85 -92.58c-1.07,0.87 -1.19,1.02 -3.15,2.08 -2.4,1.31 -0.59,0.39 -3.19,1.42 -33.19,13.21 -48.13,32.06 -60.24,66.64 -1.54,7.15 -2.49,28.66 -3.72,31.58 -4.74,3.89 -15.51,4.29 -22.85,6.17 -7.49,1.92 -14.99,5.48 -21.74,5.07 -0.31,0.26 -0.76,0.55 -1.01,0.7l-15.02 5.85c-5.8,2.05 -11.59,4.28 -17.7,5.74 -1.56,1.58 -22.18,9.26 -26.31,11.09 -8.26,3.66 -18.26,10.33 -26.4,11.06 -3.59,4.8 -25.15,15.24 -31.82,19.23l-26.32 17.12c-3.49,1.68 -0.36,0.77 -4.55,1.39 -1.85,5.13 -23.89,20.27 -28.74,22.89 -0.12,0.24 -0.37,0.57 -0.46,0.68l-23.11 21.15c-8.25,7.35 -15.29,14.15 -22.73,22.21l-41.54 48.35c-3.65,8.28 -14.01,21.86 -19.86,30.9 -3.52,5.44 -14.43,26.69 -18.41,30.03 -0.34,5.4 -9.04,20.92 -12.21,27.8 -2.43,5.29 -9.52,24.51 -11.84,27.27 -1.58,7.01 -8.19,28.68 -12.24,33.14 0.2,4.11 -11.22,48.11 -13.11,55.48 -1.75,8.2 -5.53,8.6 -12.18,13.08 -4.96,3.35 -10.46,7.34 -16.16,9.85 -1.46,2.92 -15.5,12.77 -19.58,16.76 -3.39,3.32 -6.35,5.75 -9.67,9.19 -2.79,2.87 -5.02,6.65 -8.48,7.5 -8.36,14.12 -19.15,21.23 -18.75,46.39 0.16,9.79 2.12,17.62 6.94,24.89 4.12,6.22 11.09,12.14 13.86,16.97 3.6,2.32 5.09,3.87 7.15,7.77 5.43,2.13 9.61,6.61 15.07,10.21 5.13,3.38 9.25,6.17 15.14,9.52 6.19,3.51 28.07,12.98 31.08,16.9l55.41 19.12c19.58,5.47 38.35,10.97 58.54,15.98 10.18,2.53 55.39,10.26 60.23,14.1 7.89,-0.54 17.68,1.56 25.05,3.68l31.41 5.15c0.37,0.13 0.87,0.4 1.16,0.51 0.29,0.12 0.78,0.32 1.14,0.54 6.17,-1.3 19.53,0.54 24.71,2.37 19.92,1.46 41.12,4.38 61.41,6.48 11.79,1.23 55.04,2.14 61.43,5.69l7.24 -0.66 58.65 3.42c4.97,-1.86 9.63,-1.04 15.56,-0.99l28.46 0.25 29.54 -0.25 40.32 -1c5.67,-0.22 7.57,-0.88 12.75,0.63l33.35 -2.68 13.91 -0.03c0.52,-0.33 121.25,-13.85 132.84,-14.89 6.73,-1.45 15.06,-3.3 21.94,-2.5 4.94,-3.55 32.04,-7.01 40.41,-8.09l22.84 -4.78 59.24 -14.08c4.22,-2.46 19.09,-6.83 24.89,-6.53l62.01 -23.93c3.61,-3.25 21.43,-10.79 27.85,-14.52 8.27,-4.81 20.35,-14.63 26.95,-16.16 2.59,-5.21 9.15,-9.89 13.46,-12.23 2.78,-8.31 29.56,-30.15 12.2,-67.03 -3.22,-6.84 -9.4,-12.42 -10.79,-17.54 -9.18,-5.56 -13.2,-12.33 -21.29,-19.92 -4.86,-4.57 -18.04,-12.77 -21.36,-18.32 -4.84,-0.92 -7.21,-3.61 -12.6,-7.2 -3.98,-2.65 -8.16,-5.67 -12.43,-7.64l0.54 -4.45 -16.28 -61.15c-2.4,-4.01 -8.32,-21.2 -8.33,-25.85 -0.26,-0.29 -0.57,-0.72 -0.72,-0.94l-3.66 -7c-1.15,-2.8 -1.85,-4.48 -2.95,-7.19l-20.86 -45.42c-4.8,-4.77 -11.88,-19.75 -16.71,-27.19 -3.33,-5.14 -5.96,-9.45 -9.1,-14.14 -3.11,-4.63 -7.14,-8.6 -7.97,-13.35 -4.65,-2.69 -4.18,-3.47 -6.47,-8.27 -3.79,-1.98 -6.22,-6.85 -8.84,-10.17 -1.87,-2.36 -2.72,-3.36 -4.58,-5.64 -3.88,-4.75 -2.36,-0.56 -3.47,-5.89l-69.71 -69.17c-4.63,-1.39 -19.48,-13.35 -24.01,-17.19 -3.89,-2.15 -2.84,-1.91 -4.44,-4.11 -3.6,-0.78 -22.02,-13.5 -27.26,-16.8 -5.16,-3.25 -24.72,-13.51 -27.5,-16.3l-61.57 -27.59c-4.82,0.32 -22.18,-5.48 -25.9,-8.18 -8.92,-1.58 -43.69,-10.29 -49.26,-13.61l-3.39 -31.1c-6.52,-20.18 -11.62,-29.73 -23.67,-42.54 -5.76,-6.13 -10.42,-10.31 -18.11,-15.25 -5.56,-3.57 -17.81,-8.13 -21.1,-10.6 -14.21,-2.69 -20.21,-4.58 -36.23,-4.43l-21.03 2.5z"/>
   <path class="fil2" d="M13498.75 14329.74c1.16,1.04 13.11,18.55 14.22,20.73 13.15,25.86 2.18,44.27 -11.92,62.81l-8.01 8.64c-0.51,3.63 0.44,0.42 -1.75,4.78 -11.83,23.55 -6.74,19.95 -11.62,31.45 -1.44,18.38 -1.51,31.77 5.49,47.72 2.57,5.83 5.83,12.01 9.12,16.95 1.7,2.55 3.81,5.17 5.7,7.29l5.02 5.83c0.12,-0.25 0.5,0.65 0.73,1l-0.42 -0.47c27.95,9.88 33,-11.93 30.82,-19.2 -2.99,-10 -10.46,-10.18 -18.68,-37.93 0.77,-18.37 -2.01,-19.66 7.81,-34.59 5.81,-8.82 12.27,-15.81 18.52,-24.73 6.72,-13.95 12.04,-23.33 12.98,-41.62 1.13,-21.9 -4.38,-29.28 -9.4,-46.4 -1.84,-1.46 -7.93,-11.48 -10.28,-14.38 -8.69,-10.74 -19.29,-17.71 -31.76,-7.38 -6.72,5.57 -6.06,9.28 -6.57,19.5z"/>
   <path class="fil2" d="M13091.14 14362.08c2.91,13.9 1.47,24.33 -4.91,35.12 -3.15,5.33 -13.77,20.52 -17.43,22.35 -2.1,6.04 -5.22,9.31 -8.21,15.82 -1.36,2.95 -2.07,5.17 -3.23,8.26 -1.59,4.27 -1.23,4.37 -3.53,7.17 1.54,20.67 -9.43,46.6 21.92,80.2 8.6,9.23 8.83,8.51 23.26,8.81 1.26,-1.59 0.38,-1.13 2.36,-2.61 4.21,-3.14 0.51,-0.75 4.46,-2.39 0.91,-4.16 4.5,-6.7 4.76,-13.09 0.26,-6.46 -2.57,-7.19 -3.44,-12.71 -0.31,-0.24 -0.71,-0.57 -0.9,-0.75l-1.71 -1.53c-16.54,-16.8 -17.56,-39.47 -6.02,-60.96 11.14,-20.74 14.87,-8.49 30.52,-54.05l2.51 -26.07 -1.98 -5.95c-2.95,-12.69 -2.79,-16.75 -10.16,-30.41 -24.12,-44.77 -52.49,-15.69 -45.05,1.5 3.34,7.71 12.53,14.83 16.78,31.29z"/>
   <path class="fil2" d="M13289.26 14218.89c4.72,3.2 13.02,19.62 15.21,27.83 2.7,9.19 0.74,22.16 -2.89,29 -4.32,11.72 -11.95,18.74 -18.32,27.07 -8.35,10.9 -8.36,16.38 -14.47,27.76 -2.24,13.13 -3.58,18.58 -3.01,33.34l5.45 26.51c3.42,2.95 5.21,8.05 7.4,11.71 2.27,3.79 5.02,7.12 7.41,9.96 4.96,5.9 11.81,13.94 24.06,12.02l5.84 -2.69c7.8,-13.24 10.4,-13.22 1.75,-29.9 -5.76,-6.56 -11.61,-16.64 -13.2,-29.06 -1.64,-9.79 0,-24.52 7.16,-30.27 0.52,-3.46 -0.33,-0.84 1.31,-4.05 0.76,-1.48 1.31,-1.97 2.39,-3.34 1.96,-2.48 3.01,-3.61 5.21,-6.43 3.17,-4.07 5.59,-7.94 8.82,-12.91 5.8,-8.93 11.03,-18.3 13.13,-30.26l0.44 -33.07c-1.46,-9.89 -5.94,-17.15 -6.65,-23.49 -5.07,-4.07 -8.02,-11.91 -11.7,-16.23 -21.5,-25.16 -44.35,-11.03 -35.34,16.5z"/>
  </g>
 </g>
</svg>
