<?xml version="1.0" encoding="UTF-8"?>
<!DOCTYPE svg PUBLIC "-//W3C//DTD SVG 1.1//EN" "http://www.w3.org/Graphics/SVG/1.1/DTD/svg11.dtd">
<!-- Creator: CorelDRAW 2019 (64 Bit) -->
<svg xmlns="http://www.w3.org/2000/svg" xml:space="preserve" width="210mm" height="297mm" version="1.1" style="shape-rendering:geometricPrecision; text-rendering:geometricPrecision; image-rendering:optimizeQuality; fill-rule:evenodd; clip-rule:evenodd"
viewBox="0 0 21000 29700"
 xmlns:xlink="http://www.w3.org/1999/xlink">
 <defs>
  <style type="text/css">
   <![CDATA[
    .fil1 {fill:black}
    .fil0 {fill:#D6A828}
   ]]>
  </style>
 </defs>
 <g id="Camada_x0020_1">
  <metadata id="CorelCorpID_0Corel-Layer"/>
  <path class="fil0" d="M14461.63 14037.73c448.9,0 812.8,363.9 812.8,812.8 0,448.9 -363.9,812.8 -812.8,812.8 -448.9,0 -812.8,-363.9 -812.8,-812.8 0,-448.9 363.9,-812.8 812.8,-812.8z"/>
  <g id="_712569408">
   <path class="fil1" d="M14545.88 14641.23c-7.11,168.96 -52.12,300.05 -55.51,550.03 -116,33.23 -174.67,27.3 -290.28,0.58 -1.5,-244.22 -46.38,-376.99 -53.46,-550.31l399.25 -0.3zm-200.22 756.85c157,0 204.36,23.51 205.58,-49.88 2.26,-134.89 -5.24,-225.7 13.47,-367.79 8.26,-62.68 55.04,-346.23 44.5,-386.2 -34.57,-28 -281.58,-15.02 -342.15,-15.02 -242.28,0 -198.27,-88.81 -131.97,470.97 9.64,81.33 -9.66,284.66 10.09,340.55 39.78,14.27 148.65,7.37 200.48,7.37z"/>
   <path class="fil1" d="M14249.83 15154.65c44.76,11.92 144.99,21.29 184.35,-0.73 10.72,-9.42 6.09,-70.68 8.85,-96.31l35.98 -273.96 -266.39 -0.36c13.86,126.59 37.68,242.78 37.21,371.36z"/>
   <path class="fil1" d="M14913.98 14595.71l0 -84.02c-13.09,-28.14 -16.23,-61.29 -32.99,-92.32 -130.83,-242.27 -505.22,-144.73 -507.84,109.03l59.99 1.04c40.59,-199.26 235.45,-247.46 365.57,-118.57 51.66,51.17 71.16,151.6 31.82,230.79 -34.12,68.67 -90.32,105.76 -188.21,118.32l-6.55 60.15c106.81,-0.56 189.27,-49.96 240.49,-132.86 17.08,-27.62 22.42,-64.68 37.72,-91.56z"/>
   <path class="fil1" d="M14663.82 14708.69c23.4,5.98 54.57,-8.87 74.66,-26.02 -4.6,-22.07 -53.18,-67.67 -72.39,-73.66 -10.61,22.08 -8.45,77.28 -2.27,99.68z"/>
   <path class="fil1" d="M14481.57 14528.5c29.37,2.73 75.07,7.43 100.23,-3.03 -5.55,-19.99 -53.82,-67.27 -72.9,-72.71 -17.96,19.41 -31.32,46.48 -27.33,75.74z"/>
   <path class="fil1" d="M14545.41 14416.64c6.57,19.47 19.05,26.35 32.58,39.74 13.36,13.22 22.23,30.81 44.21,31.98l0.75 -99.63c-31.45,-2.97 -57.95,9.5 -77.54,27.91z"/>
   <path class="fil1" d="M14704.41 14529.14l97.89 -0.01c5.18,-28.26 -10.88,-59.71 -27.38,-76.68 -19.77,7.34 -26.46,19.22 -40.23,32.86 -13.45,13.33 -31.58,21.54 -30.28,43.83z"/>
   <path class="fil1" d="M14660.81 14487.63c25.83,0.72 73.3,-56.55 78.21,-70.99 -17.11,-15.92 -48.4,-31.73 -76.03,-27.28l-2.18 98.27z"/>
   <path class="fil1" d="M14774.92 14646.11c18.71,-19.46 31.06,-45.95 28.23,-76.14l-99.5 -1.16c0.94,20.98 15.06,27.7 28.92,41.3 14.32,14.07 22.35,27.88 42.35,36z"/>
  </g>
 </g>
</svg>
