<?xml version="1.0" encoding="UTF-8"?>
<!DOCTYPE svg PUBLIC "-//W3C//DTD SVG 1.1//EN" "http://www.w3.org/Graphics/SVG/1.1/DTD/svg11.dtd">
<!-- Creator: CorelDRAW 2019 (64 Bit) -->
<svg xmlns="http://www.w3.org/2000/svg" xml:space="preserve" width="210mm" height="297mm" version="1.1" style="shape-rendering:geometricPrecision; text-rendering:geometricPrecision; image-rendering:optimizeQuality; fill-rule:evenodd; clip-rule:evenodd"
viewBox="0 0 21000 29700"
 xmlns:xlink="http://www.w3.org/1999/xlink">
 <defs>
  <style type="text/css">
   <![CDATA[
    .fil1 {fill:#010101}
    .fil0 {fill:#D6A828}
   ]]>
  </style>
 </defs>
 <g id="Camada_x0020_1">
  <metadata id="CorelCorpID_0Corel-Layer"/>
  <path class="fil0" d="M14329.93 14037.73c448.9,0 812.8,363.9 812.8,812.8 0,448.9 -363.9,812.8 -812.8,812.8 -448.9,0 -812.8,-363.9 -812.8,-812.8 0,-448.9 363.9,-812.8 812.8,-812.8z"/>
  <path class="fil1" d="M14284.18 14480.84c12.53,-10.65 22.83,-24.26 45.36,-17.14 17.17,5.42 28.5,23.17 23.52,44.24 -7.87,33.26 -77.26,47.51 -68.88,-27.1zm80.33 -252.34c9.56,19.85 13.29,14.1 23.02,47.43 6.02,20.59 11.87,40.6 14.84,61.26 9.82,68.39 -10.5,75.7 -24.77,121.27 -65.7,-13.8 -100.76,-24.47 -136.04,30.81 -38.89,60.91 -9.98,104.8 15.15,145.47 -29.9,-11.88 -47.76,-30.41 -54.95,-71.04 -8.93,-50.4 8.44,-70.64 21.43,-104.1 -102.23,10.81 -307.39,98.51 -364.71,198.28 -29.7,51.7 -17.74,294.94 -14.76,362.89 3.28,74.71 -3.83,85.45 66.5,100.4 124.19,26.39 785.1,178.52 815.5,171.21 22.19,-49.48 -19.65,-46.38 -60.65,-55.43 -248.27,-54.81 -531.46,-120.52 -772.34,-168.25 -7.9,-33.86 -28.46,-105.05 21.03,-102.52 3.81,0.19 22.18,4.5 26.57,5.5l102.54 22.79c3.56,0.83 24,6.05 26.67,6.34 7.48,0.84 6.18,1.34 13.41,-0.03 19.68,-3.72 19.72,-19.07 18.25,-58.46 -0.9,-24.05 -1.06,-39.87 -12.18,-56.12 -44.18,-14.03 -163.76,-28.45 -194.78,-46.52 -9.96,-18.35 -14.03,-45.81 -10.93,-70.31 4.96,-39.2 17.4,-31.2 48.26,-25.53 9.67,20.08 1.07,24.36 22.13,36.48 24.78,14.25 46.69,4.23 51.8,23.83 7.12,27.28 -1,57.58 50.53,45.66 12.91,-26.33 0.36,-43.72 22.17,-63.61 53.22,5.89 38.87,106.51 38.83,156.24 -0.04,60.66 -21.95,161.7 52.78,145.03 13.2,-19.99 7.15,-34.97 11.88,-62.32 75.6,13.34 498.97,116.37 532.79,110.16 13.34,-22.47 14.43,-58.82 8.22,-86.09 -4.12,-18.1 -3.54,-15.93 -13.65,-24.73 -33.77,-24.97 -443.02,-87.95 -527.16,-119.91 -8.32,-46.85 -4.8,-62.03 18.79,-91.54 53.39,-8.28 80.91,-1.52 85.83,49.09 1.96,20.15 1.81,38.36 25.65,41.79 26.31,3.78 27.4,-18.62 31.79,-37.25 13.46,-0.99 25.29,1.37 36.61,-0.57 20.85,-3.58 9.5,-3.04 27.57,-17.39l104.25 32.35c0.58,0.97 1.46,2.54 2.07,3.64 7.57,13.51 7.23,28 43.74,37.46 60.9,15.79 47.15,-3.27 71.69,-20.7 32.53,24.88 -0.19,64.54 24.65,87.3 42.16,38.62 37.82,-37.57 37.82,-62.54 3.6,-16.08 14.07,-8.86 35.14,-15.5 14.08,-52.96 -20.26,-60.6 -47.41,-88.84l-74.54 -76.83c-52.11,-49.87 -104.34,-96.53 -154.14,-147.57 -12.54,6.59 -15.93,12.23 -31.66,21.27 10.41,-23.38 28.69,-42.71 20.93,-81.26 -6.81,-33.87 -31.12,-48.35 -41.11,-65.61 30.59,-59.12 33.94,-236.38 -13.06,-274.77 -12.25,8.17 -15.03,13.21 -21.99,31.39z"/>
 </g>
</svg>
