<?xml version="1.0" encoding="UTF-8"?>
<!DOCTYPE svg PUBLIC "-//W3C//DTD SVG 1.1//EN" "http://www.w3.org/Graphics/SVG/1.1/DTD/svg11.dtd">
<!-- Creator: CorelDRAW 2019 (64 Bit) -->
<svg xmlns="http://www.w3.org/2000/svg" xml:space="preserve" width="210mm" height="297mm" version="1.1" style="shape-rendering:geometricPrecision; text-rendering:geometricPrecision; image-rendering:optimizeQuality; fill-rule:evenodd; clip-rule:evenodd"
viewBox="0 0 21000 29700"
 xmlns:xlink="http://www.w3.org/1999/xlink">
 <defs>
  <style type="text/css">
   <![CDATA[
    .fil1 {fill:black}
    .fil0 {fill:#D6A828}
   ]]>
  </style>
 </defs>
 <g id="Camada_x0020_1">
  <metadata id="CorelCorpID_0Corel-Layer"/>
  <path class="fil0" d="M14329.93 14037.73c448.9,0 812.8,363.9 812.8,812.8 0,448.9 -363.9,812.8 -812.8,812.8 -448.9,0 -812.8,-363.9 -812.8,-812.8 0,-448.9 363.9,-812.8 812.8,-812.8z"/>
  <g id="_710745664">
   <path class="fil1" d="M14278.29 14904.24l46.15 214.7c14.95,-20.54 40.42,-85.71 52.87,-114.26 16.54,-37.94 33.29,-78.77 50.76,-116.93 12.41,-27.17 101.02,-221.76 97.43,-233.77l-463.28 200.62 216.07 49.64z"/>
   <path class="fil1" d="M14260.38 14362.71l69.55 -120.44 72.09 128.27c78.74,10.89 153.89,40.2 214.51,88.55l-49.01 57.18c-98.59,-61.51 -189.84,-82.24 -274.15,-74.69 -91.14,8.16 -164.49,42.31 -257.33,121.39l-56.13 -48.74c68.39,-79.4 169.16,-127.6 275.59,-143.07l4.88 -8.45z"/>
   <path class="fil1" d="M14325.55 15452.44l-68.49 -118.64c-77.87,-10.35 -152.32,-39.56 -213.33,-89.32l46.9 -57.79c102.7,61.28 186.46,82.37 274.48,74.9 84.51,-7.17 170.47,-43.57 256.97,-121.06l58.23 47.7c-71.37,78.19 -172.92,127.53 -279.44,143.86l2.62 0 -72.72 129.38 -5.22 -9.03z"/>
   <path class="fil1" d="M13840.26 14920.91l-120.43 -69.54 128.03 -71.96c10.33,-81.26 40.02,-157.48 90.43,-214.27l56.2 48.16c-117.12,174.3 -98.55,379.32 46.85,531.45l-47.43 56.85c-79.69,-63.62 -128.98,-168.12 -144.7,-278.58l0 3.06 -8.95 -5.17z"/>
   <path class="fil1" d="M14618.09 14558.1c74.35,87.47 109.23,144.55 119.25,257.78 10.02,113.42 -14.98,175.75 -72.09,273.88l56.31 48.35c49.71,-58.41 78.59,-133.86 88.93,-213.36l119.5 -69 9.04 -5.22 -129.39 -72.73 0 3.08c-15.53,-112.36 -65.31,-217.43 -143.03,-278.9l-48.52 56.12z"/>
  </g>
 </g>
</svg>
