<?xml version="1.0" encoding="UTF-8"?>
<!DOCTYPE svg PUBLIC "-//W3C//DTD SVG 1.1//EN" "http://www.w3.org/Graphics/SVG/1.1/DTD/svg11.dtd">
<!-- Creator: CorelDRAW 2019 (64 Bit) -->
<svg xmlns="http://www.w3.org/2000/svg" xml:space="preserve" width="210mm" height="297mm" version="1.1" style="shape-rendering:geometricPrecision; text-rendering:geometricPrecision; image-rendering:optimizeQuality; fill-rule:evenodd; clip-rule:evenodd"
viewBox="0 0 21000 29700"
 xmlns:xlink="http://www.w3.org/1999/xlink">
 <defs>
  <style type="text/css">
   <![CDATA[
    .fil1 {fill:black}
    .fil0 {fill:#D6A828}
   ]]>
  </style>
 </defs>
 <g id="Camada_x0020_1">
  <metadata id="CorelCorpID_0Corel-Layer"/>
  <path class="fil0" d="M13648.82 14037.73c448.9,0 812.8,363.9 812.8,812.8 0,448.9 -363.9,812.8 -812.8,812.8 -448.9,0 -812.8,-363.9 -812.8,-812.8 0,-448.9 363.9,-812.8 812.8,-812.8z"/>
  <path class="fil1" d="M13588.73 15396.86l57.78 57.89c16.67,-11.4 378.45,-376.87 411.1,-409.52 43.09,-43.08 98.28,-91.38 129.6,-143.44 68.17,-113.27 61.6,-250.85 -21.03,-360.41 -6.67,-8.84 -9.47,-10.67 -15.93,-19 -18.14,-23.44 -70.21,-61.07 -97.61,-73.84 -78.24,-36.43 -151.76,-38.15 -230.14,-16.24 -22.86,6.39 -77.88,30.19 -89.53,46.76 -23.96,7.26 -62.61,61.16 -85.81,76.43 -17.89,-27.44 -73.86,-73.29 -104.83,-91.93 -119.68,-72.02 -277.54,-54.2 -370.58,32.36 -18.72,17.42 -32.38,33.25 -48.38,52.21 -26.48,47.72 -38.23,51.37 -54.71,124.1 -12.27,54.16 -5.6,113.56 8.38,161.37 26.41,90.3 96.36,144.98 155.07,203.7l87.32 90.48c30.93,30.94 59.55,59.55 90.48,90.49 59.12,59.11 118.54,122.71 178.82,178.59z"/>
 </g>
</svg>
