<?xml version="1.0" encoding="UTF-8"?>
<!DOCTYPE svg PUBLIC "-//W3C//DTD SVG 1.1//EN" "http://www.w3.org/Graphics/SVG/1.1/DTD/svg11.dtd">
<!-- Creator: CorelDRAW 2019 (64 Bit) -->
<svg xmlns="http://www.w3.org/2000/svg" xml:space="preserve" width="210mm" height="297mm" version="1.1" style="shape-rendering:geometricPrecision; text-rendering:geometricPrecision; image-rendering:optimizeQuality; fill-rule:evenodd; clip-rule:evenodd"
viewBox="0 0 21000 29700"
 xmlns:xlink="http://www.w3.org/1999/xlink"
 enable-background="new 0 0 24 24">
 <defs>
  <style type="text/css">
   <![CDATA[
    .fil1 {fill:black}
    .fil0 {fill:#D6A828}
   ]]>
  </style>
 </defs>
 <g id="Camada_x0020_1">
  <metadata id="CorelCorpID_0Corel-Layer"/>
  <path class="fil0" d="M13648.82 14037.73c448.9,0 812.8,363.9 812.8,812.8 0,448.9 -363.9,812.8 -812.8,812.8 -448.9,0 -812.8,-363.9 -812.8,-812.8 0,-448.9 363.9,-812.8 812.8,-812.8z"/>
  <path class="fil1" d="M13167.52 14560.19c125.52,160.96 357.32,459.25 357.32,459.25l0 372.86c0,34.17 27.97,62.15 62.14,62.15l124.3 0c34.17,0 62.15,-27.98 62.15,-62.15l0 -372.86c0,0 231.18,-298.29 356.7,-459.25 31.68,-41.01 2.49,-100.06 -49.09,-100.06l-864.43 0c-51.58,0 -80.79,59.05 -49.09,100.06z"/>
 </g>
</svg>
