<?xml version="1.0" encoding="UTF-8"?>
<!DOCTYPE svg PUBLIC "-//W3C//DTD SVG 1.1//EN" "http://www.w3.org/Graphics/SVG/1.1/DTD/svg11.dtd">
<!-- Creator: CorelDRAW 2019 (64 Bit) -->
<svg xmlns="http://www.w3.org/2000/svg" xml:space="preserve" width="210mm" height="297mm" version="1.1" style="shape-rendering:geometricPrecision; text-rendering:geometricPrecision; image-rendering:optimizeQuality; fill-rule:evenodd; clip-rule:evenodd"
viewBox="0 0 21000 29700"
 xmlns:xlink="http://www.w3.org/1999/xlink">
 <defs>
  <style type="text/css">
   <![CDATA[
    .fil1 {fill:black}
    .fil0 {fill:#D6A828}
   ]]>
  </style>
 </defs>
 <g id="Camada_x0020_1">
  <metadata id="CorelCorpID_0Corel-Layer"/>
  <path class="fil0" d="M13648.82 14037.73c448.9,0 812.8,363.9 812.8,812.8 0,448.9 -363.9,812.8 -812.8,812.8 -448.9,0 -812.8,-363.9 -812.8,-812.8 0,-448.9 363.9,-812.8 812.8,-812.8z"/>
  <path class="fil1" d="M13929.88 14587.47l-70.06 -70.06 -314.99 314.99 70.06 70.06 314.99 -314.99zm210.64 -70.06l-525.63 525.64 -207.66 -207.17 -70.06 70.06 277.72 277.71 596.18 -596.18 -70.55 -70.06zm-1084.54 388.53l277.71 277.71 70.06 -70.06 -277.23 -277.71 -70.54 70.06z"/>
 </g>
</svg>
