<?xml version="1.0" encoding="UTF-8"?>
<!DOCTYPE svg PUBLIC "-//W3C//DTD SVG 1.1//EN" "http://www.w3.org/Graphics/SVG/1.1/DTD/svg11.dtd">
<!-- Creator: CorelDRAW 2019 (64 Bit) -->
<svg xmlns="http://www.w3.org/2000/svg" xml:space="preserve" width="210mm" height="297mm" version="1.1" style="shape-rendering:geometricPrecision; text-rendering:geometricPrecision; image-rendering:optimizeQuality; fill-rule:evenodd; clip-rule:evenodd"
viewBox="0 0 21000 29700"
 xmlns:xlink="http://www.w3.org/1999/xlink">
 <defs>
  <style type="text/css">
   <![CDATA[
    .fil1 {fill:black}
    .fil0 {fill:#D6A828}
   ]]>
  </style>
 </defs>
 <g id="Camada_x0020_1">
  <metadata id="CorelCorpID_0Corel-Layer"/>
  <path class="fil0" d="M14329.93 14037.73c448.9,0 812.8,363.9 812.8,812.8 0,448.9 -363.9,812.8 -812.8,812.8 -448.9,0 -812.8,-363.9 -812.8,-812.8 0,-448.9 363.9,-812.8 812.8,-812.8z"/>
  <path class="fil1" d="M14328.64 15468.22l2.59 0 -2.59 0zm-29.8 -682.38c-116.01,-411.89 -260.59,-76.3 -395.67,-383.6 -24,25.36 -30.37,58.39 -12.37,123.78 26.63,96.78 111.93,87.69 185.72,117.21 91.36,36.55 89.36,127.7 96.97,212.11 -92.01,43.74 -211.75,64.93 -301.4,113.2 16.16,32.86 63.67,64.27 84.06,72.26 58.07,22.77 141.43,-9.93 181.18,-54.44 2.94,27.65 4.24,48.75 11.09,76.12 28.69,54.05 24.41,70.25 61.54,120.48 12.61,35.43 7.35,38.45 16.05,66.4 1.69,5.44 29.16,133.19 45.14,154.9 6.14,6.79 57.12,64.61 57.49,63.96l2.59 0c0.37,0.65 51.35,-57.17 57.49,-63.96 15.98,-21.71 43.45,-149.46 45.14,-154.9 8.7,-27.95 3.44,-30.97 16.06,-66.4 37.13,-50.23 32.84,-66.43 61.53,-120.48 6.85,-27.37 8.15,-48.47 11.09,-76.12 39.76,44.51 123.11,77.21 181.18,54.44 20.4,-7.99 67.9,-39.4 84.06,-72.26 -89.65,-48.27 -209.39,-69.46 -301.4,-113.2 7.61,-84.41 5.62,-175.56 96.97,-212.11 73.79,-29.52 159.09,-20.43 185.72,-117.21 18,-65.39 11.63,-98.42 -12.37,-123.78 -135.08,307.3 -279.66,-28.29 -395.67,383.6 -20.55,72.97 -41.64,72.97 -62.19,0z"/>
 </g>
</svg>
