<?xml version="1.0" encoding="UTF-8"?>
<!DOCTYPE svg PUBLIC "-//W3C//DTD SVG 1.1//EN" "http://www.w3.org/Graphics/SVG/1.1/DTD/svg11.dtd">
<!-- Creator: CorelDRAW 2019 (64 Bit) -->
<svg xmlns="http://www.w3.org/2000/svg" xml:space="preserve" width="210mm" height="297mm" version="1.1" style="shape-rendering:geometricPrecision; text-rendering:geometricPrecision; image-rendering:optimizeQuality; fill-rule:evenodd; clip-rule:evenodd"
viewBox="0 0 21000 29700"
 xmlns:xlink="http://www.w3.org/1999/xlink">
 <defs>
  <style type="text/css">
   <![CDATA[
    .fil0 {fill:#D6A828}
    .fil1 {fill:black}
   ]]>
  </style>
 </defs>
 <g id="Camada_x0020_1">
  <metadata id="CorelCorpID_0Corel-Layer"/>
  <path class="fil0" d="M14329.93 14037.73c448.9,0 812.8,363.9 812.8,812.8 0,448.9 -363.9,812.8 -812.8,812.8 -448.9,0 -812.8,-363.9 -812.8,-812.8 0,-448.9 363.9,-812.8 812.8,-812.8z"/>
  <g id="_833816176">
   <path class="fil1" d="M14437.07 15204.7c-8.69,-22.52 20.04,-50.36 32.58,-69.61 83.06,-127.55 154.24,-305.19 190.52,-454.54 8.51,-35.02 6.14,-63.67 47.01,-49.12 13.36,45.36 -76.13,279.21 -97.61,328.68 -40.88,94.13 -66.09,135.42 -116.27,213.83 -22.69,35.46 -32.21,50.97 -56.23,30.76zm7.52 -611.81c14.51,68.25 -99.5,345.44 -143.42,429.74 -20.59,39.52 -56.06,122.85 -84.47,93.21 -14.74,-15.37 10.26,-44.87 19.92,-61.29 48.6,-82.6 117.28,-248.37 142.29,-340.25 7.28,-26.75 14.85,-48.55 20.82,-75.96 8.41,-38.63 2.11,-55.67 44.86,-45.45zm-472.94 463c-12.22,-25 5.22,-41.64 18.26,-65.28 12.22,-22.15 22.27,-41.83 33.59,-63.1 40.79,-76.69 84.23,-193.17 109.06,-277.04 21.1,-71.25 23.74,-142 57.49,-123 24.45,13.76 -14.14,125.82 -22.77,152.76 -15.62,48.75 -31.22,95.02 -50.33,142.91 -16.78,42.06 -40.5,94.79 -60.75,132.23 -11.93,22.06 -20.87,40.75 -33.87,62.6 -14.3,24.06 -16.81,46.92 -50.68,37.92zm822.96 -374.43c5.96,-38.87 8.83,-69.41 -10.43,-97.58 -80.28,-117.5 -183.16,4.83 -251.93,-7.49 -69.87,-12.51 -78.84,-73.95 -144.49,-89.06 -65.11,-14.98 -77.39,41.92 -182.77,-5.07 -34.35,-15.31 -117.72,-73.81 -171.52,-17.1 -20.39,21.49 -24.97,149.15 -38.67,195.13 -33.61,112.86 -104.46,206.44 -148.69,313.59 -32.98,79.91 12.32,108.56 88.48,119.62 29.56,4.3 84.59,-3.43 102.39,3.89 27.38,11.26 31.4,49.48 50.68,66.2 58.51,50.73 134.51,4.79 192.29,10.89 80.47,8.5 49.64,81.04 152.76,77.85 129.41,-4.01 191.98,-130.91 236.61,-232.72 41.45,-94.57 109.04,-231.99 125.29,-338.15z"/>
   <path class="fil1" d="M14336.56 14444.47c72.69,-4.15 85.72,7.79 130.39,38.01 16.49,-65.8 45.29,-155.71 -27.62,-173.46 -86.7,-21.1 -91.08,68.58 -102.77,135.45z"/>
   <path class="fil1" d="M14306.04 15229.88c-14.85,12.64 -46.68,55.92 -55.07,77.68 -28.55,74.07 70.61,134.21 122.78,61.75 10.81,-15.02 44.29,-60.24 46.38,-75.53 -69.06,-1.29 -86.04,-26.23 -114.09,-63.9z"/>
   <path class="fil1" d="M14064.94 14404.22c82.52,-10.94 73.19,7.31 132.37,26.74 11.54,-52.05 38.63,-138.8 -35.06,-154.83 -78.72,-17.12 -91.71,63.58 -97.31,128.09z"/>
   <path class="fil1" d="M14648.8 14495.2c92.91,-9.12 65.8,-1.66 134.81,25.81 3.63,-26.79 49.08,-128.79 -38.42,-147.35 -69.77,-14.8 -86.43,64.17 -96.39,121.54z"/>
   <path class="fil1" d="M14045.26 15181.62c-100.02,112.91 25.03,192.85 84.92,116.8 16.94,-21.51 33.55,-44.75 43.61,-68.99 -85.54,-2.62 -92.16,-24.05 -128.53,-47.81z"/>
   <path class="fil1" d="M13807.78 15076.51c-33.67,40.91 -51.39,102.65 10.22,128.25 61.35,25.5 95.03,-32.48 111.24,-70.57 -30.85,-4.3 -44.68,-8.26 -70.21,-21.25 -35.8,-18.21 -30.4,-23.26 -51.25,-36.43z"/>
  </g>
 </g>
</svg>
