<?xml version="1.0" encoding="UTF-8"?>
<!DOCTYPE svg PUBLIC "-//W3C//DTD SVG 1.1//EN" "http://www.w3.org/Graphics/SVG/1.1/DTD/svg11.dtd">
<!-- Creator: CorelDRAW 2019 (64 Bit) -->
<svg xmlns="http://www.w3.org/2000/svg" xml:space="preserve" width="210mm" height="297mm" version="1.1" style="shape-rendering:geometricPrecision; text-rendering:geometricPrecision; image-rendering:optimizeQuality; fill-rule:evenodd; clip-rule:evenodd"
viewBox="0 0 21000 29700"
 xmlns:xlink="http://www.w3.org/1999/xlink">
 <defs>
  <style type="text/css">
   <![CDATA[
    .fil1 {fill:black}
    .fil0 {fill:#D6A828}
   ]]>
  </style>
 </defs>
 <g id="Camada_x0020_1">
  <metadata id="CorelCorpID_0Corel-Layer"/>
  <path class="fil0" d="M14329.93 14037.73c448.9,0 812.8,363.9 812.8,812.8 0,448.9 -363.9,812.8 -812.8,812.8 -448.9,0 -812.8,-363.9 -812.8,-812.8 0,-448.9 363.9,-812.8 812.8,-812.8z"/>
  <path class="fil1" d="M14363.11 14679.91c105.47,231.71 249.86,375.73 429.32,454.73 19.83,8.72 40.48,17.29 61.89,25.5 -25.61,42.02 -56.12,80.75 -90.73,115.35 -111.37,111.37 -265.24,180.26 -435.2,180.26 -11.45,0 -22.84,-0.33 -34.15,-0.94 -34.23,-113.58 -68.76,-254.53 -76.84,-330.02 13.17,-34.93 38.04,-30.73 36.67,-82.15 -73.94,58.69 -80.8,74.8 -189.77,107.43 14.39,44.72 34.34,111.65 8.01,154.53 -48.78,-60.04 -58.53,-58.67 -112.17,-92.62l-71.88 55.61c-75.38,-89.75 -68.6,-54.05 -56.08,-175.21 14.64,-141.86 86.2,-438.99 174.11,-518.78 33.86,-30.74 68.19,-39.94 105,-61.85 10.61,-12.75 21.61,-30.43 44.31,-38.22 154.48,-113.63 364.29,-177.24 569.39,-96.08 -27.87,14.03 -298.55,41.51 -414.07,150.28 52.83,21.78 173.81,44.35 241.61,66.73 -24.28,44.69 -66.79,76.55 -100.69,86.16 -33.04,9.35 -59.93,6.96 -88.73,-0.71z"/>
 </g>
</svg>
