<?xml version="1.0" encoding="UTF-8"?>
<!DOCTYPE svg PUBLIC "-//W3C//DTD SVG 1.1//EN" "http://www.w3.org/Graphics/SVG/1.1/DTD/svg11.dtd">
<!-- Creator: CorelDRAW 2019 (64 Bit) -->
<svg xmlns="http://www.w3.org/2000/svg" xml:space="preserve" width="210mm" height="297mm" version="1.1" style="shape-rendering:geometricPrecision; text-rendering:geometricPrecision; image-rendering:optimizeQuality; fill-rule:evenodd; clip-rule:evenodd"
viewBox="0 0 21000 29700"
 xmlns:xlink="http://www.w3.org/1999/xlink">
 <defs>
  <style type="text/css">
   <![CDATA[
    .str0 {stroke:black;stroke-width:20;stroke-miterlimit:22.9256}
    .fil1 {fill:black}
    .fil0 {fill:#D6A828}
   ]]>
  </style>
 </defs>
 <g id="Camada_x0020_1">
  <metadata id="CorelCorpID_0Corel-Layer"/>
  <path class="fil0" d="M14329.93 14037.73c448.9,0 812.8,363.9 812.8,812.8 0,448.9 -363.9,812.8 -812.8,812.8 -448.9,0 -812.8,-363.9 -812.8,-812.8 0,-448.9 363.9,-812.8 812.8,-812.8z"/>
  <g id="_834304336">
   <polygon class="fil1 str0" points="13904.25,15287.1 14216.42,15287.1 14216.42,15017.84 14426.5,15017.84 14426.5,15287.1 14738.67,15287.1 14738.67,14828.46 14321.46,14470.44 13904.25,14828.46 "/>
   <path class="fil1" d="M13793.76 14828.32c-45.32,-52.97 0,0 -45.32,-52.97l550.02 -473.14c2.12,-1.86 4.42,-3.43 6.86,-4.7 0.94,-0.49 1.9,-0.95 2.88,-1.34 3.4,-1.41 6.97,-2.24 10.55,-2.52 1.87,-0.12 3.55,-0.12 5.41,0 3.59,0.28 7.16,1.11 10.56,2.52 0.98,0.39 1.94,0.85 2.88,1.34 2.44,1.27 4.74,2.84 6.86,4.7l550.02 473.14c-45.32,52.97 0,0 -45.32,52.97l-527.7 -453.93 -527.7 453.93z"/>
   <polygon class="fil1 str0" points="14675.05,14380.19 14760.86,14380.19 14760.86,14586.84 14675.05,14513.03 "/>
  </g>
 </g>
</svg>
