<?xml version="1.0" encoding="UTF-8"?>
<!DOCTYPE svg PUBLIC "-//W3C//DTD SVG 1.1//EN" "http://www.w3.org/Graphics/SVG/1.1/DTD/svg11.dtd">
<!-- Creator: CorelDRAW 2019 (64 Bit) -->
<svg xmlns="http://www.w3.org/2000/svg" xml:space="preserve" width="210mm" height="297mm" version="1.1" style="shape-rendering:geometricPrecision; text-rendering:geometricPrecision; image-rendering:optimizeQuality; fill-rule:evenodd; clip-rule:evenodd"
viewBox="0 0 21000 29700"
 xmlns:xlink="http://www.w3.org/1999/xlink">
 <defs>
  <style type="text/css">
   <![CDATA[
    .fil1 {fill:black}
    .fil0 {fill:#D6A828}
   ]]>
  </style>
 </defs>
 <g id="Camada_x0020_1">
  <metadata id="CorelCorpID_0Corel-Layer"/>
  <path class="fil0" d="M14329.93 14037.73c448.9,0 812.8,363.9 812.8,812.8 0,448.9 -363.9,812.8 -812.8,812.8 -448.9,0 -812.8,-363.9 -812.8,-812.8 0,-448.9 363.9,-812.8 812.8,-812.8z"/>
  <g id="_709487776">
   <path class="fil1" d="M14104.85 15121.87c-6.41,-8.67 -12.59,-17.16 -18.56,-26.69 -10.03,-16.04 -26.43,-42.33 -32.07,-61.26l15.95 -5.41c4.33,16.44 22.16,44.99 31.21,59.06 6.23,9.7 12.32,17.83 18.81,26.41 19.82,26.24 38.6,45.5 64.06,66.82 16.75,14.05 34.94,20.97 54.03,34.82l-7.9 13.24c-47.82,-20.49 -82.62,-56.36 -115.38,-94.51 -3.94,-4.58 -5.72,-6.46 -10.15,-12.48zm425.97 197.58c45.49,-23.27 92.39,-57.43 126.59,-92.35 69.32,-70.83 135.02,-201.71 136.8,-298.26l-931.79 -0.17c-1.02,47.97 29.81,133.49 48.16,171.1 13.88,28.43 55.79,94.17 78.11,115.66l56.05 52.08c16.64,14.31 62.25,42.88 82.81,53.03 39.46,19.5 45,14.93 92.78,14.93l218.85 0c47.92,0 52.39,4.04 91.64,-16.02z"/>
   <path class="fil1" d="M14438.35 14649.16l10.55 10.6c4.54,3.71 6.11,4.54 11.89,8.15 118.59,74.07 255.65,-7.82 264.18,-131.9 3.26,-47.51 -17.4,-99.85 -42.03,-122.46 -9.24,6.85 -20.39,18.42 -29.78,26.96 -10.7,9.69 -21.75,18.35 -30.59,29.76 -14.5,18.7 -44.05,41.31 -62.3,58.49 -8.13,7.63 -9.99,12.91 -29.64,30.69l-92.28 89.71z"/>
   <path class="fil1" d="M14224.23 14911.91l258.97 0.15c26.72,-64.68 -26.12,-172.41 -129.54,-172.41 -102.93,0 -156.55,107.28 -129.43,172.26z"/>
   <path class="fil1" d="M14168.27 15436.07c22.66,3.85 308.66,3.21 319.62,-0.98l-0.41 -82.81 -319.04 0.45 -0.17 83.34z"/>
   <path class="fil1" d="M14054.2 14664.44c23.41,43.45 96.15,57.36 161.49,45.9 196.56,-34.44 122.73,-208.72 8.68,-107.44 -49.63,44.07 -93.06,87.05 -170.17,61.54z"/>
   <path class="fil1" d="M13997.6 14427.36c93.06,-18.9 121.61,126.03 26.44,144.19 -93.44,17.83 -124.77,-124.22 -26.44,-144.19zm-1.59 -33.73c-54.93,7.16 -99.79,57.48 -91.47,120.97 17.74,135.39 230.26,113.31 211.49,-29.95 -7.09,-54.08 -57.05,-99.24 -120.02,-91.02z"/>
   <path class="fil1" d="M14200.58 14292.04c5.13,14.85 65.17,128.02 72.57,135.3l91.49 -47.54c-2.59,-11.75 -64.94,-129.79 -71.36,-136.06 -28.45,10.74 -63.82,35.51 -92.7,48.3z"/>
   <path class="fil1" d="M13954.77 14510.79c12.74,67.89 124.34,55.22 111.03,-21.79 -4.73,-27.43 -31.35,-51.18 -66.06,-45.14 -28.31,4.92 -51.65,31.21 -44.97,66.93z"/>
   <path class="fil1" d="M13947.28 14792.3c-58.78,14.86 -34.87,100.38 22.89,84.74 20.99,-5.68 37.51,-29.38 29.81,-55.22 -5.94,-19.96 -26.55,-36.13 -52.7,-29.52z"/>
   <path class="fil1" d="M14642.73 14801.55c-24.11,10.36 -14.65,52.48 17.16,41.17 25.38,-9.03 11.69,-53.6 -17.16,-41.17z"/>
  </g>
 </g>
</svg>
