<?xml version="1.0" encoding="UTF-8"?>
<!DOCTYPE svg PUBLIC "-//W3C//DTD SVG 1.1//EN" "http://www.w3.org/Graphics/SVG/1.1/DTD/svg11.dtd">
<!-- Creator: CorelDRAW 2019 (64 Bit) -->
<svg xmlns="http://www.w3.org/2000/svg" xml:space="preserve" width="210mm" height="297mm" version="1.1" style="shape-rendering:geometricPrecision; text-rendering:geometricPrecision; image-rendering:optimizeQuality; fill-rule:evenodd; clip-rule:evenodd"
viewBox="0 0 21000 29700"
 xmlns:xlink="http://www.w3.org/1999/xlink">
 <defs>
  <style type="text/css">
   <![CDATA[
    .fil1 {fill:black}
    .fil0 {fill:#D6A828}
   ]]>
  </style>
 </defs>
 <g id="Camada_x0020_1">
  <metadata id="CorelCorpID_0Corel-Layer"/>
  <path class="fil0" d="M14329.93 16905.82c448.9,0 812.8,363.9 812.8,812.8 0,448.9 -363.9,812.8 -812.8,812.8 -448.9,0 -812.8,-363.9 -812.8,-812.8 0,-448.9 363.9,-812.8 812.8,-812.8z"/>
  <g>
   <path class="fil1" d="M14329.93 18326.59l342.05 -655.4c27.82,-53.3 43.57,-113.9 43.57,-178.18 0,-212.97 -172.65,-385.62 -385.62,-385.62 -212.97,0 -385.62,172.65 -385.62,385.62 0,64.26 15.74,124.84 43.54,178.12l0.03 0.06 342.05 655.4 0 0zm0 -1058.78c124.38,0 225.2,100.82 225.2,225.2 0,124.38 -100.82,225.2 -225.2,225.2 -124.38,0 -225.2,-100.82 -225.2,-225.2 0,-124.38 100.82,-225.2 225.2,-225.2z"/>
  </g>
 </g>
</svg>
