<?xml version="1.0" encoding="UTF-8"?>
<!DOCTYPE svg PUBLIC "-//W3C//DTD SVG 1.1//EN" "http://www.w3.org/Graphics/SVG/1.1/DTD/svg11.dtd">
<!-- Creator: CorelDRAW 2019 (64 Bit) -->
<svg xmlns="http://www.w3.org/2000/svg" xml:space="preserve" width="210mm" height="297mm" version="1.1" style="shape-rendering:geometricPrecision; text-rendering:geometricPrecision; image-rendering:optimizeQuality; fill-rule:evenodd; clip-rule:evenodd"
viewBox="0 0 21000 29700"
 xmlns:xlink="http://www.w3.org/1999/xlink">
 <defs>
  <style type="text/css">
   <![CDATA[
    .fil1 {fill:black}
    .fil0 {fill:#D6A828}
   ]]>
  </style>
 </defs>
 <g id="Camada_x0020_1">
  <metadata id="CorelCorpID_0Corel-Layer"/>
  <path class="fil0" d="M14329.93 14037.73c448.9,0 812.8,363.9 812.8,812.8 0,448.9 -363.9,812.8 -812.8,812.8 -448.9,0 -812.8,-363.9 -812.8,-812.8 0,-448.9 363.9,-812.8 812.8,-812.8z"/>
  <g id="_833761168">
   <path class="fil1" d="M14182.33 14608.97c-41.05,13.57 -30.7,43.39 -24.92,67.14l120.27 502.49c2.09,9 10.39,34.23 6.76,41.57 -6.65,13.47 -29.25,6.55 -37.65,0.22 -9.41,-7.08 -11,-24.25 -14.54,-38.47 -3.55,-14.23 -6.67,-27.68 -10.06,-41.74l-110.29 -460.75c-3.13,-13.38 -9.8,-29.88 -5.18,-43.59 4.03,-11.95 13.58,-21.88 25.92,-25.68 8.5,-2.63 40.09,-2.73 49.69,-1.19zm-58.22 838.63l-0.87 6.79 3.75 1.56c0.45,0.11 0.8,0.21 1.31,0.3 1.25,0.22 5.39,0.18 6.85,0.16l186.3 0.02c66.24,0.86 133.15,0.14 199.45,0.04 -2.58,-40.53 -70.33,-60.46 -105.69,-67.27 -25.32,-4.88 -19.2,7.39 -19.17,-59.9 19.85,-3.98 38.92,-18.13 46.97,-30.76 8.94,-14.06 12.85,-42.04 16.95,-60.58l113.76 -510.36c4.76,-21.25 9.41,-42.23 14.22,-63.43 3.89,-17.14 14.45,-50.09 9.56,-66.51 -5.3,-17.76 -21.25,-32.91 -42.32,-34.49 -23.93,-1.79 -54.1,-0.23 -78.71,-0.23 -51.72,0 -104.36,0.96 -155.97,-0.06 -23.18,-0.32 -214.54,-1.48 -232.46,0.27 -21.07,2.06 -37.37,17.57 -42.09,36.54 -3.77,15.09 6.89,46.81 10.67,62.89 4.99,21.26 9.97,41.47 14.98,62.53 10.11,42.39 20.04,83.75 30.26,126.19 6.04,25.08 99.58,424.04 105.88,438.01 12.97,28.79 39,33.46 40.26,38.61l-0.07 57.92c-26.69,4.55 -51.04,9.88 -73.45,19.5 -24.87,10.68 -39.75,20.32 -50.37,42.26z"/>
   <path class="fil1" d="M14320.58 14345.5c-32.6,5.45 -45.73,25.46 -52.55,55.59 -15.68,-6.29 -32.04,-17.71 -60.43,-4.6 -15.72,7.26 -30.87,23.67 -34.42,44.39 -38.15,1.59 -66.03,20.38 -78.57,52.04 -6.24,15.76 -3.48,22.53 -6.15,37.69 12.47,1.75 367.24,0.76 408.41,0.76 12.89,0 47.62,1.58 57.94,-0.72 1.2,-22.12 -3.78,-38.89 -13.79,-53.61 -6.85,-10.07 -23.86,-27.01 -39.2,-30.26l88.2 -194.66 -30.4 -14.47c-5.71,8.53 -40.44,88.01 -48.82,105.7l-35.77 78.46c-10.59,23.07 -6.33,19.05 -19.41,20.91 -6.97,-25.79 -31.38,-43.73 -65.03,-42.25 -2.94,-34.08 -31.93,-58.53 -70.01,-54.97z"/>
  </g>
 </g>
</svg>
