<?xml version="1.0" encoding="UTF-8"?>
<!DOCTYPE svg PUBLIC "-//W3C//DTD SVG 1.1//EN" "http://www.w3.org/Graphics/SVG/1.1/DTD/svg11.dtd">
<!-- Creator: CorelDRAW 2019 (64 Bit) -->
<svg xmlns="http://www.w3.org/2000/svg" xml:space="preserve" width="210mm" height="297mm" version="1.1" style="shape-rendering:geometricPrecision; text-rendering:geometricPrecision; image-rendering:optimizeQuality; fill-rule:evenodd; clip-rule:evenodd"
viewBox="0 0 21000 29700"
 xmlns:xlink="http://www.w3.org/1999/xlink">
 <defs>
  <style type="text/css">
   <![CDATA[
    .fil2 {fill:#020607}
    .fil1 {fill:#030708}
    .fil0 {fill:#D6A828}
   ]]>
  </style>
 </defs>
 <g id="Camada_x0020_1">
  <metadata id="CorelCorpID_0Corel-Layer"/>
  <path class="fil0" d="M14461.63 14037.73c448.9,0 812.8,363.9 812.8,812.8 0,448.9 -363.9,812.8 -812.8,812.8 -448.9,0 -812.8,-363.9 -812.8,-812.8 0,-448.9 363.9,-812.8 812.8,-812.8z"/>
  <g id="_833765520">
   <path class="fil1" d="M14269.53 15269.96l292.35 0 53.56 -558.56 -400.05 -0.27 54.14 558.83zm124.34 -214.83c0,-16.94 2.38,-26.61 7.13,-38.91 3.59,-9.31 9.17,-18.66 17.03,-28.08 5.73,-6.87 16.12,-16.86 31.02,-30.03 14.98,-13.18 24.64,-23.66 29.14,-31.51 4.5,-7.95 6.71,-16.46 6.71,-25.79 0,-16.85 -6.55,-31.67 -19.65,-44.43 -13.09,-12.78 -29.13,-19.16 -48.12,-19.16 -18.41,0 -33.72,5.81 -46,17.35 -34.66,32.59 -22.38,53.61 -46.89,51.58l-2.71 -0.33c-41.5,-5.08 0.76,-63.68 16.7,-77.76 19.72,-17.44 45.75,-26.2 78.16,-26.2 34.3,0 61.64,9.33 82.09,28.07 20.39,18.75 30.62,41.42 30.62,68.02 0,15.39 -3.6,29.55 -10.81,42.48 -7.2,13.01 -21.27,28.73 -42.23,47.31 -14.08,12.44 -23.25,21.6 -27.58,27.5 -4.34,5.89 -8.84,12.45 -9.58,20.37 -4.92,52.95 -45.03,37.08 -45.03,19.52zm16.87 55.13c13.56,0 24.55,10.99 24.55,24.55 0,13.56 -10.99,24.55 -24.55,24.55 -13.56,0 -24.55,-10.99 -24.55,-24.55 0,-13.56 10.99,-24.55 24.55,-24.55z"/>
   <path class="fil1" d="M14166.46 14635.29l498.9 1 -64.51 677.26 -370.71 -1.72 -63.68 -676.54zm485.08 707.2c1.43,-4.59 2.58,-17.5 3.06,-22.86 1.47,-16.46 2.93,-32.88 4.53,-49.37 3.05,-31.52 6.22,-64.15 9.24,-96.03 6.06,-63.96 12.35,-128.66 18.47,-192.49 5.9,-61.49 41.63,-352.83 31.22,-389.73 -33.79,-24.81 -177.59,-11.09 -231.4,-11.1 -81.21,-0.03 -162.4,-0.02 -243.6,-0.02 -133.76,0 -140.88,-28.03 -127.54,105.4l64.62 660.62c10.67,29.86 70.72,19.4 105.28,19.39 63.11,-0.02 335.56,7.96 355.21,-6.24 9.88,-8.7 6,-1.91 10.91,-17.57z"/>
   <path class="fil2" d="M14880.01 14381.72c14.47,-65.71 -57.66,-46.25 -112.68,-46.25 -38.16,0.01 -126.14,-7.55 -154.9,4.53 -14.95,10.37 -5.75,0.32 -16.12,21.9l-77.54 164.56 57.45 -0.22 69.31 -135.4c58.25,-3.64 195.5,10.22 234.48,-9.12z"/>
  </g>
 </g>
</svg>
