<?xml version="1.0" encoding="UTF-8"?>
<!DOCTYPE svg PUBLIC "-//W3C//DTD SVG 1.1//EN" "http://www.w3.org/Graphics/SVG/1.1/DTD/svg11.dtd">
<!-- Creator: CorelDRAW 2019 (64 Bit) -->
<svg xmlns="http://www.w3.org/2000/svg" xml:space="preserve" width="210mm" height="297mm" version="1.1" style="shape-rendering:geometricPrecision; text-rendering:geometricPrecision; image-rendering:optimizeQuality; fill-rule:evenodd; clip-rule:evenodd"
viewBox="0 0 21000 29700"
 xmlns:xlink="http://www.w3.org/1999/xlink">
 <defs>
  <style type="text/css">
   <![CDATA[
    .fil1 {fill:black}
    .fil0 {fill:#D6A828}
   ]]>
  </style>
 </defs>
 <g id="Camada_x0020_1">
  <metadata id="CorelCorpID_0Corel-Layer"/>
  <path class="fil0" d="M14461.62 14037.73c448.9,0 812.8,363.9 812.8,812.8 0,448.9 -363.9,812.8 -812.8,812.8 -448.9,0 -812.8,-363.9 -812.8,-812.8 0,-448.9 363.9,-812.8 812.8,-812.8z"/>
  <path class="fil1" d="M14504.12 15343.66l48.35 0.12c62.04,0.37 124.22,-0.04 186.28,-0.04 21.22,0 72.77,2.52 89.9,-3.42 17.36,-6.03 30.17,-17.35 38.67,-32.81 2.48,-4.53 6.13,-11.42 4.85,-16.43l-326.58 0.07 -48.6 0.12c-54.36,-1.99 -112.33,-0.15 -167.06,-0.15 -55.78,0 -111.64,-0.03 -167.12,0 -29.88,0.02 -44.39,-9.24 -57.89,-24.51 -28.13,-31.87 -19.21,-90.19 25.63,-108.97 19.73,-8.27 55.88,-5.39 78.5,-5.2 165.05,1.44 333.2,-0.13 498.88,0 27.65,0.03 55.31,0 82.95,0 26.65,0 58.57,-1.58 84.45,0.02l-0.73 -191.39c0.03,-63.86 0.45,-127.97 0.44,-191.96 -0.01,-63.64 0,-127.3 0,-190.79l0 -143.38c0.17,-18.55 -0.38,-25.7 -7.58,-41 -8.6,-18.29 -29.4,-35.61 -58.78,-36.65 -31.18,-1.1 -64.54,-0.02 -96,-0.02l-575.91 -0.01c-37.14,0.01 -52.97,2.28 -72.12,23.45 -20.08,22.19 -16.47,45.89 -16.47,79.12l-0.01 812.94c-0.05,16.2 2.99,26.24 9.75,38.35 1.6,2.84 2.99,4.72 4.84,7.14l1.04 1.34c10.71,12.59 26.51,24.2 57.56,24.18l287.95 -0.04c31.08,0 63.98,1.03 94.81,-0.08zm-65.59 -437.16l22.53 22.56c6.5,-4.44 147.48,-146.88 160.2,-159.6 16.79,-16.8 38.29,-35.61 50.51,-55.9 26.57,-44.14 24.01,-97.76 -8.21,-140.45 -2.58,-3.44 -3.68,-4.15 -6.2,-7.4 -7.07,-9.13 -27.36,-23.81 -38.04,-28.77 -30.48,-14.21 -59.14,-14.87 -89.68,-6.35 -8.92,2.5 -30.36,11.77 -34.89,18.23 -9.34,2.83 -24.4,23.84 -33.44,29.8 -6.98,-10.71 -28.78,-28.57 -40.86,-35.84 -46.63,-28.05 -108.14,-21.12 -144.4,12.62 -7.31,6.78 -12.62,12.97 -18.86,20.34 -10.33,18.6 -14.9,20.02 -21.31,48.37 -4.79,21.1 -2.2,44.26 3.26,62.89 10.27,35.18 37.55,56.48 60.43,79.35l34.01 35.29c12.05,12.05 23.2,23.2 35.27,35.24 23.04,23.06 46.2,47.84 69.68,69.62z"/>
 </g>
</svg>
