<?xml version="1.0" encoding="UTF-8"?>
<!DOCTYPE svg PUBLIC "-//W3C//DTD SVG 1.1//EN" "http://www.w3.org/Graphics/SVG/1.1/DTD/svg11.dtd">
<!-- Creator: CorelDRAW 2019 (64 Bit) -->
<svg xmlns="http://www.w3.org/2000/svg" xml:space="preserve" width="210mm" height="297mm" version="1.1" style="shape-rendering:geometricPrecision; text-rendering:geometricPrecision; image-rendering:optimizeQuality; fill-rule:evenodd; clip-rule:evenodd"
viewBox="0 0 21000 29700"
 xmlns:xlink="http://www.w3.org/1999/xlink">
 <defs>
  <style type="text/css">
   <![CDATA[
    .fil1 {fill:black}
    .fil0 {fill:#D6A828}
    .fil2 {fill:black;fill-rule:nonzero}
   ]]>
  </style>
 </defs>
 <g id="Camada_x0020_1">
  <metadata id="CorelCorpID_0Corel-Layer"/>
  <path class="fil0" d="M14461.62 14037.73c448.9,0 812.8,363.9 812.8,812.8 0,448.9 -363.9,812.8 -812.8,812.8 -448.9,0 -812.8,-363.9 -812.8,-812.8 0,-448.9 363.9,-812.8 812.8,-812.8z"/>
  <g id="_709461824">
   <path class="fil1" d="M14088.34 14371.65l752.14 0 0 957.76 -752.14 0 0 -84.37 53.23 0c19.96,0 38.12,-8.12 51.36,-21.29l0.18 -0.16c13.19,-13.25 21.36,-31.45 21.36,-51.45 0,-20.12 -8.17,-38.36 -21.36,-51.55l-0.06 0.06c-13.24,-13.24 -31.46,-21.43 -51.48,-21.43l-53.23 0 0 -70.47 53.23 0c19.96,0 38.12,-8.13 51.36,-21.3l0.18 -0.17c13.19,-13.24 21.36,-31.44 21.36,-51.43 0,-20.05 -8.18,-38.25 -21.36,-51.44 -13.25,-13.26 -31.48,-21.48 -51.54,-21.48l-53.23 0 0 -70.47 53.23 0c20.12,0 38.36,-8.17 51.54,-21.36 13.19,-13.2 21.36,-31.43 21.36,-51.56 0,-20.12 -8.17,-38.36 -21.36,-51.54l-0.06 0.06c-13.24,-13.24 -31.47,-21.42 -51.48,-21.42l-53.23 0 0 -70.48 53.23 0c20.12,0 38.36,-8.17 51.54,-21.36 13.19,-13.2 21.36,-31.44 21.36,-51.55 0,-20.14 -8.17,-38.36 -21.36,-51.55l-0.06 0.06c-13.24,-13.24 -31.47,-21.42 -51.48,-21.42l-53.23 0 0 -78.69zm334.63 305.17c-35.34,-7.25 -54.91,-7.41 -83.78,10.51 -44.75,27.8 -57.48,89.39 -22.29,137.08 13.91,18.83 32.53,27.74 63.36,35.51l0.21 163.91 247.68 -0.01 0.1 -161.33c4.19,-2.33 106.63,-20.12 88.1,-114.6 -5.61,-28.66 -24.21,-49.18 -41.67,-61.14 -26,-17.8 -53.3,-15.28 -85.89,-8.69 -62.99,-86.73 -144.91,-45.2 -165.82,-1.24zm-334.63 -110.13l0 -86.89 53.23 0c23.99,0 43.43,19.45 43.43,43.45 0,23.99 -19.44,43.44 -43.43,43.44l-53.23 0zm0 216.31l0 -86.9 53.23 0c23.99,0 43.43,19.44 43.43,43.44 0,23.99 -19.44,43.46 -43.43,43.46l-53.23 0zm0 216.29l0 -86.9 53.23 0c23.99,0 43.43,19.47 43.43,43.46 0,23.99 -19.44,43.44 -43.43,43.44l-53.23 0zm0 216.3l0 -86.91 53.23 0c23.99,0 43.43,19.46 43.43,43.46 0,23.99 -19.44,43.45 -43.43,43.45l-53.23 0z"/>
   <path class="fil2" d="M14024.47 14566.7c-24,0 -43.45,-19.45 -43.45,-43.45 0,-24 19.45,-43.45 43.45,-43.45l117.09 0c23.99,0 43.45,19.45 43.45,43.45 0,24 -19.46,43.45 -43.45,43.45l-117.09 0z"/>
   <path class="fil2" d="M14024.47 14783c-24,0 -43.45,-19.46 -43.45,-43.45 0,-24 19.45,-43.45 43.45,-43.45l117.09 0c23.99,0 43.45,19.45 43.45,43.45 0,23.99 -19.46,43.45 -43.45,43.45l-117.09 0z"/>
   <path class="fil2" d="M14024.47 14999.29c-24,0 -43.45,-19.45 -43.45,-43.45 0,-23.99 19.45,-43.45 43.45,-43.45l117.09 0c23.99,0 43.45,19.46 43.45,43.45 0,24 -19.46,43.45 -43.45,43.45l-117.09 0z"/>
   <path class="fil2" d="M14024.47 15215.59c-24,0 -43.45,-19.46 -43.45,-43.45 0,-24 19.45,-43.45 43.45,-43.45l117.09 0c23.99,0 43.45,19.45 43.45,43.45 0,23.99 -19.46,43.45 -43.45,43.45l-117.09 0z"/>
  </g>
 </g>
</svg>
