<?xml version="1.0" encoding="UTF-8"?>
<!DOCTYPE svg PUBLIC "-//W3C//DTD SVG 1.1//EN" "http://www.w3.org/Graphics/SVG/1.1/DTD/svg11.dtd">
<!-- Creator: CorelDRAW 2019 (64 Bit) -->
<svg xmlns="http://www.w3.org/2000/svg" xml:space="preserve" width="210mm" height="297mm" version="1.1" style="shape-rendering:geometricPrecision; text-rendering:geometricPrecision; image-rendering:optimizeQuality; fill-rule:evenodd; clip-rule:evenodd"
viewBox="0 0 21000 29700"
 xmlns:xlink="http://www.w3.org/1999/xlink">
 <defs>
  <style type="text/css">
   <![CDATA[
    .fil1 {fill:black}
    .fil0 {fill:#D6A828}
   ]]>
  </style>
 </defs>
 <g id="Camada_x0020_1">
  <metadata id="CorelCorpID_0Corel-Layer"/>
  <path class="fil0" d="M14461.62 14037.73c448.9,0 812.8,363.9 812.8,812.8 0,448.9 -363.9,812.8 -812.8,812.8 -448.9,0 -812.8,-363.9 -812.8,-812.8 0,-448.9 363.9,-812.8 812.8,-812.8z"/>
  <path class="fil1" d="M14501.64 15314.84l45.52 0.1c58.41,0.36 116.96,-0.03 175.39,-0.03 19.97,0 68.51,2.37 84.64,-3.22 16.35,-5.68 28.41,-16.34 36.41,-30.89 2.34,-4.27 5.77,-10.75 4.57,-15.47l-307.49 0.06 -45.75 0.12c-51.2,-1.87 -105.78,-0.14 -157.31,-0.14 -52.51,0 -105.11,-0.03 -157.34,0 -28.13,0.02 -41.8,-8.7 -54.51,-23.08 -26.49,-30.01 -18.09,-84.91 24.13,-102.6 18.57,-7.79 52.61,-5.08 73.91,-4.89 155.4,1.35 313.73,-0.13 469.72,0 26.04,0.01 52.07,0 78.1,0 25.09,0 55.15,-1.5 79.51,0.01l-0.68 -180.2c0.03,-60.13 0.42,-120.5 0.41,-180.74 -0.01,-59.92 0,-119.86 0,-179.64l0 -135c0.16,-17.46 -0.36,-24.2 -7.13,-38.6 -8.1,-17.22 -27.69,-33.52 -55.35,-34.51 -29.36,-1.04 -60.76,-0.02 -90.39,-0.02l-542.25 0c-34.97,0 -49.87,2.14 -67.9,22.08 -18.9,20.89 -15.51,43.2 -15.51,74.48l-0.01 765.43c-0.04,15.25 2.82,24.7 9.19,36.11 1.5,2.67 2.81,4.44 4.55,6.72l0.99 1.26c10.08,11.85 24.96,22.79 54.18,22.76l271.13 -0.03c29.25,0 60.23,0.98 89.27,-0.07zm-108.16 -725.93c-35.76,-7.35 -55.57,-7.51 -84.79,10.64 -45.31,28.13 -58.19,90.47 -22.56,138.74 14.07,19.08 32.91,28.08 64.13,35.95l0.21 165.92 250.71 -0.02 0.1 -163.3c4.24,-2.36 107.94,-20.36 89.18,-116 -5.69,-29.01 -24.5,-49.78 -42.17,-61.88 -26.33,-18.02 -53.97,-15.47 -86.95,-8.81 -63.76,-87.78 -146.69,-45.74 -167.86,-1.24z"/>
 </g>
</svg>
