<?xml version="1.0" encoding="UTF-8"?>
<!DOCTYPE svg PUBLIC "-//W3C//DTD SVG 1.1//EN" "http://www.w3.org/Graphics/SVG/1.1/DTD/svg11.dtd">
<!-- Creator: CorelDRAW 2019 (64 Bit) -->
<svg xmlns="http://www.w3.org/2000/svg" xml:space="preserve" width="210mm" height="297mm" version="1.1" style="shape-rendering:geometricPrecision; text-rendering:geometricPrecision; image-rendering:optimizeQuality; fill-rule:evenodd; clip-rule:evenodd"
viewBox="0 0 21000 29700"
 xmlns:xlink="http://www.w3.org/1999/xlink">
 <defs>
  <style type="text/css">
   <![CDATA[
    .fil1 {fill:black}
    .fil0 {fill:#D6A828}
    .fil2 {fill:black;fill-rule:nonzero}
   ]]>
  </style>
 </defs>
 <g id="Camada_x0020_1">
  <metadata id="CorelCorpID_0Corel-Layer"/>
  <path class="fil0" d="M14461.62 14037.73c448.9,0 812.8,363.9 812.8,812.8 0,448.9 -363.9,812.8 -812.8,812.8 -448.9,0 -812.8,-363.9 -812.8,-812.8 0,-448.9 363.9,-812.8 812.8,-812.8z"/>
  <g id="_831971456">
   <path class="fil1" d="M14076.91 14380.58l738.12 0 0 939.9 -738.12 0 0 -82.8 52.24 0c19.59,0 37.41,-7.96 50.4,-20.89l0.18 -0.16c12.95,-13.01 20.96,-30.87 20.96,-50.49 0,-19.75 -8.01,-37.64 -20.96,-50.59l-0.05 0.06c-13.01,-13 -30.88,-21.03 -50.53,-21.03l-52.24 0 0 -69.15 52.24 0c19.59,0 37.41,-7.98 50.4,-20.91l0.18 -0.16c12.95,-13 20.96,-30.86 20.96,-50.47 0,-19.68 -8.02,-37.54 -20.96,-50.49 -13,-13.01 -30.89,-21.08 -50.58,-21.08l-52.24 0 0 -69.15 52.24 0c19.75,0 37.64,-8.02 50.58,-20.97 12.95,-12.94 20.96,-30.84 20.96,-50.59 0,-19.75 -8.01,-37.64 -20.96,-50.58l-0.05 0.06c-13.01,-12.99 -30.89,-21.02 -50.53,-21.02l-52.24 0 0 -69.17 52.24 0c19.75,0 37.64,-8.02 50.58,-20.96 12.95,-12.95 20.96,-30.85 20.96,-50.59 0,-19.76 -8.01,-37.64 -20.96,-50.59l-0.05 0.07c-13.01,-12.99 -30.89,-21.03 -50.53,-21.03l-52.24 0 0 -77.22zm561.34 318.6c-5.39,-6.96 -20.83,-18.13 -28.96,-21.92 -23.22,-10.81 -45.04,-11.32 -68.29,-4.82 -6.8,1.89 -23.13,8.96 -26.57,13.88 -7.11,2.15 -18.58,18.15 -25.46,22.69 -5.32,-8.16 -21.92,-21.76 -31.11,-27.29 -35.51,-21.37 -82.35,-16.08 -109.96,9.61 -5.56,5.15 -9.61,9.87 -14.36,15.49 -7.87,14.16 -11.35,15.24 -16.23,36.82 -3.65,16.07 -1.67,33.71 2.48,47.89 7.83,26.79 28.59,43.01 46.02,60.43l25.9 26.86c9.17,9.18 17.66,17.67 26.86,26.84 17.54,17.56 35.17,36.43 53.05,53.01l17.15 17.18c4.96,-3.38 112.31,-111.84 121.98,-121.53 12.79,-12.79 29.17,-27.11 38.47,-42.56 20.23,-33.61 18.29,-74.44 -6.25,-106.95 -1.96,-2.62 -2.8,-3.16 -4.72,-5.63zm-561.34 -127.19l0 -85.27 52.24 0c23.54,0 42.62,19.08 42.62,42.63 0,23.55 -19.08,42.64 -42.62,42.64l-52.24 0zm0 212.27l0 -85.28 52.24 0c23.54,0 42.62,19.08 42.62,42.63 0,23.54 -19.08,42.65 -42.62,42.65l-52.24 0zm0 212.26l0 -85.28 52.24 0c23.54,0 42.62,19.1 42.62,42.65 0,23.53 -19.08,42.63 -42.62,42.63l-52.24 0zm0 212.26l0 -85.29 52.24 0c23.54,0 42.62,19.1 42.62,42.65 0,23.55 -19.08,42.64 -42.62,42.64l-52.24 0z"/>
   <path class="fil2" d="M14014.23 14571.99c-23.55,0 -42.64,-19.09 -42.64,-42.63 0,-23.55 19.09,-42.64 42.64,-42.64l114.91 0c23.55,0 42.64,19.09 42.64,42.64 0,23.54 -19.09,42.63 -42.64,42.63l-114.91 0z"/>
   <path class="fil2" d="M14014.23 14784.26c-23.55,0 -42.64,-19.1 -42.64,-42.64 0,-23.55 19.09,-42.64 42.64,-42.64l114.91 0c23.55,0 42.64,19.09 42.64,42.64 0,23.54 -19.09,42.64 -42.64,42.64l-114.91 0z"/>
   <path class="fil2" d="M14014.23 14996.52c-23.55,0 -42.64,-19.09 -42.64,-42.64 0,-23.55 19.09,-42.64 42.64,-42.64l114.91 0c23.55,0 42.64,19.09 42.64,42.64 0,23.55 -19.09,42.64 -42.64,42.64l-114.91 0z"/>
   <path class="fil2" d="M14014.23 15208.78c-23.55,0 -42.64,-19.09 -42.64,-42.64 0,-23.55 19.09,-42.64 42.64,-42.64l114.91 0c23.55,0 42.64,19.09 42.64,42.64 0,23.55 -19.09,42.64 -42.64,42.64l-114.91 0z"/>
  </g>
 </g>
</svg>
