<?xml version="1.0" encoding="UTF-8"?>
<!DOCTYPE svg PUBLIC "-//W3C//DTD SVG 1.1//EN" "http://www.w3.org/Graphics/SVG/1.1/DTD/svg11.dtd">
<!-- Creator: CorelDRAW 2019 (64 Bit) -->
<svg xmlns="http://www.w3.org/2000/svg" xml:space="preserve" width="210mm" height="297mm" version="1.1" style="shape-rendering:geometricPrecision; text-rendering:geometricPrecision; image-rendering:optimizeQuality; fill-rule:evenodd; clip-rule:evenodd"
viewBox="0 0 21000 29700"
 xmlns:xlink="http://www.w3.org/1999/xlink">
 <defs>
  <style type="text/css">
   <![CDATA[
    .fil0 {fill:#D6A828}
    .fil2 {fill:black;fill-rule:nonzero}
    .fil1 {fill:black;fill-rule:nonzero}
   ]]>
  </style>
 </defs>
 <g id="Camada_x0020_1">
  <metadata id="CorelCorpID_0Corel-Layer"/>
  <path class="fil0" d="M14461.62 14037.73c448.9,0 812.8,363.9 812.8,812.8 0,448.9 -363.9,812.8 -812.8,812.8 -448.9,0 -812.8,-363.9 -812.8,-812.8 0,-448.9 363.9,-812.8 812.8,-812.8z"/>
  <g id="_709623200">
   <path class="fil1" d="M14539.48 15342.38l-366.64 0c-26.95,0 -51.58,-11.09 -69.55,-28.96l-0.21 -0.21c-17.87,-17.97 -28.96,-42.6 -28.96,-69.55l0 -778.54c0,-26.95 11.09,-51.58 28.96,-69.55l0.21 -0.21c17.97,-17.87 42.6,-28.96 69.55,-28.96l366.64 0 0 106.92 -358.44 0 0 762.14 358.44 0 0 106.92z"/>
   <polygon class="fil2" points="14691.98,15038.19 14875.78,14854.39 14691.98,14670.58 14767.57,14594.99 15026.97,14854.39 14767.57,15113.79 "/>
   <polygon class="fil2" points="14951.38,14907.85 14333.53,14907.85 14333.53,14800.93 14951.38,14800.93 "/>
  </g>
 </g>
</svg>
