<?xml version="1.0" encoding="UTF-8"?>
<!DOCTYPE svg PUBLIC "-//W3C//DTD SVG 1.1//EN" "http://www.w3.org/Graphics/SVG/1.1/DTD/svg11.dtd">
<!-- Creator: CorelDRAW 2019 (64 Bit) -->
<svg xmlns="http://www.w3.org/2000/svg" xml:space="preserve" width="210mm" height="297mm" version="1.1" style="shape-rendering:geometricPrecision; text-rendering:geometricPrecision; image-rendering:optimizeQuality; fill-rule:evenodd; clip-rule:evenodd"
viewBox="0 0 21000 29700"
 xmlns:xlink="http://www.w3.org/1999/xlink">
 <defs>
  <style type="text/css">
   <![CDATA[
    .fil1 {fill:black}
    .fil0 {fill:#D6A828}
   ]]>
  </style>
 </defs>
 <g id="Camada_x0020_1">
  <metadata id="CorelCorpID_0Corel-Layer"/>
  <path class="fil0" d="M14329.93 14037.73c448.9,0 812.8,363.9 812.8,812.8 0,448.9 -363.9,812.8 -812.8,812.8 -448.9,0 -812.8,-363.9 -812.8,-812.8 0,-448.9 363.9,-812.8 812.8,-812.8z"/>
  <g id="_832194992">
   <path class="fil1" d="M14160.4 14411.63c109.42,-9.79 208.02,36.78 266.93,104.87 2.83,3.27 5.7,6.9 8.81,10.73 10.01,12.32 22.86,30.8 31.09,46.97 19.36,38.05 31.66,71.81 36.53,119.6 6.95,68.15 -9.39,134.15 -42.12,190.44 -12.31,21.18 -35.46,51.07 -52.22,66.46 -52.33,48.04 -111.78,78.36 -187.01,86.12 -182.3,18.81 -327.75,-118.77 -343.78,-280.16 -18.21,-183.4 118.31,-330.41 281.77,-345.03zm234.67 659.36l238.03 238.27c3,2.37 8.44,5.9 12.68,8.51 43.21,26.56 95.47,11.2 122.78,-16.07 27.17,-27.14 42.29,-79.6 16.04,-122.76 -11.3,-18.57 -23.08,-27.31 -39.24,-43.72 -14.1,-14.31 -27.28,-27.25 -41.45,-41.48 -27.98,-28.09 -54.8,-55.11 -82.97,-82.91l-83.16 -82.54 28.89 -62.68c27.91,-72.64 32.78,-162.21 13.72,-237 -14.92,-58.52 -45.34,-122.86 -84.81,-165.62 -4.08,-4.41 -6.16,-8.63 -10.28,-12.56 -18.15,-17.27 -27.38,-27.94 -48.83,-43.87 -39.34,-29.22 -69.94,-47.02 -118.91,-63.22 -49.23,-16.29 -104.95,-23.93 -160.18,-19 -79.48,7.1 -139.07,31.87 -200.09,73.4l-50.28 42.42c-99.64,100.32 -147.31,257.8 -97.24,409.36 16.78,50.76 37.11,84.3 63.61,120.13 20.5,27.72 24.47,27.04 43.14,47.94l24.61 20.98c103.5,86.22 262.63,108.79 390.13,61.69 18.89,-6.98 61.3,-28.55 63.81,-29.27z"/>
   <path class="fil1" d="M14191.02 14526.28c52.79,-0.07 104.43,20.71 139.12,58.19 8.1,8.74 12.97,11.1 22.83,25.95 26.04,39.24 32.5,63.83 36.29,113.3l53.63 0.57c3.36,-50.64 -18.23,-103.93 -44.19,-143.32 -4.12,-6.27 -8.5,-11.59 -13.45,-17.41l-15.79 -16.78c-48.92,-49.25 -105.61,-72.61 -178.62,-74.85l0.18 54.35z"/>
  </g>
 </g>
</svg>
