<?xml version="1.0" encoding="UTF-8"?>
<!DOCTYPE svg PUBLIC "-//W3C//DTD SVG 1.1//EN" "http://www.w3.org/Graphics/SVG/1.1/DTD/svg11.dtd">
<!-- Creator: CorelDRAW 2019 (64 Bit) -->
<svg xmlns="http://www.w3.org/2000/svg" xml:space="preserve" width="210mm" height="297mm" version="1.1" style="shape-rendering:geometricPrecision; text-rendering:geometricPrecision; image-rendering:optimizeQuality; fill-rule:evenodd; clip-rule:evenodd"
viewBox="0 0 21000 29700"
 xmlns:xlink="http://www.w3.org/1999/xlink">
 <defs>
  <style type="text/css">
   <![CDATA[
    .fil1 {fill:black}
    .fil0 {fill:#D6A828}
   ]]>
  </style>
 </defs>
 <g id="Camada_x0020_1">
  <metadata id="CorelCorpID_0Corel-Layer"/>
  <path class="fil0" d="M13648.82 14037.73c448.9,0 812.8,363.9 812.8,812.8 0,448.9 -363.9,812.8 -812.8,812.8 -448.9,0 -812.8,-363.9 -812.8,-812.8 0,-448.9 363.9,-812.8 812.8,-812.8z"/>
  <path class="fil1" d="M13662.06 14503.91c-29.04,11.87 -212.04,152.31 -260.87,183.03 -16.91,10.65 -8.11,9.47 -27.47,2.52 -68.61,-24.61 -126.94,-18.15 -181.47,24.52 -118.3,92.58 -73.66,294.04 85.26,317.39 27.29,4.01 54.86,1.63 80.6,-6.56 28.33,-9.02 41.36,-22.71 64.01,-30.57 10.18,13.56 209.93,152.05 238.14,171.04 1.13,55.38 -14.49,72.98 14.39,129.82 17.25,33.99 41.78,60.24 75.83,78.86 92.18,50.43 176.34,6.36 224.32,-46.34 117.19,-128.73 -32.98,-372.24 -236.27,-263.92 -43.7,-27.64 -87.44,-59.27 -129.12,-89.39 -23.44,-16.93 -107.63,-79.81 -128.02,-88.69 2.76,-43.18 1.22,-55.99 -8.4,-95.2l248.5 -174.88c37.93,-26.35 59.43,40.03 163.87,9.82 186.84,-54.06 165.22,-327.85 -30.85,-349.98 -67.48,-7.62 -125.74,25.81 -153.81,59.25 -41.17,49.05 -48.7,92.77 -38.64,169.28z"/>
 </g>
</svg>
