<?xml version="1.0" encoding="UTF-8"?>
<!DOCTYPE svg PUBLIC "-//W3C//DTD SVG 1.1//EN" "http://www.w3.org/Graphics/SVG/1.1/DTD/svg11.dtd">
<!-- Creator: CorelDRAW 2019 (64 Bit) -->
<svg xmlns="http://www.w3.org/2000/svg" xml:space="preserve" width="210mm" height="297mm" version="1.1" style="shape-rendering:geometricPrecision; text-rendering:geometricPrecision; image-rendering:optimizeQuality; fill-rule:evenodd; clip-rule:evenodd"
viewBox="0 0 21000 29700"
 xmlns:xlink="http://www.w3.org/1999/xlink"
 enable-background="new 0 0 24 24">
 <defs>
  <style type="text/css">
   <![CDATA[
    .fil0 {fill:#D6A828}
    .fil1 {fill:black}
   ]]>
  </style>
 </defs>
 <g id="Camada_x0020_1">
  <metadata id="CorelCorpID_0Corel-Layer"/>
  <path class="fil0" d="M14329.93 14037.73c448.9,0 812.8,363.9 812.8,812.8 0,448.9 -363.9,812.8 -812.8,812.8 -448.9,0 -812.8,-363.9 -812.8,-812.8 0,-448.9 363.9,-812.8 812.8,-812.8z"/>
  <path class="fil1" d="M14318.2 14247.59c-13.72,9.41 -20.31,26.21 -31.7,45.41l-162.78 272.78c-7.4,11.93 -11.06,10.07 -26.41,13.37 -21.22,4.57 -42.34,9.51 -64.05,14.53 -86.07,19.9 -170.58,38.97 -256.07,58.18 -20.33,4.56 -49.69,9.3 -37.89,38.96l73.04 85.39c13.93,15.2 24.03,27.97 36.93,42.16 26.15,28.72 47.58,54.33 73.01,82.88 12.66,14.22 24.39,27.33 36.98,42.24 20.04,23.71 29.5,26.52 27.44,48.06 -9.21,96.81 -17.43,194.89 -26.56,291.55 -3.39,35.87 -17.34,87.17 15.54,90.06 15.78,1.4 222.74,-91.32 252.64,-104.1 16.46,-7.03 38.1,-16.62 55.36,-23.82 17.47,-7.29 40.02,-22.98 57.21,-15.67l330.96 142.04c32.08,9.27 35.22,-16.96 32.55,-43.51l-26.05 -287.2c-1.65,-17.9 -9.85,-58.19 -1.23,-70.33l220.88 -251.59c10.6,-11.82 33.92,-30.17 21.95,-51.06 -7.6,-13.27 -38.62,-16.47 -58.24,-21.07 -25.42,-5.97 -312.36,-67.56 -320.7,-74.94l-177.57 -297.15c-8.27,-14.32 -21.73,-43.31 -45.24,-27.17zm166.51 502.67c0,-36.54 -14.06,-67.68 -42.07,-93.44 -28.1,-25.74 -65.66,-38.57 -112.78,-38.57 -44.53,0 -80.27,12.04 -107.37,35.99 -21.89,19.35 -79.97,99.85 -22.95,106.83l3.73 0.45c33.67,2.78 16.79,-26.08 64.42,-70.85 16.86,-15.86 37.89,-23.84 63.19,-23.84 26.08,0 48.13,8.77 66.12,26.31 17.98,17.54 26.98,37.9 26.98,61.05 0,12.82 -3.03,24.52 -9.22,35.42 -6.18,10.79 -19.45,25.19 -40.03,43.29 -20.47,18.11 -34.74,31.82 -42.62,41.27 -10.79,12.93 -18.46,25.78 -23.39,38.57 -6.53,16.9 -9.79,30.17 -9.79,53.45 0,24.13 55.09,45.94 61.86,-26.8 1.01,-10.89 7.2,-19.9 13.16,-28 5.96,-8.1 18.55,-20.69 37.89,-37.78 28.78,-25.52 48.12,-47.12 58.02,-64.99 9.89,-17.77 14.85,-37.22 14.85,-58.36zm-128.88 325.41c0,-18.64 -15.1,-33.73 -33.73,-33.73 -18.62,0 -33.72,15.09 -33.72,33.73 0,18.63 15.1,33.72 33.72,33.72 18.63,0 33.73,-15.09 33.73,-33.72z"/>
 </g>
</svg>
