<?xml version="1.0" encoding="UTF-8"?>
<!DOCTYPE svg PUBLIC "-//W3C//DTD SVG 1.1//EN" "http://www.w3.org/Graphics/SVG/1.1/DTD/svg11.dtd">
<!-- Creator: CorelDRAW 2019 (64 Bit) -->
<svg xmlns="http://www.w3.org/2000/svg" xml:space="preserve" width="210mm" height="297mm" version="1.1" style="shape-rendering:geometricPrecision; text-rendering:geometricPrecision; image-rendering:optimizeQuality; fill-rule:evenodd; clip-rule:evenodd"
viewBox="0 0 21000 29700"
 xmlns:xlink="http://www.w3.org/1999/xlink">
 <defs>
  <style type="text/css">
   <![CDATA[
    .fil1 {fill:black}
    .fil0 {fill:#D6A828}
   ]]>
  </style>
 </defs>
 <g id="Camada_x0020_1">
  <metadata id="CorelCorpID_0Corel-Layer"/>
  <path class="fil0" d="M14329.93 14037.73c448.9,0 812.8,363.9 812.8,812.8 0,448.9 -363.9,812.8 -812.8,812.8 -448.9,0 -812.8,-363.9 -812.8,-812.8 0,-448.9 363.9,-812.8 812.8,-812.8z"/>
  <path class="fil1" d="M14329.93 14240.93c-336.5,0 -609.6,273.1 -609.6,609.6 0,336.5 273.1,609.6 609.6,609.6 336.5,0 609.6,-273.1 609.6,-609.6 0,-336.5 -273.1,-609.6 -609.6,-609.6zm-300.54 992.44c26.22,-54.86 185.94,-108.52 300.54,-108.52 114.6,0 274.94,53.64 300.54,108.52 -82.9,65.82 -187.16,104.85 -300.54,104.85 -113.38,0 -217.64,-39 -300.54,-104.85zm688.24 -88.41c-87.19,-106.08 -298.72,-142.04 -387.72,-142.04 -89.01,0 -300.54,35.96 -387.73,142.04 -62.13,-81.68 -99.94,-183.49 -99.94,-294.43 0,-268.83 218.86,-487.69 487.69,-487.69 268.83,0 487.69,218.86 487.69,487.69 0,110.94 -37.78,212.75 -99.97,294.43l-0.02 0zm-387.7 -660.19c-118.27,0 -213.35,95.11 -213.35,213.35 0,118.24 95.08,213.37 213.35,213.37 118.27,0 213.35,-95.11 213.35,-213.35 0,-118.24 -95.08,-213.37 -213.35,-213.37zm0 304.8c-50.6,0 -91.45,-40.86 -91.45,-91.45 0,-50.6 40.85,-91.43 91.45,-91.43 50.6,0 91.45,40.86 91.45,91.45 0,50.6 -40.85,91.43 -91.45,91.43z"/>
 </g>
</svg>
