<svg width="71" height="47" viewBox="0 0 71 47" fill="none" xmlns="http://www.w3.org/2000/svg">
<path d="M54.7591 30.9181C52.3488 31.8406 50.9321 34.4741 51.8153 36.899C53.1435 40.5461 57.1892 42.4121 60.8256 41.055C64.5333 39.6713 66.3534 35.4879 64.8383 31.8319L64.5609 31.1567C63.6046 28.8288 60.808 27.888 58.6391 29.1644C57.4197 29.8106 56.1218 30.3965 54.7591 30.9181Z" fill="#FF5C5C"/>
<path d="M3.94803 9.2634C5.6454 9.72388 7.79181 8.8302 9.3617 8.03739C10.9957 7.2122 13.2795 6.59539 15.897 6.41927C20.1604 6.13241 24.791 7.03498 28.4604 9.4725C29.9253 10.4456 31.9317 10.4951 33.1871 9.2634C34.4425 8.03171 34.4726 5.99343 33.0693 4.9332C27.7792 0.936168 21.1175 -0.315304 15.4695 0.0647295C12.1753 0.286383 9.02803 1.07092 6.49068 2.3523C4.94809 3.13132 3.42476 4.20532 2.31542 5.61389C1.22726 6.99556 2.25066 8.80293 3.94803 9.2634Z" fill="#4B0740"/>
<path d="M67.9266 9.2634C69.624 8.80293 70.6474 6.99556 69.5592 5.61389C68.4499 4.20532 66.9266 3.13132 65.384 2.3523C62.8466 1.07092 59.6994 0.286383 56.4052 0.0647295C50.7571 -0.315304 44.0954 0.936168 38.8053 4.9332C37.4021 5.99343 37.4321 8.03171 38.6875 9.2634C39.9429 10.4951 41.9493 10.4456 43.4143 9.4725C47.0837 7.03498 51.7143 6.13241 55.9776 6.41927C58.5951 6.59539 60.8789 7.2122 62.5129 8.03739C64.0828 8.8302 66.2293 9.72388 67.9266 9.2634Z" fill="#4B0740"/>
<path fill-rule="evenodd" clip-rule="evenodd" d="M65.9002 16.7903C64.1927 16.3689 62.4645 17.4541 61.4269 18.8741C60.2904 20.4297 58.5219 21.9517 56.083 23.3057C52.2178 25.4515 47.0353 26.9509 41.2653 27.3777C30.6182 28.1653 18.5695 25.2759 9.70499 16.9504C8.42302 15.7464 6.41817 15.6192 5.10602 16.7903C3.79387 17.9614 3.67215 19.9849 4.93759 21.2063C15.4146 31.3184 29.5944 34.6273 41.7351 33.7293C43.4688 33.601 45.1193 34.5866 45.7142 36.2201L46.6469 38.7812C49.0206 45.2987 56.2504 48.6335 62.7488 46.2082C69.3746 43.7354 72.6271 36.2595 69.9197 29.7262L67.5343 23.9699C67.0951 22.9101 67.2499 21.7128 67.7859 20.6985C67.8159 20.6417 67.8455 20.5848 67.8747 20.5277C68.6759 18.9621 67.6077 17.2117 65.9002 16.7903ZM51.8153 36.899C50.9321 34.474 52.3488 31.8406 54.759 30.918C56.1218 30.3964 57.4197 29.8106 58.6391 29.1644C60.808 27.8879 63.6046 28.8288 64.5609 31.1567L64.8383 31.8319C66.3533 35.4879 64.5333 39.6712 60.8256 41.055C57.1892 42.4121 53.1435 40.546 51.8153 36.899Z" fill="#4B0740"/>
</svg>
