<?xml version="1.0" encoding="UTF-8" standalone="no"?>
<!-- Created with Inkscape (http://www.inkscape.org/) -->

<svg
   xmlns:dc="http://purl.org/dc/elements/1.1/"
   xmlns:cc="http://creativecommons.org/ns#"
   xmlns:rdf="http://www.w3.org/1999/02/22-rdf-syntax-ns#"
   xmlns:svg="http://www.w3.org/2000/svg"
   xmlns="http://www.w3.org/2000/svg"
   xmlns:sodipodi="http://sodipodi.sourceforge.net/DTD/sodipodi-0.dtd"
   xmlns:inkscape="http://www.inkscape.org/namespaces/inkscape"
   version="1.1"
   id="svg10"
   xml:space="preserve"
   width="405.89352"
   height="318.44107"
   viewBox="0 0 405.89352 318.44107"
   sodipodi:docname="logo-recipies.svg"
   inkscape:version="0.92.5 (2060ec1f9f, 2020-04-08)"><metadata
     id="metadata16"><rdf:RDF><cc:Work
         rdf:about=""><dc:format>image/svg+xml</dc:format><dc:type
           rdf:resource="http://purl.org/dc/dcmitype/StillImage" /><dc:title></dc:title></cc:Work></rdf:RDF></metadata><defs
     id="defs14"><clipPath
       clipPathUnits="userSpaceOnUse"
       id="clipPath26"><path
         d="M 0,0 H 1562.5 V 1593.75 H 0 Z"
         id="path24"
         inkscape:connector-curvature="0"
         style="clip-rule:evenodd" /></clipPath><clipPath
       clipPathUnits="userSpaceOnUse"
       id="clipPath40"><path
         d="M 0,0 H 1562.5 V 1562.5 H 0 Z"
         id="path38"
         inkscape:connector-curvature="0"
         style="clip-rule:evenodd" /></clipPath><clipPath
       clipPathUnits="userSpaceOnUse"
       id="clipPath52"><path
         d="M 0,0 H 1562.5 V 1562.5 H 0 Z"
         id="path50"
         inkscape:connector-curvature="0"
         style="clip-rule:evenodd" /></clipPath><clipPath
       clipPathUnits="userSpaceOnUse"
       id="clipPath70"><path
         d="m 643.04468,538.1839 h 200 v 300 h -200 z"
         id="path68"
         inkscape:connector-curvature="0"
         style="clip-rule:evenodd" /></clipPath></defs><sodipodi:namedview
     pagecolor="#ffffff"
     bordercolor="#666666"
     borderopacity="1"
     objecttolerance="10"
     gridtolerance="10"
     guidetolerance="10"
     inkscape:pageopacity="0"
     inkscape:pageshadow="2"
     inkscape:window-width="1366"
     inkscape:window-height="704"
     id="namedview12"
     showgrid="false"
     inkscape:zoom="1.052"
     inkscape:cx="56.558938"
     inkscape:cy="147.33841"
     inkscape:window-x="0"
     inkscape:window-y="27"
     inkscape:window-maximized="1"
     inkscape:current-layer="g18" /><g
     id="g18"
     inkscape:groupmode="layer"
     inkscape:label="Logo Marrom e Azul de Confeitaria"
     transform="matrix(0.31999998,0,0,0.31999998,-55.133078,-78.897329)"><g
       id="g20"
       transform="translate(1705.0857,522.81372)"><g
         id="g22"
         clip-path="url(#clipPath26)"><g
           id="g28"
           transform="scale(3.125)"><path
             d="M 0,0 H 500 V 510 H 0 Z"
             style="fill:#ffffff;fill-opacity:1;fill-rule:nonzero;stroke:none"
             id="path30"
             inkscape:connector-curvature="0" /><path
             d="M 0,0 H 500 V 500 H 0 Z"
             style="fill:#ffffff;fill-opacity:1;fill-rule:nonzero;stroke:none"
             id="path32"
             inkscape:connector-curvature="0" /></g></g></g><g
       id="g34"
       transform="translate(1927.8756,267.34793)"><g
         id="g36"
         clip-path="url(#clipPath40)"><g
           id="g42"
           transform="scale(3.125)"><path
             d="M 0,0 H 500 V 500 H 0 Z"
             style="fill:#ffffff;fill-opacity:1;fill-rule:nonzero;stroke:none"
             id="path44"
             inkscape:connector-curvature="0" /></g></g></g><g
       id="g46"
       transform="translate(26.34701,-23.104327)"><g
         id="g48"
         clip-path="url(#clipPath52)"><g
           id="g54"
           transform="matrix(3.125,0,0,3.125,339.06732,1024.3652)"><text
             transform="translate(0,22)"
             style="font-variant:normal;font-weight:600;font-size:30.73999977px;font-family:Poppins;-inkscape-font-specification:Poppins-SemiBold;writing-mode:lr-tb;fill:#eb8328;fill-opacity:1;fill-rule:nonzero;stroke:none"
             id="text58"><tspan
               x="0 23.634674 45.302353 65.248917 87.469818 109.1375 128.03909 136.98277 161.13994 170.36023 192.58113 216.7383 225.95859 248.17949 257.12317"
               y="0"
               sodipodi:role="line"
               id="tspan56">CARDÁPIO DO DIA</tspan></text>
</g><g
           id="g60"
           transform="matrix(1.0334989,0,0,1.0334989,492.90002,439.34985)"><path
             d="m 492.10001,250.7 c 0,-26.10001 13,-53.80001 5,-77.30001 C 488.89999,149 461.10001,134 445.80002,113.7 c -15.5,-20.500003 -21.9,-50.400005 -43.20001,-65.300006 C 381.5,33.700001 350,37 324.70001,29 300.20001,21.4 276.89999,0.60000002 249.8,0.60000002 222.70001,0.60000002 199.3,21.299999 174.89999,29 c -25.3,7.900002 -56.9,4.599998 -77.999996,19.400002 C 75.599991,63.300003 69.199997,93.199997 53.699993,113.70001 38.299999,134 10.6,149 2.3,173.39999 c -7.9000004,23.5 5.0000002,51.2 5.0000002,77.30001 0,26.09999 -13,53.8 -5,77.3 8.1999998,24.39999 35.9999988,39.39999 51.2999978,59.70001 15.5,20.5 21.900002,50.4 43.200005,65.29999 C 117.9,467.79999 149.39999,464.5 174.8,472.39999 c 24.5,7.60001 47.80001,28.4 74.90001,28.4 27.10001,0 50.5,-20.70001 74.9,-28.4 25.29998,-7.89999 56.89999,-4.6 78,-19.39999 21.29998,-14.89999 27.70001,-44.79999 43.20001,-65.29999 15.39999,-20.29999 43.1,-35.29999 51.29999,-59.70001 8,-23.60001 -5,-51.29999 -5,-77.3 z"
             style="fill:#eb8328;fill-opacity:1;fill-rule:nonzero;stroke:none"
             id="path62"
             inkscape:connector-curvature="0" /></g></g></g><g
       id="g64"
       transform="translate(33.750123,-6.4467046)"><g
         id="g66"
         clip-path="url(#clipPath70)"><g
           id="g72"
           transform="matrix(1.9996401,0,0,1.9835038,544.99231,533.14063)"><path
             d="M 130.38499,61.912998 H 125.586 c -5.271,0 -9.588,-1.736999 -12.826,-5.174999 -6.40201,-6.789002 -5.83201,-17.771999 -5.80401,-18.235001 l -0.008,-33.4010006 c 0,-2.1329999 1.728,-3.8580001 3.857,-3.8580001 2.129,0 3.85501,1.7249999 3.85501,3.8580001 V 38.726997 c -0.008,0.299 -0.389,8.397 3.72899,12.739998 1.74601,1.837002 4.102,2.735001 7.196,2.735001 h 4.799 c 3.10499,0 5.46499,-0.902001 7.21299,-2.756001 4.077,-4.321998 3.722,-12.41 3.72001,-12.493 L 141.31,5.1009998 c 0,-2.1329999 1.727,-3.858 3.85699,-3.858 2.12801,0 3.855,1.7249999 3.855,3.858 V 38.725998 c 0.021,0.238998 0.591,11.222 -5.812,18.011002 -3.23698,3.437999 -7.55398,5.175998 -12.825,5.175998 z"
             style="fill:#f1f4ce;fill-opacity:1;fill-rule:nonzero;stroke:none"
             id="path74"
             inkscape:connector-curvature="0" /><path
             d="m 122.604,29.823999 c -2.131,0 -3.858,-1.725 -3.858,-3.857 V 4.9949999 c 0,-2.1329999 1.72799,-3.8580001 3.858,-3.8580001 2.12999,0 3.857,1.725 3.857,3.8580001 V 25.966999 c 0,2.132002 -1.728,3.857 -3.857,3.857 z"
             style="fill:#f1f4ce;fill-opacity:1;fill-rule:nonzero;stroke:none"
             id="path76"
             inkscape:connector-curvature="0" /><path
             d="m 133.367,29.823999 c -2.13,0 -3.85699,-1.725 -3.85699,-3.857 V 4.9949999 c 0,-2.1329999 1.728,-3.8580001 3.85699,-3.8580001 2.131,0 3.85801,1.725 3.85801,3.8580001 V 25.966999 c 9.9e-4,2.132002 -1.72701,3.857 -3.85801,3.857 z"
             style="fill:#f1f4ce;fill-opacity:1;fill-rule:nonzero;stroke:none"
             id="path78"
             inkscape:connector-curvature="0" /><path
             d="m 129.09199,153.96001 h -2.22 c -4.97399,0 -9.02099,-4.045 -9.02099,-9.021 V 80.502998 c 0,-2.133003 1.72799,-3.858001 3.857,-3.858001 h 12.55 c 2.12899,0 3.856,1.724998 3.856,3.858001 V 144.94 c 0.001,4.97499 -4.04601,9.02001 -9.02201,9.02001 z M 125.565,84.356003 v 60.582987 c 0,0.719 0.586,1.305 1.307,1.305 h 2.21999 c 0.722,0 1.31,-0.586 1.31,-1.305 V 84.356003 Z"
             style="fill:#f1f4ce;fill-opacity:1;fill-rule:nonzero;stroke:none"
             id="path80"
             inkscape:connector-curvature="0" /><path
             d="m 127.984,84.356003 c -2.131,0 -3.857,-1.725998 -3.857,-3.854004 V 58.055 c 0,-2.127998 1.727,-3.854 3.857,-3.854 2.128,0 3.855,1.724999 3.855,3.854 v 22.447998 c 0.001,2.127999 -1.727,3.853005 -3.855,3.853005 z"
             style="fill:#f1f4ce;fill-opacity:1;fill-rule:nonzero;stroke:none"
             id="path82"
             inkscape:connector-curvature="0" /><path
             d="m 72.781998,153.96001 h -2.220002 c -4.973999,0 -9.020999,-4.045 -9.020999,-9.021 V 80.502998 c 0,-2.133003 1.727001,-3.858001 3.854999,-3.858001 H 77.944 c 2.129997,0 3.857003,1.724998 3.857003,3.858001 V 144.94 c 0.002,4.97499 -4.045006,9.02001 -9.019005,9.02001 z M 69.254997,84.356003 v 60.582987 c 0,0.719 0.585999,1.305 1.306999,1.305 h 2.220002 c 0.721,0 1.307998,-0.586 1.307998,-1.305 V 84.356003 Z"
             style="fill:#f1f4ce;fill-opacity:1;fill-rule:nonzero;stroke:none"
             id="path84"
             inkscape:connector-curvature="0" /><path
             d="m 71.671997,84.356003 c -2.127998,0 -3.855003,-1.725998 -3.855003,-3.854004 V 58.055 c 0,-2.127998 1.726997,-3.854 3.855003,-3.854 2.129997,0 3.858002,1.724999 3.858002,3.854 v 22.447998 c 0,2.127999 -1.726998,3.853005 -3.858002,3.853005 z"
             style="fill:#f1f4ce;fill-opacity:1;fill-rule:nonzero;stroke:none"
             id="path86"
             inkscape:connector-curvature="0" /><path
             d="m 71.677002,61.912998 c -12.479,0 -22.632999,-13.623001 -22.632999,-30.363001 0,-16.739999 10.152999,-30.3579995 22.632999,-30.3579995 12.479004,0 22.627998,13.6180005 22.627998,30.3579995 0,16.740004 -10.149002,30.363001 -22.627998,30.363001 z m 0,-53.0079983 c -8.084999,0 -14.918999,10.3690003 -14.918999,22.6449993 0,12.278 6.834,22.652001 14.918999,22.652001 8.084999,0 14.915001,-10.375 14.915001,-22.652001 0,-12.275999 -6.830002,-22.6449993 -14.915001,-22.6449993 z"
             style="fill:#f1f4ce;fill-opacity:1;fill-rule:nonzero;stroke:none"
             id="path88"
             inkscape:connector-curvature="0" /></g></g></g><rect
       id="rect90"
       width="1268.4174"
       height="995.12842"
       x="172.29088"
       y="246.55417"
       style="fill:none;stroke-width:3.12500024" /></g></svg>