<?xml version="1.0" encoding="UTF-8"?>
<!DOCTYPE svg PUBLIC "-//W3C//DTD SVG 1.1//EN" "http://www.w3.org/Graphics/SVG/1.1/DTD/svg11.dtd">
<!-- Creator: CorelDRAW 2019 (64 Bit) -->
<svg xmlns="http://www.w3.org/2000/svg" xml:space="preserve" width="210mm" height="297mm" version="1.1" style="shape-rendering:geometricPrecision; text-rendering:geometricPrecision; image-rendering:optimizeQuality; fill-rule:evenodd; clip-rule:evenodd"
viewBox="0 0 21000 29700"
 xmlns:xlink="http://www.w3.org/1999/xlink">
 <defs>
  <style type="text/css">
   <![CDATA[
    .fil0 {fill:black}
   ]]>
  </style>
 </defs>
 <g id="Camada_x0020_1">
  <metadata id="CorelCorpID_0Corel-Layer"/>
  <path class="fil0" d="M10345.5 15557.72c44.7,-11.96 132.62,-53.26 172.06,-51.04 27.22,1.53 139.93,44.6 162.24,57.23 -79.68,12.92 -211.99,17.26 -294.54,5.53 -29.84,-4.24 -18.36,0.02 -39.76,-11.72zm444.58 -1427.85c83.54,135.5 170.9,601.1 -280.1,598.51 -363.68,-2.09 -393.69,-307.27 -273.6,-600.05l553.7 1.54zm-232.11 1294.12c-12.57,-135.58 -1.21,-329.24 -0.95,-471.12 0.26,-146.87 -33.37,-125.74 85.14,-149.21 66.73,-13.2 121.75,-39.16 165,-72.95 241.12,-188.4 98.79,-668.08 15.87,-685.9 -66.51,-14.27 -382.8,-2.25 -474.9,-2.62 -89.27,-0.34 -154.5,-24.98 -189.5,48.86 -138.91,293.03 -106.89,696.43 310.25,722.9l0.06 598.66c-13.21,49.12 -294.34,84.46 -329.38,132.21 -76.26,103.86 306.05,117.73 353.3,118.52 58.07,0.97 417.38,-7.06 401.15,-97.48 -17.85,-35.42 -27.73,-33.54 -71.95,-48.62l-264.09 -93.25z"/>
  <path class="fil0" d="M10384.74 14345.28c9.13,42.07 -3.31,97.05 18.97,134.88 11.96,20.32 31.4,23.45 21.33,54.08 -14.39,43.82 -92.5,34.1 -103.43,-100.51 -5.44,-67.08 -5.51,-110.87 63.13,-88.45zm-122.47 -91.87c-44.06,243.88 -16.71,408.72 256.17,406.66 109.33,-0.83 198.87,-32.33 237.2,-108.59 53.28,-106.02 25.11,-188.24 11.79,-298.72l-505.16 0.65z"/>
 </g>
</svg>
