<?xml version="1.0" encoding="UTF-8"?>
<!DOCTYPE svg PUBLIC "-//W3C//DTD SVG 1.1//EN" "http://www.w3.org/Graphics/SVG/1.1/DTD/svg11.dtd">
<!-- Creator: CorelDRAW 2019 (64 Bit) -->
<svg xmlns="http://www.w3.org/2000/svg" xml:space="preserve" width="210mm" height="297mm" version="1.1" style="shape-rendering:geometricPrecision; text-rendering:geometricPrecision; image-rendering:optimizeQuality; fill-rule:evenodd; clip-rule:evenodd"
viewBox="0 0 21000 29700"
 xmlns:xlink="http://www.w3.org/1999/xlink">
 <defs>
  <style type="text/css">
   <![CDATA[
    .fil0 {fill:black}
   ]]>
  </style>
 </defs>
 <g id="Camada_x0020_1">
  <metadata id="CorelCorpID_0Corel-Layer"/>
  <g id="_857714960">
   <path class="fil0" d="M10318.71 14349.53c159.91,-12.18 363.7,-0.3 505.96,42.65 17.31,5.23 35.46,10.94 53.12,15.95 40.89,11.6 103.77,48.87 140.22,69.18 104.88,58.46 226.28,203.47 220.8,336.02 -9.81,237.84 -486.71,333.32 -789.41,190.77 -81.27,-38.27 -136.38,-127.96 -217.98,-199.83 -52.14,-45.93 -115.08,-77.64 -186.07,-92.76l-117.98 -14.37c-230.7,-39.17 -244.29,-182.84 -81.21,-260.3 106.45,-50.57 338.93,-77.12 472.55,-87.31zm31.39 -50.62c-140.61,6.93 -465.09,41.04 -574.68,112.36 -29.25,19.03 -62.64,54.6 -79.34,91.42 -21.08,46.49 -15.28,99.83 -15.28,153.77 0,56.88 0.02,113.77 -0.03,170.67 -0.13,186.49 171.6,183.67 311.25,202.83 24.18,3.32 44.32,10.28 66.98,16.7 58.51,16.58 113.04,54.92 156.57,97.45 27.48,26.85 55.89,56.87 83.39,87.17 33.06,36.4 46.22,52.52 88.91,81.84 175.73,120.63 507.96,113.93 703.38,30.89 77.19,-32.8 146.1,-78.72 189.24,-155.42 23.65,-42.04 24.23,-93.07 24.22,-138.58 -0.01,-51.15 2.52,-211.59 -0.63,-255.55 -6.61,-91.96 -91.23,-223.11 -147.99,-274.02 -56.18,-50.38 -134.22,-111.95 -207.92,-136.51 -41.35,-13.78 -80.84,-33.84 -127.13,-44.07 -175.92,-38.85 -282.26,-50.24 -470.94,-40.95z"/>
   <path class="fil0" d="M10251.81 14506.7c2.64,22.36 29.68,36.39 52.22,43.92 54.58,18.25 126.08,16.61 225.96,56.22 49.13,19.49 84.43,38.61 121.6,66.37 67.14,50.13 119.24,134.06 168.74,207.23 13.88,20.52 26.28,32.97 42.91,51.25 106.71,117.27 272.4,-20.71 298.42,-81.57 40.79,-95.37 -52.96,-228.35 -94.79,-268.34 -32.99,-31.53 -64.09,-58.3 -107.27,-80.75 -41.58,-21.64 -86.98,-40.75 -134.75,-53.35 -124.24,-32.75 -351.28,-92.1 -482.26,-36.89 -33.39,14.07 -95.6,54.88 -90.78,95.91z"/>
   <path class="fil0" d="M10184.31 14680.84c11.71,37.62 74.21,70.3 116.52,106.12l116.7 106.35c27.22,27.77 83.06,74.86 143.13,78.86 70.62,4.71 116.95,-33.48 133.86,-87.71 20.52,-65.87 -17.78,-117.52 -53.67,-158.65 -69.65,-79.81 -214.33,-109.97 -320.88,-124.98 -55.88,-7.88 -154.38,19.82 -135.66,80.01z"/>
   <path class="fil0" d="M10157.04 14538.04c18.51,-98.33 -86.52,-106.38 -168.7,-91.66 -61.03,10.92 -167.17,53.84 -172.6,106.34 -6.2,60.09 128.5,88.65 176.21,93.87 40.38,4.41 82.1,-3.85 110.01,-23.64 19.78,-14.04 48.95,-52.36 55.08,-84.91z"/>
  </g>
 </g>
</svg>
