<?xml version="1.0" encoding="UTF-8"?>
<!DOCTYPE svg PUBLIC "-//W3C//DTD SVG 1.1//EN" "http://www.w3.org/Graphics/SVG/1.1/DTD/svg11.dtd">
<!-- Creator: CorelDRAW 2019 (64 Bit) -->
<svg xmlns="http://www.w3.org/2000/svg" xml:space="preserve" width="210mm" height="297mm" version="1.1" style="shape-rendering:geometricPrecision; text-rendering:geometricPrecision; image-rendering:optimizeQuality; fill-rule:evenodd; clip-rule:evenodd"
viewBox="0 0 21000 29700"
 xmlns:xlink="http://www.w3.org/1999/xlink">
 <defs>
  <style type="text/css">
   <![CDATA[
    .fil0 {fill:black}
   ]]>
  </style>
 </defs>
 <g id="Camada_x0020_1">
  <metadata id="CorelCorpID_0Corel-Layer"/>
  <g id="_1174742704">
   <path class="fil0" d="M11022.85 15473.47c10.39,-3.05 20.76,4.61 21.12,15.42 0.5,14.66 -55.94,61.53 -55.96,61.54 -12.33,4.42 -23.22,-4.42 -22.99,-15.91 0.3,-14.15 50.97,-59.04 57.83,-61.05zm131.93 -55.18c10.89,-6.68 22.99,-0.01 24.8,10.61 2.34,13.67 -7.65,18.08 -13.96,24.64 -6.91,7.18 -35.21,37.23 -38.49,38.82 -10.29,4.97 -23.37,1.59 -25.3,-11.11 -2.33,-15.26 17.31,-28.01 32.78,-44.25 5.14,-5.39 13.69,-14.74 20.17,-18.71zm-199.92 -9.93c11.61,-4.46 23.28,3.18 23.1,15.32 -0.2,14.62 -55.47,60.98 -55.48,60.98 -12.15,4.68 -22.82,-3.48 -22.98,-15.15 -0.22,-16.43 54.01,-60.63 55.36,-61.15zm126.23 -61.19c14.76,-10.52 43.21,3.82 13.63,33.09l-38.75 38.43c-16.57,11.38 -42.47,-6.24 -14.41,-33.85 13.3,-13.08 24.63,-27.06 39.53,-37.67zm-68.92 -74.09c11.43,-6.25 39.94,5.67 9.1,36.15 -6.87,6.78 -34.78,36.34 -40.84,38.82 -13.44,5.5 -23.26,-2.98 -24.07,-13.72 -0.85,-11.36 8.52,-17.09 14.33,-22.75 14.1,-13.74 25.54,-29.78 41.48,-38.5zm-31.17 -60.05c-47.87,8.24 -87.29,53.47 -105.8,89.75 -23.06,45.17 -32.7,108.88 -27.78,168.46 2.19,26.4 4.51,61.45 11.36,85.26 7.74,26.92 27.89,35.26 58.83,40.15 58.36,9.21 123.71,11.78 179.63,-2.25 96.5,-24.21 187.74,-112.11 117.26,-225.19 -20.21,-32.42 -63.3,-78.15 -91.91,-102.94 -28.95,-25.08 -82.87,-63.34 -141.59,-53.24z"/>
   <path class="fil0" d="M10958.23 14792.86c50.22,0.33 107.43,-7.19 144.03,15.77 75.54,47.39 68.66,159.82 -17.43,194.95 -37.54,15.33 -106.85,2.69 -151.28,7.97l-9.42 54.13c60.38,2.91 148.15,6.21 195.36,-17.99 142.68,-73.11 106.82,-286.33 -53.14,-308.46 -18.39,-2.55 -87.26,-3.54 -104.83,-0.84l-3.29 54.47z"/>
   <path class="fil0" d="M10455.33 14308.25c-30.26,-28.13 -62.4,-58.08 -62.18,-108.27 0.18,-10.81 2.8,-21.6 6.84,-31.86 4.74,-12.01 11.51,-23.42 18.61,-33.23l4.02 -5.67c13.35,-18.94 28.17,-39.89 54.59,-38.72 19.09,0.86 26,6.6 25.55,16.43 -0.37,8.16 -7.69,17.78 -16.86,29.82 -14.27,18.71 -33.68,44.15 -33.68,72.89 0,23.83 22.78,45.99 47.24,69.81 46.27,45.02 98.22,95.59 34.75,181.45l-3.85 5.32c-15.75,21.74 -36.83,50.81 -69.35,41.67 -14.78,-4.16 -18.68,-11.16 -16.01,-20.64 2.13,-7.56 9.74,-15.75 18.72,-25.46 8.61,-9.29 18.73,-20.24 25.67,-32.43 33.21,-58.48 0.95,-88.53 -34.06,-121.11zm199.53 -9.2c7.71,-11.43 17.5,-21.43 27.43,-25.15 11.11,-4.14 22.33,-3.23 30.33,0.49 2.71,1.27 5.16,2.91 7.12,4.8 2.15,2.1 3.8,4.52 4.76,7.1 1.54,4.18 1.49,8.77 -0.67,13.36 -1.87,3.99 -5.6,8.29 -9.78,13.04 -4.4,5.05 -9.44,10.8 -12.26,16.32 -11.38,22.2 2.97,34.79 18.81,48.64l7.03 6.23c14.35,13.04 22.68,26.57 26.66,39.71 4.88,15.98 3.41,31.4 -1.29,44.92 -4.63,13.32 -12.38,24.86 -20.22,33.47 -8.26,9.05 -17.05,15.15 -22.7,16.88 -11.59,3.54 -22.37,2.8 -29.98,-0.54 -2.97,-1.29 -5.56,-3 -7.57,-5.01 -2.19,-2.19 -3.8,-4.78 -4.66,-7.61 -1.19,-3.89 -0.98,-8.17 0.9,-12.47 1.52,-3.51 6.09,-8.6 11.09,-14.2 4.69,-5.23 9.86,-11 12.17,-14.82 16.34,-26.82 -0.67,-43 -19,-60.41 -18.15,-17.27 -37.39,-35.58 -34.64,-65.61 0.93,-10.11 7.49,-25.89 16.47,-39.14z"/>
   <path class="fil0" d="M11305.67 15305.92c-45.13,-33.33 -70.83,-9.59 -82.21,-29.99 -13.87,-24.87 21.81,-23.98 31.05,-79.82 -54.56,9.67 -56.76,45.37 -80.35,30.81 -15.76,-9.73 -1.53,-29.3 -19.06,-65.31 -6.1,-12.53 -6.05,-13.05 -12.58,-17.18 -10.74,24.26 -22.86,45.4 -12.82,78.81 4.51,14.99 34.62,39.73 46.64,51.8 8.54,8.59 15.61,15.43 24.04,24.07 8.17,8.37 11.78,17.53 28.35,22.32 23.81,6.9 64.13,1.13 76.94,-15.51z"/>
   <path class="fil0" d="M10200.65 14669.55c-16.18,5.51 -32.06,12.62 -47.36,21.48 -12.78,7.4 -10.17,18.45 -35.63,-0.01 -14.75,-10.64 -55.78,-30.47 -97.13,-38.38 -189.97,-36.3 -461.3,225.85 -281.52,400.78 -63.94,129.98 -49.03,347.18 -46.31,443.61 2.73,96.4 74.05,104.17 74.05,104.17 88.22,0.9 545.25,20.71 597.67,0 4.87,-1.91 10.19,-4.17 15.83,-6.8 -7.03,-16.44 -14.56,-37.31 -22.12,-60.43 -6.55,5.89 -17.07,9.32 -34.6,9.32 -49.53,0 -513.73,0 -513.73,0 0,0 -41.69,3.44 -56.42,-43.86 -14.75,-47.31 -10.97,-246.07 5.47,-306.38 16.45,-60.29 49.35,-148.37 49.35,-148.37 0,0 -99.09,-69.98 -60.31,-169.62 38.77,-99.64 158.34,-106.94 207.68,-87.74 49.35,19.19 94.23,58.48 98.69,68.53 4.46,10.05 11.64,8.26 17.12,2.75 5.49,-5.49 48.73,-52.51 104.19,-71.28 9.64,-3.26 20.47,-5.13 31.97,-5.66 -1.28,-15.53 -2.43,-31.09 -3.45,-46.36 -1.51,-22.71 -2.71,-44.9 -3.44,-65.75z"/>
   <path class="fil0" d="M10400.75 15201.84c23.45,-16.53 28.49,23.19 33.22,39.38 4.36,14.94 21.35,48.74 6.6,58.72 -26.88,18.2 -37.19,-40.17 -45.63,-70.12 -6.55,-23.3 -1.09,-23.11 5.81,-27.98zm-52.35 -413.24c19.75,-7.58 23.86,10.42 24.01,27.48 0.15,17.64 1.67,35.41 3.18,52.84 2.91,33.77 5.4,68.03 9.4,101.31l20.38 145.42c2.46,14.18 10.07,36.44 -6.57,41.87 -20.23,6.61 -23.47,-13.48 -25.96,-28.34 -13.59,-81.18 -24.91,-163.1 -30.74,-245.61 -1.22,-17.2 -2.71,-34.64 -3.65,-51.39 -1.01,-18.09 -5.62,-37.6 9.95,-43.58zm484.29 813.97c-6.48,-13.11 -17.85,-17.43 -24.18,-48.18 -20.3,-98.51 -18.22,-226.56 46.49,-306.79 13.52,-16.77 12.04,-27.73 17.32,-57.66 29.22,-165.72 51.18,-290.11 60.54,-460.31 1.97,-35.84 7.96,-114.12 2.71,-146.51 -27.86,-5.87 -675.81,-2.22 -683.84,0.87 -7.08,84.35 13,283.24 24.75,371.65 15.43,116.1 37.56,228.39 64.48,337.74 11.17,45.37 78.71,288.11 95.47,303.71 11.6,10.8 168.19,5.88 194.05,5.88 65.6,0 137.4,2.75 202.21,-0.4z"/>
  </g>
 </g>
</svg>
