<?xml version="1.0" encoding="UTF-8"?>
<!DOCTYPE svg PUBLIC "-//W3C//DTD SVG 1.1//EN" "http://www.w3.org/Graphics/SVG/1.1/DTD/svg11.dtd">
<!-- Creator: CorelDRAW 2019 (64 Bit) -->
<svg xmlns="http://www.w3.org/2000/svg" xml:space="preserve" width="210mm" height="297mm" version="1.1" style="shape-rendering:geometricPrecision; text-rendering:geometricPrecision; image-rendering:optimizeQuality; fill-rule:evenodd; clip-rule:evenodd"
viewBox="0 0 21000 29700"
 xmlns:xlink="http://www.w3.org/1999/xlink">
 <defs>
  <style type="text/css">
   <![CDATA[
    .fil0 {fill:#999999}
   ]]>
  </style>
 </defs>
 <g id="Camada_x0020_1">
  <metadata id="CorelCorpID_0Corel-Layer"/>
  <path class="fil0" d="M10492.87 14037.73c448.9,0 812.8,363.9 812.8,812.8 0,448.9 -363.9,812.8 -812.8,812.8 -448.9,0 -812.8,-363.9 -812.8,-812.8 0,-448.9 363.9,-812.8 812.8,-812.8zm-459.11 894.85c26.97,22.93 54.14,53.36 79.82,79.05 40.47,40.46 224.52,230.13 244.19,238.52 14.36,-19.98 53.01,-54.17 72.95,-73.98l373.09 -370.7c6.75,-6.69 12.18,-11.38 18.4,-18.41l53.61 -56.84c17.61,-17.49 59.84,-63.62 76.5,-74.01l39.91 -41.82 -162.86 -163.48 -470.92 468.51c-29.16,-12.12 -165.86,-172.33 -199.87,-192.81 -30.74,17.94 -91.83,91.14 -122.64,121.05 -14.97,14.54 -28.28,26.93 -42.43,41.64l40.25 43.28z"/>
 </g>
</svg>
