<?xml version="1.0" encoding="UTF-8"?>
<!DOCTYPE svg PUBLIC "-//W3C//DTD SVG 1.1//EN" "http://www.w3.org/Graphics/SVG/1.1/DTD/svg11.dtd">
<!-- Creator: CorelDRAW 2019 (64 Bit) -->
<svg xmlns="http://www.w3.org/2000/svg" xml:space="preserve" width="210mm" height="297mm" version="1.1" style="shape-rendering:geometricPrecision; text-rendering:geometricPrecision; image-rendering:optimizeQuality; fill-rule:evenodd; clip-rule:evenodd"
viewBox="0 0 21000 29700"
 xmlns:xlink="http://www.w3.org/1999/xlink">
 <defs>
  <style type="text/css">
   <![CDATA[
    .fil0 {fill:black}
   ]]>
  </style>
 </defs>
 <g id="Camada_x0020_1">
  <metadata id="CorelCorpID_0Corel-Layer"/>
  <path class="fil0" d="M11213.43 15218.68c-53.1,8.01 -107.8,8.12 -165.83,-3.37 -163.87,-32.45 -239.7,-123.61 -296.54,-265.17 -27.02,-67.31 -49.51,-136.11 -72.71,-208.09 -51.45,-159.58 -87.22,-244.95 -205.63,-355.96 -50.42,-47.28 -107.91,-77.28 -203.68,-75.5 38.92,-19.42 104.24,6.66 134.03,0.8 39.46,-7.75 79.22,-31.62 58.38,-80.16 -19.53,-45.45 -71.49,-16.95 -114.33,-26.49 -43.44,-9.64 -43.78,-49.81 -68.17,-77.63 -16.11,-18.34 -32.55,-9.2 -48.98,2.58 -37.34,26.69 -57.04,46.94 -99.99,17.51 -42.83,-29.3 -34.31,44.42 -65.2,63.85 -17.02,10.69 -38.7,4.2 -51.2,20.33 -16.61,21.43 5.82,38.18 6.48,53.87 0.78,18.82 -25.89,19.58 -34.73,36.76 6.18,16.66 22.78,21.23 38.08,29.3 14.81,7.8 27.37,15.77 40.69,22.04 -10.78,8.22 -32.16,11.03 -45.72,17.52 -28.74,13.73 -74.1,51.14 -83.68,83.01 -2.2,7.32 -0.56,1.07 -0.6,6.15l135.02 15.04c-4.83,16.87 -47.22,79.33 -59.95,118.85 -49.82,154.61 115.53,171.98 157.91,94.67 18.08,-33.04 20.11,-116.23 18.86,-159.53 12.68,13.8 13.62,44.63 14.46,62.28 3.5,73.09 -17,110.33 -49.53,167.11 -35.78,62.47 -71.51,118.39 -101.32,191 -46.41,113.09 -71.01,247.93 -55.92,374.83 2.44,20.55 5.96,40.81 9.99,61.03 3.3,16.47 5.46,35.66 11.9,51.27 2.74,6.64 1.15,3.23 3.56,6.49 4.35,-33.26 6.3,-54.56 21.19,-81.67 10.72,-19.48 28.97,-47.38 45.82,-55.98 -13.35,75.04 -35.74,107.79 -25.5,209.04 125.05,79.2 273.31,125.06 432.28,125.06 223.4,0 425.66,-90.55 572.05,-236.94 59.51,-59.51 109.79,-128.26 148.51,-203.9z"/>
 </g>
</svg>
