<?xml version="1.0" encoding="UTF-8"?>
<!DOCTYPE svg PUBLIC "-//W3C//DTD SVG 1.1//EN" "http://www.w3.org/Graphics/SVG/1.1/DTD/svg11.dtd">
<!-- Creator: CorelDRAW 2019 (64 Bit) -->
<svg xmlns="http://www.w3.org/2000/svg" xml:space="preserve" width="210mm" height="297mm" version="1.1" style="shape-rendering:geometricPrecision; text-rendering:geometricPrecision; image-rendering:optimizeQuality; fill-rule:evenodd; clip-rule:evenodd"
viewBox="0 0 21000 29700"
 xmlns:xlink="http://www.w3.org/1999/xlink">
 <defs>
  <style type="text/css">
   <![CDATA[
    .fil0 {fill:black}
   ]]>
  </style>
 </defs>
 <g id="Camada_x0020_1">
  <metadata id="CorelCorpID_0Corel-Layer"/>
  <g id="_857691440">
   <path class="fil0" d="M10251.76 14292.79c263.52,0 485.36,171.19 551.58,404.03 -39.39,-12.8 -81.37,-19.71 -124.96,-19.71 -111.92,0 -213.41,45.42 -286.78,118.8 -73.34,73.33 -118.8,174.78 -118.8,286.74 0,13.52 0.68,26.95 1.95,40.15 29.36,26.03 59.19,49.46 98.61,74.05 -13.31,-35.55 -20.59,-74.01 -20.59,-114.2 0,-179.78 145.79,-325.57 325.61,-325.57 179.78,0 325.57,145.79 325.57,325.57 0,179.82 -145.79,325.61 -325.57,325.61l-8.04 -0.08 -0.36 -0.04 -8.35 -0.32 -423.58 -17.39c-6.96,-0.32 -13.96,-0.64 -20.92,-0.96 -299.58,-17.2 -537.06,-255.84 -537.06,-547.82 0,-303.1 256,-548.86 571.69,-548.86z"/>
   <path class="fil0" d="M10882.6 14803.08l59.88 -38.05c-18.56,-46.04 -31.92,-118.36 43.14,-155.81 27.67,-13.83 62.12,-21.37 94.27,-19.72 25.41,1.29 50.13,8.32 70.5,22.21 22.79,15.53 39.49,38.56 45.64,70.28 3.56,18.3 3.27,39.36 -1.98,63.33 24.75,7.07 49.48,18.79 68.4,33.49 28.28,21.97 46.25,51.48 42.79,86.27 -3.48,35.26 -18.57,64.67 -40.49,85.54 -23.68,22.52 -55.06,34.88 -88.54,33.99 -28.5,-0.75 -53.49,-9.6 -74.91,-23.95 -8.34,-5.59 -16.05,-11.98 -23.17,-18.99 -29.67,19.63 -59.62,38.07 -87.98,47.01 -4.6,-15.3 -10.3,-30.1 -17,-44.36 31.45,-8.76 75.57,-40.74 115.37,-66.96 19.35,33.23 49.04,58.5 88.81,59.54 40.43,1.09 75.7,-29.11 80.38,-76.5 3.48,-35.06 -48.75,-65.46 -94.02,-73.04 -4.67,-0.77 -22.86,-29.16 -21.14,-34.48 38.74,-120.08 -71.62,-132.79 -135.6,-100.81 -66.1,32.99 -2.19,130.08 -2.19,130.08l-96.53 61.38c-1.93,1.02 -3.75,2.12 -5.43,3.29 -12.14,-11.56 -25.18,-22.17 -38.99,-31.76 6.27,-3.9 12.95,-7.87 18.79,-11.98z"/>
  </g>
 </g>
</svg>
