<?xml version="1.0" encoding="UTF-8"?>
<!DOCTYPE svg PUBLIC "-//W3C//DTD SVG 1.1//EN" "http://www.w3.org/Graphics/SVG/1.1/DTD/svg11.dtd">
<!-- Creator: CorelDRAW 2019 (64 Bit) -->
<svg xmlns="http://www.w3.org/2000/svg" xml:space="preserve" width="210mm" height="297mm" version="1.1" style="shape-rendering:geometricPrecision; text-rendering:geometricPrecision; image-rendering:optimizeQuality; fill-rule:evenodd; clip-rule:evenodd"
viewBox="0 0 21000 29700"
 xmlns:xlink="http://www.w3.org/1999/xlink">
 <defs>
  <style type="text/css">
   <![CDATA[
    .fil0 {fill:black}
   ]]>
  </style>
 </defs>
 <g id="Camada_x0020_1">
  <metadata id="CorelCorpID_0Corel-Layer"/>
  <g id="_690537536">
   <path class="fil0" d="M10855.85 14672.4c-22,16.87 -91.73,17.66 -123.89,22.54 -42.62,6.44 -85.89,17.76 -124.69,28.71 -149.56,42.21 -252.34,157.38 -287.5,313.32 -29,128.61 45.46,216.48 55.23,246.91 -34.22,47.44 -53.05,61.27 -124.34,61.11 -56.15,-0.12 -333.56,5.53 -366.65,-5.33 -114.65,-37.63 -176.08,-278.89 -168.96,-392.32 6.93,-110.41 51.32,-189.53 109.38,-267.74 165.5,-222.94 539.74,-306.73 820.67,-172.54 45.7,21.83 204.23,116.76 210.75,165.34z"/>
   <path class="fil0" d="M11240.48 14661.7c208.67,50.86 48.44,337.59 -106.94,218.27 -5.29,-4.05 -5.89,-5.08 -10.97,-9.61 -0.89,-0.79 -2,-1.83 -2.87,-2.61l-9.37 -8.1c-10.45,27.17 -36.72,71.91 -52.67,100.02 -20.27,35.76 -35.45,67.97 -55.03,103.07 -38.71,69.38 -75.62,135.97 -125.41,185.33 -114.82,113.83 -331.58,138.44 -443,10.27 -136.36,-156.85 -42.82,-471.92 310.64,-503.52 29.71,-2.64 238.25,-33.86 264.21,-42.98 -41.14,-92.2 6.38,-168.44 78.13,-186.42 49.26,-12.36 80.77,0.41 111.55,24.25 19.09,14.77 20.77,15.36 33.55,43.11 10.79,23.44 8.09,42.85 8.18,68.92z"/>
  </g>
 </g>
</svg>
