<?xml version="1.0" encoding="UTF-8"?>
<!DOCTYPE svg PUBLIC "-//W3C//DTD SVG 1.1//EN" "http://www.w3.org/Graphics/SVG/1.1/DTD/svg11.dtd">
<!-- Creator: CorelDRAW 2019 (64 Bit) -->
<svg xmlns="http://www.w3.org/2000/svg" xml:space="preserve" width="210mm" height="297mm" version="1.1" style="shape-rendering:geometricPrecision; text-rendering:geometricPrecision; image-rendering:optimizeQuality; fill-rule:evenodd; clip-rule:evenodd"
viewBox="0 0 21000 29700"
 xmlns:xlink="http://www.w3.org/1999/xlink">
 <defs>
  <style type="text/css">
   <![CDATA[
    .fil0 {fill:black}
   ]]>
  </style>
 </defs>
 <g id="Camada_x0020_1">
  <metadata id="CorelCorpID_0Corel-Layer"/>
  <path class="fil0" d="M10521.3 14939.46c60.22,21.82 190.46,57.93 245.91,56.65 -4.28,-25.16 -10.7,-44.44 -21.07,-66.13 -5.03,-10.51 -10.4,-19.69 -16.28,-28.36 -6.35,-9.35 -12.79,-16.28 -18.18,-24.74 32.95,3.64 66.62,20.38 88.67,35.57 11.91,8.2 25.02,19.98 32.83,29.44 5.08,6.16 9.39,10.35 14.43,17.49 3.87,5.5 8.17,14.12 12.94,17.95 6.81,-40.68 1.21,-78.59 -21.83,-111.2 -7.7,-10.91 -13.36,-15.86 -21.46,-24.36 36.15,6.46 76.56,36.52 97.88,58.02 23.41,23.61 33,39 50.85,68.89 10.45,-23.08 3.6,-91.84 -3.03,-116.67 -9.47,-35.49 -22.16,-61.44 -40.1,-87.54 -18.78,-27.3 -37.04,-44.64 -63.11,-64.56 -16.97,-12.95 -60.53,-37.15 -85.02,-41.32 30.69,0.58 94.09,33.38 115.88,47.11 34.49,21.75 59.93,46.44 85.37,77.48 35.74,43.63 65.15,110.01 73.29,170.57 3.81,28.3 1.96,48.62 2.68,76 25.93,-28.45 50.62,-83.72 57.77,-133.22 8.3,-57.58 -2.23,-116.81 -24.24,-162.23 -13.57,-28.01 -28.16,-51.8 -47.99,-71.76 -29.68,-29.89 -58.16,-51.53 -98.99,-68.55 -31.69,-13.2 -46.01,-12.49 -75.05,-20.24 45.22,0.5 98.64,17.69 133.54,35.23 54.9,27.58 100.04,67.3 134.05,118.04 37.93,56.57 57.91,120.27 59.23,193.17 5.66,-4.86 10,-12.67 13.69,-19 49.75,-85.18 59.74,-187.37 19.48,-279.35 -12.75,-29.1 -29.25,-53.29 -48.57,-77.48 -5.7,-7.13 -9.5,-9.96 -15.62,-16.31 -16.45,-17.03 -32.06,-29.81 -52.74,-42.98 -58.32,-37.14 -133.9,-54.15 -204.68,-43.97 -42.37,6.1 -59.42,16.35 -95.42,29.39 5.65,-2.89 14.5,-10.26 22.33,-14.67 25.5,-14.39 50.52,-25.67 79.91,-33.39 104.01,-27.35 213.05,-0.96 293.85,65.61 13.63,11.22 30.36,31.63 37.07,36.75 -0.95,-29.18 -30.61,-86.46 -43.87,-106.65 -64.56,-98.3 -177.04,-157.89 -306.8,-142.93 -75.57,8.72 -127.66,38.46 -181.02,83.59 -13.27,11.23 -25.02,25.54 -35.62,39.43 -46,60.25 -61.91,119.2 -65.87,197.4 -16.46,6.27 -35.79,17.59 -53.32,24.9 -62.86,26.23 -124.62,43.05 -195.2,29.07 -91.27,-18.07 -133.51,-68.84 -165.16,-147.68 -15.05,-37.49 -27.57,-75.81 -40.5,-115.9 -28.65,-88.88 -48.57,-136.43 -114.52,-198.26 -28.08,-26.33 -60.11,-43.04 -113.44,-42.05 21.67,-10.81 58.05,3.71 74.64,0.45 21.98,-4.32 44.13,-17.61 32.52,-44.65 -10.87,-25.31 -39.82,-9.44 -63.68,-14.75 -24.19,-5.37 -24.38,-27.74 -37.97,-43.23 -8.97,-10.23 -18.12,-5.13 -27.28,1.43 -20.79,14.87 -31.76,26.14 -55.69,9.76 -23.85,-16.33 -19.11,24.73 -36.31,35.55 -9.48,5.96 -21.55,2.34 -28.52,11.33 -9.25,11.93 3.24,21.26 3.61,30 0.44,10.48 -14.42,10.91 -19.34,20.47 3.44,9.28 12.68,11.83 21.21,16.32 8.25,4.35 15.24,8.79 22.66,12.28 -6,4.58 -17.91,6.14 -25.46,9.75 -16.01,7.65 -41.27,28.49 -46.61,46.24 -1.23,4.08 -0.31,0.6 -0.33,3.42l75.2 8.38c-2.69,9.4 -26.3,44.19 -33.39,66.2 -27.75,86.11 64.35,95.78 87.95,52.72 10.07,-18.39 11.2,-64.73 10.5,-88.85 7.06,7.69 7.59,24.86 8.06,34.69 1.95,40.71 -9.47,61.45 -27.59,93.07 -19.93,34.79 -39.83,65.94 -56.43,106.39 -25.85,62.97 -39.55,138.08 -31.15,208.76 1.36,11.44 3.32,22.72 5.57,33.99 1.84,9.17 3.04,19.86 6.63,28.55 1.52,3.7 0.63,1.8 1.98,3.62 2.42,-18.53 3.5,-30.39 11.8,-45.49 5.97,-10.85 16.14,-26.39 25.52,-31.18 -7.86,44.2 -21.36,62.05 -13.04,126.54 8.18,63.42 34.81,102.66 68.95,149.69 10.61,14.62 21.14,26.67 31.63,40.19 20.71,26.72 54.92,60.58 79.21,85.14 9.1,9.19 40.29,38.81 44.27,46.72 16.07,31.95 27.02,97.42 47.21,133.13 20.14,35.61 57.59,35.98 84.54,60.64 29.32,26.83 14.18,56.22 19.24,91.37 1.79,12.41 7.29,14.81 12.54,22.72 -5.64,23.27 -14.27,48.71 -21.58,71.63 -16.35,51.32 -8.75,53.81 -32.11,60.35 -71.47,19.97 -114.04,-1.04 -134.67,47.97 24.48,-4.49 32.95,-8.48 61.06,-6.57 33.46,2.28 60.51,-0.66 92.7,-9.54 16.56,-4.57 11.5,-2.43 27.03,1.13 10.02,2.3 20.96,0.81 31.29,4.02 12.45,3.86 11.16,6.06 27.76,7.12 -4.82,-40.63 -16.51,-26.07 -39.57,-38.64 -22.06,-12.03 -3,-37.11 1.47,-53.47 23.91,6.68 14.9,13.6 50.57,10.36 -1.4,-1.57 -0.91,-1.1 -2.8,-2.72 -5.95,-5.11 -12.41,-8.56 -17.64,-14.49 -27.54,-31.23 -6.97,-38.7 3.85,-72.29 14.43,1.49 12.44,-2.95 19.07,-9.64 6.91,-6.98 14.3,-3.56 20.36,-8.37 5.54,-4.38 2.89,-11.97 11.72,-17.05 6.86,-3.94 16.45,-3.03 24.94,-3.67 0.1,-9.11 -0.09,-15.6 1.18,-24.77 1.4,-10.19 -0.25,-10.06 -4.93,-18.57 -11.85,-21.48 -23.9,-42.92 -37.76,-62.83 -7.01,-10.06 -14.77,-18.41 -20.87,-28.98 9.16,4.79 12.64,11.54 20.53,18.18l50.13 45.58c19.11,19.25 31.34,21.61 42.26,53.57 5.5,16.11 10.22,25.75 24.17,33.29 3.03,1.63 10.82,4.03 12.66,7.42l19.67 159.13c-28.28,13.93 -32.44,17.58 -69.92,17.29 -31.12,-0.25 -48.52,5.01 -56.36,30.78 21.32,-4.29 31.5,-8.35 56.37,-6.83 33.27,2.03 52.69,1.4 84.49,-6.05l50.83 6.83c11.13,4.31 11.02,5.15 24.68,6.09 -0.62,-39.23 -22.9,-25.61 -53.37,-49.42l-1.3 -46.7c30.28,6.24 34.7,8.27 62.27,-4.47 -5.25,-3.52 -21.62,-6.83 -29.45,-10.44 -10.61,-4.9 -16.12,-9.03 -24.1,-15.72 -12.87,-10.79 -9.55,-7.21 -10.09,-29.61 -0.59,-24.49 -5.27,-49.04 4.32,-70.47 3.98,-8.89 10.28,-15.89 13.11,-25.35 4.22,-14.13 -3.51,-23.56 -1.25,-34.58 1.86,-9.06 15.82,-11.79 25.98,-12.63 -2.77,-29.03 -4.88,-31.2 24.18,-37.83 -0.1,-51.4 -1.66,-34.52 40.97,-53.14 23.28,-10.17 42.58,-21.08 63.34,-33.95 9.53,-5.91 21.02,-13.83 29.21,-20.33 5.19,-4.13 8.22,-6.42 13.23,-10.62 4.19,-3.51 8.41,-7.75 12.74,-11.23 14.08,-11.31 36.93,-33.96 46.35,-48.65 -35.88,11.06 -45.65,19.94 -93.9,31.36 -173.83,41.12 -346.3,-14.48 -470.85,-128.75 -26.48,-24.29 -92.98,-105.87 -105.06,-145.43 10.08,9.93 18.1,23.76 27.44,34.8l28.5 32.19c13.36,13.99 32.01,30.05 48.43,44.05 5.89,5.01 10.22,8.5 16.92,13.41 136.61,100 309.72,138.29 479.21,94.68 21.34,-5.49 75.79,-22.16 89.26,-32.4 -20.81,-0.29 -42.53,2.4 -64.16,1.84 -57.43,-1.46 -116.88,-8.75 -171.57,-23.38 -44.42,-11.88 -151.06,-49.93 -183.14,-77.56 13.48,2.74 32.46,11.19 47.25,15.55 16.45,4.86 31.84,9.33 48.66,13.58 70.33,17.77 144.12,27.13 217.31,28.01 22.18,0.26 99.79,-0.75 115.91,-6.47 -11.6,-4.43 -25.25,-7.54 -37.04,-11.26 -12.98,-4.1 -24.17,-8.18 -37.03,-12.58 -33.45,-11.44 -182.07,-72.8 -201.64,-92.39 10.12,2.56 22.3,8.08 33.18,12.02z"/>
 </g>
</svg>
