<?xml version="1.0" encoding="UTF-8"?>
<!DOCTYPE svg PUBLIC "-//W3C//DTD SVG 1.1//EN" "http://www.w3.org/Graphics/SVG/1.1/DTD/svg11.dtd">
<!-- Creator: CorelDRAW 2019 (64 Bit) -->
<svg xmlns="http://www.w3.org/2000/svg" xml:space="preserve" width="210mm" height="297mm" version="1.1" style="shape-rendering:geometricPrecision; text-rendering:geometricPrecision; image-rendering:optimizeQuality; fill-rule:evenodd; clip-rule:evenodd"
viewBox="0 0 21000 29700"
 xmlns:xlink="http://www.w3.org/1999/xlink">
 <defs>
  <style type="text/css">
   <![CDATA[
    .fil0 {fill:black}
   ]]>
  </style>
 </defs>
 <g id="Camada_x0020_1">
  <metadata id="CorelCorpID_0Corel-Layer"/>
  <g id="_853376240">
   <path class="fil0" d="M10341.49 15588.96c17.88,-11.99 129.33,-52.01 152.37,-50.86 24.64,1.23 128.28,39.31 146.34,51.18 -97.18,15.71 -201.73,15.34 -298.71,-0.32zm-305.56 -1143.87c103.55,-7.43 228.63,-1.41 334.53,-1.41 161.57,0 204.33,30.06 256.36,-79.25 -117.78,1.27 -658.9,-15.32 -716.28,13.6 -15.98,64.03 31.24,77.09 72.48,126.12 133.29,158.46 298.51,321.96 442.01,477.1 32.63,27.4 28.19,22.9 27.83,76.17 -0.91,137.02 -0.21,274.08 -0.21,411.1 -73.74,17.47 -169.62,55.63 -246.16,81.58 -38.74,13.15 -89.43,50.99 -30.73,81.53 22.27,11.59 102.1,25.79 130.48,30.32 147.79,23.54 296.97,19.28 443.34,-13.52 58.34,-13.07 86.43,-10.2 75.52,-76.43 -38.94,-20.13 -244.68,-93.53 -295.71,-104.46 0.09,-139.13 -0.53,-278.51 0.06,-417.58 0.21,-48.8 2.41,-48.87 30.95,-72.34 115.14,-123.83 230.28,-245.62 346.9,-367.69l146.78 -159.74c21.31,-24.01 31.66,-33.77 19.97,-74.53 -39.48,-14.1 -164.73,-13.41 -218.34,-7.03 -21,22.69 -41.08,49.95 -55.41,74.8l150.11 3.61c-39.88,32.5 -69.63,84.69 -113.2,121.83l-339.2 366.61c-26.31,-9.88 -21.75,-9.32 -39.96,-31.13 -142.53,-152.06 -281.71,-305.28 -422.12,-459.26z"/>
   <path class="fil0" d="M10641.43 14547.35c16.14,-32.41 75.16,-98.47 101.8,-130.8 75.72,-91.84 58.19,-102.25 115.14,-110.14 68.08,-9.43 94.79,-55.05 91.49,-127.38 -1.88,-41.19 21.33,-43.37 39.61,-71.55 15.8,-24.35 10.7,-69.58 -30.22,-52.44 -24.72,10.37 -36.11,48.58 -56.65,61.5 -18.65,11.74 -119.8,4.69 -127.01,104.5 -4.02,55.59 23.07,31.15 -16.98,79.58 -25.71,31.08 -189.2,243.79 -205.79,247.87l-340.18 1.4c21.61,30.35 38.23,47.45 70.47,77.13l209.76 223.51 280.03 -302.21 -131.47 -0.97z"/>
  </g>
 </g>
</svg>
