<?xml version="1.0" encoding="UTF-8"?>
<!DOCTYPE svg PUBLIC "-//W3C//DTD SVG 1.1//EN" "http://www.w3.org/Graphics/SVG/1.1/DTD/svg11.dtd">
<!-- Creator: CorelDRAW 2019 (64 Bit) -->
<svg xmlns="http://www.w3.org/2000/svg" xml:space="preserve" width="210mm" height="297mm" version="1.1" style="shape-rendering:geometricPrecision; text-rendering:geometricPrecision; image-rendering:optimizeQuality; fill-rule:evenodd; clip-rule:evenodd"
viewBox="0 0 21000 29700"
 xmlns:xlink="http://www.w3.org/1999/xlink">
 <defs>
  <style type="text/css">
   <![CDATA[
    .fil0 {fill:black}
   ]]>
  </style>
 </defs>
 <g id="Camada_x0020_1">
  <metadata id="CorelCorpID_0Corel-Layer"/>
  <g id="_711647552">
   <path class="fil0" d="M10993.78 14867.64l3.55 -27.55 14.91 13.74c78.82,52.2 63.13,153.65 -48.69,170.74 13.09,-55.11 29.54,-96.64 30.23,-156.93zm-920.02 -149.87c45.62,-94.07 170.25,-78.98 259.74,-123.3 -11.83,-26.1 -26.17,-43.8 -38.96,-75.05 -188.18,29.58 -312.66,86.62 -313.71,274.08 -3.37,597.63 682.1,776.81 939.6,314.82 116.12,4.31 201.19,-44.15 219.81,-141.17 28.44,-148.11 -120.29,-203.3 -135.23,-221.31 -24.86,-29.99 13.35,-99.44 -132.77,-170.33 -75.31,-36.57 -154.93,-53.9 -245.74,-65.69 3.93,91.71 56.43,95.58 93.23,103.74 51.03,11.32 107.12,32.46 144.45,55.12 120.35,73.07 -24.79,156.83 -232.88,185.43l-0.04 0.02c-25.72,14.19 -71.83,33.4 -68.95,85.53 2.08,37.82 -3.48,71.6 -26.82,86.61 -55.26,35.48 -82.91,-27.12 -79.93,-74.96 2.5,-40.02 -23.6,-88.14 -23.6,-88.14l-0.04 -0.04c-85.42,-3.95 -171.13,-18.45 -246.43,-47.01 -50.3,-19.11 -105.94,-37.86 -111.73,-98.35z"/>
   <path class="fil0" d="M10370.27 14129.75c34.35,93.84 148.16,116.12 -8.24,258 -37.22,33.77 -60.07,82.12 -28.34,147.48 13.4,27.58 63.96,91.35 102.09,96.72 71.9,-61.13 -9.68,-78.41 13.58,-165.48 14.91,-55.83 71.53,-70.78 96.01,-122.9 54.12,-115.28 -98.39,-253.23 -175.1,-213.82z"/>
   <path class="fil0" d="M10463.58 14765.21c73.53,42.05 187.81,-40.55 180.89,-122.55 -4.78,-56.29 -43.66,-58.63 -48.88,-115.11 -2.33,-25.12 88.11,-201.56 -31.62,-127.99 -11.38,6.95 -36.38,25.83 -47.66,38.08 -89.04,96.68 52.42,141.58 24.36,233.23 -21.03,68.66 -54.09,47.86 -77.09,94.34z"/>
   <path class="fil0" d="M9843.56 15338.29c-117.52,-89.34 -42.74,-184.24 63.17,-220.1 -10.94,-37.71 -22.21,-50.72 -34.01,-97.36 -253.5,110.64 -288,352.37 86.66,486.35 713.64,207.43 1692.77,-69.86 1223.78,-441.04l-29.2 97.14c20.2,23.9 50.08,45.84 43.99,94.67 -2.34,18.84 -12.4,36.99 -22.31,48.53 -213.26,249.23 -1096.62,210.8 -1332.08,31.81z"/>
  </g>
 </g>
</svg>
