<?xml version="1.0" encoding="UTF-8"?>
<!DOCTYPE svg PUBLIC "-//W3C//DTD SVG 1.1//EN" "http://www.w3.org/Graphics/SVG/1.1/DTD/svg11.dtd">
<!-- Creator: CorelDRAW 2019 (64 Bit) -->
<svg xmlns="http://www.w3.org/2000/svg" xml:space="preserve" width="210mm" height="297mm" version="1.1" style="shape-rendering:geometricPrecision; text-rendering:geometricPrecision; image-rendering:optimizeQuality; fill-rule:evenodd; clip-rule:evenodd"
viewBox="0 0 21000 29700"
 xmlns:xlink="http://www.w3.org/1999/xlink">
 <defs>
  <style type="text/css">
   <![CDATA[
    .fil0 {fill:black}
   ]]>
  </style>
 </defs>
 <g id="Camada_x0020_1">
  <metadata id="CorelCorpID_0Corel-Layer"/>
  <path class="fil0" d="M10608.8 15496.16c43.87,-43.77 76.48,-64.46 124.29,-115.64 31.51,-33.75 75.49,-88.93 104.65,-135.82 108.81,-174.93 82.73,-228.28 115.24,-363.66 11.2,157.26 -20.42,274.73 -93.7,385.14 -57.39,86.45 -147.57,188.06 -250.48,229.98zm10.65 -221.77c3.2,-71.09 138.74,-323.61 175.51,-433.05 13.12,-39.09 34.67,-120.58 54.35,-150.75 4.51,125.18 -36.48,231.78 -79.7,330.44l-109.88 201.2c-10.95,16.29 -33.24,39.71 -40.28,52.16zm-395.4 -153.74c-42.87,-125.2 42.23,-305.76 123.87,-387.18 16.72,-16.67 20.59,-13.99 32.43,-31.39 -15.15,37.48 -66.92,108.76 -98.31,184.81 -33.94,82.21 -49.31,136.46 -57.99,233.76zm130.3 448.93c16.84,-223.34 -40.28,-468.83 48.7,-590.38 -25.19,134.9 -34.81,162.18 -24.68,314.33 21.67,-57.96 9.05,-140.2 61.74,-269.7 65.09,-159.98 164.18,-216.32 251.59,-413.04 28.33,-63.71 84.04,-187.73 139.97,-191.58 -67.2,53.85 -103.95,191.71 -132.96,262.42 -41.57,101.33 -104.44,170.43 -157.23,252.85 -169.48,264.61 -97.82,511.85 -187.13,635.1zm339.23 -1133.63c-50.57,56.84 -78.01,125.89 -113.74,197.38 -71.56,143.2 -234.64,253.86 -260.19,460.91 -16.72,135.51 14.89,214.66 13.51,333.76 -32.84,-65.65 -50.78,-249.4 -41.57,-334.01 23.86,-219.3 185.82,-330.66 267.8,-473.95 33.53,-58.61 100.22,-191.83 161.14,-224.67 3.19,-2.28 7.96,-5.46 11.84,-6.21 11.27,-2.9 17.52,-0.4 17.52,-0.4l-21.41 16.66 -34.9 30.53zm-1007.43 438.33l-2.78 17.23 19.5 -1.19c96.56,-8.88 371.52,0.31 432.44,-28.63 18.71,-13.43 49.7,-108.28 117.58,-180.83 121.6,-129.98 125.34,-93.03 222.06,-215.87 25.65,-32.57 38.48,-45.21 67.7,-73.78 69.57,-68.06 80.79,-92.94 137.29,-154.99l173.41 7.98 -25.14 65.45c-90.57,-1.07 -152.98,32.27 -200.54,74.74 -50.93,45.45 -89,89.19 -132.4,143.27 -67.68,84.38 -154.51,110.16 -250.31,294.04 -77.94,149.62 -93.65,267.14 -53.02,449.66 15.46,69.43 41.4,147.05 69.63,205.5 14.94,30.97 30.26,59.76 44.04,90.09 15.36,33.78 15.36,69.14 38.25,95.87 17.21,8.89 247.92,-104.5 275.62,-120.27 80.78,-45.97 169.74,-118.41 220.92,-175.21 159.07,-176.48 163.85,-352.18 150.75,-634.13 -30.31,40.1 -0.13,27.21 -69.06,105.1 14.71,-68.95 69.59,-166.93 74.31,-282.25 6.41,-156.88 -102.93,-213.33 -116.55,-232.49 8.4,-27.94 22.26,-61.27 40.57,-78.73 19.89,-12.42 252.64,-15.62 380.37,-83.83 10.93,-56.56 -37.21,-108.35 -76.6,-123.28 -28.4,8.21 -72.52,38.05 -106.64,51.95 -36.01,14.66 -73.27,26.36 -112.74,35.6 -85.06,19.89 -176.9,28.61 -268.49,27.04 -225.37,-3.86 -305.44,-44.4 -497.82,-102.63l-19.09 64.45c57.29,16.74 120.68,46.78 186.52,66.63l183.93 42.38c21.94,7.62 6.61,-0.27 19.06,10.46 -39.56,40.72 -64.3,89.09 -105.66,115.61 -295.28,-101.9 -536.12,-18.09 -704.42,224.24 -39.54,56.93 -91.68,156.03 -102.91,238.34l126.08 -109.35c16.47,-12.65 130.99,-79.44 134.6,-86.42l-82.37 -3.6c26.64,-10.51 54.2,-7.65 85.16,-6.64 44.81,1.46 134.33,-40.67 206.25,-63.05 -44.65,-31.04 -111.47,-19.72 -163.58,-32.17 142.31,-9.15 152.5,24.51 203.48,18.79 45.44,-5.1 129.77,-46.26 164.49,-62.25 -6.75,-7.9 -2.61,-4.36 -12.07,-11.82 -4.11,-3.24 -9.38,-6.44 -13.39,-8.62 -4.37,-2.37 -18.76,-8.26 -24.65,-10.52 -63.66,-24.3 -139.12,-22.82 -201.34,-32.79 14.98,5.23 75.47,-5.13 149.81,7.17 130.08,22.38 82.85,83.65 196.49,-7.68 -48.25,71.43 -113.6,105.15 -211.9,143.86 -94.95,37.38 -95.9,115.8 -150.75,206.9 -0.69,-64.68 49.97,-123.59 69.61,-174.84 -35.33,8.77 -146.17,47.23 -162.72,70.4 -9.3,12.99 -65.4,138.07 -67.44,151.07 -2.76,-53.73 23.24,-99 37.46,-143.16 -107.78,38.82 -241.78,146.77 -293,217.2z"/>
 </g>
</svg>
