<?xml version="1.0" encoding="UTF-8"?>
<!DOCTYPE svg PUBLIC "-//W3C//DTD SVG 1.1//EN" "http://www.w3.org/Graphics/SVG/1.1/DTD/svg11.dtd">
<!-- Creator: CorelDRAW 2019 (64 Bit) -->
<svg xmlns="http://www.w3.org/2000/svg" xml:space="preserve" width="210mm" height="297mm" version="1.1" style="shape-rendering:geometricPrecision; text-rendering:geometricPrecision; image-rendering:optimizeQuality; fill-rule:evenodd; clip-rule:evenodd"
viewBox="0 0 21000 29700"
 xmlns:xlink="http://www.w3.org/1999/xlink">
 <defs>
  <style type="text/css">
   <![CDATA[
    .fil0 {fill:black}
   ]]>
  </style>
 </defs>
 <g id="Camada_x0020_1">
  <metadata id="CorelCorpID_0Corel-Layer"/>
  <path class="fil0" d="M9787.89 15363.48c7.51,-0.71 47.89,8.47 53.29,11.3l39.65 8.61c6.07,2.16 2.71,0.83 4.94,2.33 11.28,-1.47 27.82,3.99 38.33,6.4 17.91,2.84 176.04,29.19 177.77,30.46 8.68,-0.92 16.99,0.69 25.51,2.13 11.2,0.94 53.61,3.73 59.62,8.05 14.06,-1.79 55.09,3.8 72.11,5.25 24.36,2.06 48.57,3.83 72.97,5.03 157.56,7.77 287.3,5.28 445.32,-9.74l52.69 -5.48c7.37,-1.39 14.71,-2.65 22.58,-1.34 7.82,-5.24 36.72,-6.53 48.54,-7.66l158.11 -24.93c5.66,-3.78 8.45,-3.3 23.1,-6.25 8.89,-1.79 16.92,-3.72 26.06,-5.08 7.24,-3.09 18.75,-5.16 27.08,-4.67 10.04,-8.84 47.94,-10.23 63.57,-17.09l-0.99 -28.41 -0.35 -39.67c11.99,3.8 24.37,18.77 33.73,28.36 6.47,6.63 23.19,22.59 19.16,39.31 -4.15,17.22 -45.69,46.03 -66.54,54.06 -17.35,10.41 -58.47,26.23 -81.03,32.74 -15.07,5.09 -60.33,20.96 -74.19,20.54 -8.32,6.9 -37.57,11.48 -50.47,13.49 -7.48,3.14 -18.38,5.14 -26.99,4.75 -7.93,6.33 -41.18,9.92 -53.65,11.27 -12.28,4.74 -138.71,22.16 -153.17,19.45 -8.86,5.64 -41.52,5.53 -54.74,6.21l-12.69 -0.28c-9.67,5.95 -49.97,4.58 -64.52,5.04 -8.42,0.43 -14.36,1.47 -22.07,-0.69 -0.47,0.25 -1.13,0.47 -1.49,0.58 -0.37,0.11 -1.08,0.41 -1.55,0.53 -0.49,0.12 -1.08,0.32 -1.64,0.44 -0.6,0.12 -1.12,0.22 -1.78,0.32l-22.29 0.71c-9.35,0.2 -18.71,0.34 -28.06,0.51l-41.4 0.34 -39.89 -0.36 -28.83 -0.6c-11.63,-0.17 -23.46,-0.69 -34.83,-1.15 -6.02,-0.25 -12.07,-0.34 -18.08,-0.57l-9.83 -0.94c-0.56,-0.12 -1.27,-0.4 -1.71,-0.51 -0.43,-0.1 -1.32,0.06 -1.62,-0.6 -0.3,-0.66 -1.08,-0.38 -1.58,-0.66 -7.4,2.31 -19.5,1.01 -26.53,-0.06 -12.21,-0.37 -34.68,1.25 -43.55,-4.28 -11.46,2.02 -26.51,-0.34 -37.57,-2.02 -25.46,-1.7 -159.62,-15.18 -171.53,-24.52 -8.66,0.79 -16.89,-1.42 -25.03,-3.6 -10.05,-1.21 -19.28,-3.54 -28.77,-5.49 -7.47,-1.54 -18.19,-2.48 -24.27,-6.98 -8.65,0.78 -20.45,-2.44 -28.24,-5.66 -21.29,-3.4 -70.88,-17.66 -87.67,-25.08 -13.52,-3.41 -72.15,-25.86 -78.96,-32.11 -22.77,-6.92 -65.07,-36.21 -69.81,-55.72 -4.23,-17.42 12.26,-31.31 19.82,-38.53 5.37,-5.12 9.41,-9.71 15.24,-15.19 4.64,-4.36 10.52,-11.03 17.98,-12.12 1.17,18.96 -2.93,54.96 0.74,69.83zm420.76 -483.31c-11.76,8.99 -25.67,18.24 -38.11,28.32 -19.89,16.11 -50.97,44.92 -67.35,64.81l-28.98 34.79c-3.57,9.91 -19.74,31.71 -26.64,43.66 -4.64,8.03 -19.61,39.97 -25.22,44.08 -0.75,12.08 -9.71,24.81 -15.12,37.54 -2.9,6.81 -11.19,32.63 -14.04,36.45 -3.25,16.05 -17.95,75.05 -25.37,82.63 -10.66,10.89 -27.86,7.81 -37.01,-2.28 -10.22,-11.26 -8.15,-31.95 -2.39,-40.03 -1.57,-11.58 4.76,-28.77 8.33,-38.89l32.35 -85.34c0.54,-10.41 13,-29.96 18.2,-39.58 4.24,-7.85 15.95,-32.23 21.62,-35.02 12.14,-28.87 72.82,-98.19 99.67,-122.04 21.22,-18.84 75.94,-63.3 98.83,-69.78 20.5,-0.1 29.92,7.59 30.68,27.61 -1.25,12.62 -3.93,14.8 -11.11,20.4 -6.11,4.77 -11.16,8.82 -18.34,12.67zm286.67 -84.74c-7.56,5.12 -32.51,5.09 -42.8,5.76 -9.25,0.53 -22.01,3.28 -29.69,0.54l-10.68 3.42c-28.43,4.83 -52.45,12.68 -61.75,-0.01 -8.95,-3.91 -12.02,-19.34 -9.35,-28.7 9.5,-33.3 154.74,-35.01 166.8,-26.12 20.66,15.22 9.9,47.99 -12.53,45.11zm-83.36 -160.72c-1.7,-9.3 2.84,-25.37 7.37,-30.63 4.55,-15.38 20.33,-33.36 34.15,-37.85 2.92,-3.4 2.88,-3.41 8.15,-3.47 5.29,-5 10.96,-5.96 18.48,-7.07 14.03,-2.06 27.81,-0.65 41.1,4.52 8.29,3.23 10.41,4.06 14.24,9.01 11.54,2.07 26.35,19.48 27.41,30.31 8.71,6.6 11.81,26.72 11.92,39.54l-161.24 0.01c-4.88,-2.19 -0.73,1.44 -2.58,-2.15 -4.44,-8.63 -0.68,0.81 1,-2.22zm43.24 -129.74c-1.5,1.21 -1.68,1.42 -4.41,2.91 -3.37,1.83 -0.83,0.54 -4.47,1.99 -46.52,18.51 -67.46,44.92 -84.43,93.39 -2.15,10.02 -3.49,40.17 -5.22,44.26 -6.64,5.44 -21.72,6 -32.02,8.65 -10.48,2.69 -21,7.67 -30.47,7.1 -0.43,0.36 -1.06,0.77 -1.4,0.97l-21.06 8.2c-8.13,2.88 -16.23,6 -24.8,8.04 -2.19,2.23 -31.09,12.98 -36.87,15.55 -11.58,5.14 -25.59,14.48 -37,15.51 -5.03,6.71 -35.25,21.35 -44.6,26.94l-36.88 23.99c-4.89,2.36 -0.5,1.09 -6.38,1.96 -2.59,7.17 -33.48,28.4 -40.27,32.06 -0.17,0.35 -0.53,0.8 -0.65,0.96l-32.39 29.64c-11.56,10.31 -21.42,19.83 -31.85,31.13l-58.21 67.76c-5.13,11.6 -19.64,30.64 -27.84,43.31 -4.93,7.62 -20.22,37.4 -25.8,42.08 -0.47,7.56 -12.67,29.31 -17.11,38.96 -3.41,7.41 -13.34,34.35 -16.59,38.21 -2.21,9.83 -11.48,40.19 -17.15,46.45 0.28,5.76 -15.73,67.42 -18.37,77.74 -2.46,11.5 -7.75,12.05 -17.07,18.34 -6.96,4.69 -14.66,10.29 -22.65,13.8 -2.06,4.09 -21.73,17.89 -27.45,23.5 -4.74,4.64 -8.89,8.05 -13.55,12.87 -3.9,4.03 -7.03,9.32 -11.88,10.51 -11.71,19.78 -26.83,29.75 -26.27,65.01 0.22,13.72 2.97,24.69 9.72,34.89 5.78,8.71 15.54,17 19.42,23.77 5.04,3.26 7.14,5.44 10.02,10.9 7.61,2.98 13.48,9.26 21.13,14.3 7.18,4.74 12.95,8.65 21.21,13.34 8.68,4.92 39.34,18.2 43.55,23.69l77.66 26.79c27.44,7.67 53.74,15.38 82.04,22.4 14.27,3.54 77.63,14.38 84.41,19.76 11.05,-0.75 24.78,2.19 35.11,5.16l44.02 7.22c0.51,0.18 1.2,0.55 1.61,0.71 0.41,0.16 1.1,0.44 1.6,0.76 8.65,-1.83 27.37,0.76 34.63,3.32 27.92,2.04 57.63,6.14 86.07,9.08 16.52,1.72 77.13,3 86.09,7.98l10.14 -0.93 82.2 4.79c6.96,-2.6 13.49,-1.45 21.8,-1.39l39.89 0.35 41.4 -0.35 56.5 -1.4c7.95,-0.31 10.6,-1.23 17.87,0.89l46.74 -3.76 19.48 -0.04c0.74,-0.46 169.94,-19.42 186.17,-20.87 9.43,-2.03 21.11,-4.63 30.76,-3.51 6.91,-4.98 44.89,-9.82 56.62,-11.33l32.01 -6.7 83.03 -19.73c5.91,-3.45 26.75,-9.57 34.88,-9.16l86.9 -33.53c5.06,-4.56 30.03,-15.12 39.02,-20.34 11.6,-6.74 28.53,-20.52 37.77,-22.65 3.63,-7.3 12.83,-13.87 18.86,-17.15 3.91,-11.64 41.44,-42.26 17.11,-93.93 -4.52,-9.59 -13.17,-17.41 -15.13,-24.58 -12.86,-7.79 -18.5,-17.28 -29.83,-27.93 -6.82,-6.4 -25.29,-17.89 -29.94,-25.66 -6.78,-1.29 -10.1,-5.06 -17.65,-10.09 -5.58,-3.72 -11.45,-7.96 -17.43,-10.71l0.76 -6.24 -22.82 -85.7c-3.36,-5.61 -11.65,-29.7 -11.66,-36.22 -0.37,-0.41 -0.8,-1.01 -1.01,-1.32l-5.13 -9.81c-1.62,-3.92 -2.6,-6.28 -4.14,-10.08l-29.23 -63.65c-6.73,-6.68 -16.65,-27.67 -23.42,-38.11 -4.67,-7.2 -8.35,-13.24 -12.75,-19.8 -4.36,-6.5 -10,-12.06 -11.18,-18.72 -6.51,-3.77 -5.85,-4.86 -9.06,-11.58 -5.31,-2.78 -8.72,-9.61 -12.39,-14.26 -2.61,-3.3 -3.8,-4.71 -6.41,-7.9 -5.44,-6.67 -3.32,-0.79 -4.87,-8.27l-97.7 -96.93c-6.49,-1.95 -27.29,-18.71 -33.64,-24.09 -5.45,-3.01 -3.99,-2.68 -6.22,-5.76 -5.05,-1.1 -30.87,-18.91 -38.21,-23.54 -7.23,-4.55 -34.64,-18.94 -38.54,-22.84l-86.28 -38.67c-6.75,0.45 -31.08,-7.67 -36.3,-11.46 -12.5,-2.21 -61.23,-14.43 -69.03,-19.08l-4.75 -43.58c-9.15,-28.28 -16.3,-41.67 -33.18,-59.62 -8.07,-8.59 -14.6,-14.44 -25.38,-21.36 -7.79,-5.01 -24.95,-11.4 -29.56,-14.87 -19.91,-3.77 -28.33,-6.42 -50.78,-6.2l-29.47 3.51z"/>
  <path class="fil0" d="M10766.05 14313.2c1.63,1.46 18.38,26.01 19.93,29.06 18.43,36.24 3.05,62.04 -16.7,88.02l-11.23 12.11c-0.72,5.09 0.61,0.58 -2.46,6.69 -16.57,33.01 -9.45,27.96 -16.28,44.08 -2.02,25.77 -2.12,44.53 7.7,66.88 3.59,8.17 8.16,16.83 12.77,23.75 2.38,3.57 5.34,7.25 7.99,10.22l7.03 8.17c0.18,-0.36 0.71,0.92 1.03,1.4l-0.58 -0.66c39.16,13.85 46.24,-16.72 43.19,-26.9 -4.2,-14.02 -14.66,-14.27 -26.19,-53.16 1.08,-25.74 -2.81,-27.56 10.96,-48.48 8.13,-12.36 17.19,-22.16 25.94,-34.65 9.43,-19.55 16.88,-32.7 18.2,-58.33 1.58,-30.7 -6.14,-41.04 -13.18,-65.02 -2.57,-2.05 -11.11,-16.1 -14.4,-20.17 -12.18,-15.05 -27.04,-24.81 -44.51,-10.33 -9.42,7.8 -8.5,13 -9.21,27.32z"/>
  <path class="fil0" d="M10194.82 14358.53c4.07,19.47 2.05,34.09 -6.89,49.22 -4.41,7.46 -19.29,28.75 -24.43,31.32 -2.94,8.46 -7.31,13.05 -11.51,22.17 -1.89,4.13 -2.9,7.24 -4.51,11.58 -2.23,5.98 -1.73,6.11 -4.95,10.04 2.15,28.97 -13.21,65.31 30.71,112.4 12.06,12.93 12.38,11.92 32.6,12.34 1.77,-2.23 0.54,-1.58 3.32,-3.66 5.89,-4.4 0.71,-1.05 6.24,-3.35 1.28,-5.83 6.3,-9.38 6.67,-18.35 0.36,-9.04 -3.6,-10.07 -4.82,-17.8 -0.43,-0.33 -0.99,-0.8 -1.27,-1.05l-2.39 -2.15c-23.18,-23.54 -24.61,-55.31 -8.43,-85.42 15.61,-29.07 20.83,-11.91 42.77,-75.76l3.52 -36.53 -2.79 -8.34c-4.12,-17.79 -3.91,-23.47 -14.22,-42.62 -33.81,-62.74 -73.57,-21.98 -63.14,2.11 4.68,10.8 17.56,20.78 23.52,43.85z"/>
  <path class="fil0" d="M10472.47 14157.86c6.61,4.49 18.25,27.49 21.32,39 3.77,12.88 1.03,31.06 -4.06,40.64 -6.05,16.42 -16.74,26.27 -25.68,37.94 -11.69,15.27 -11.71,22.96 -20.28,38.9 -3.13,18.4 -5,26.04 -4.22,46.72l7.64 37.16c4.8,4.13 7.3,11.28 10.38,16.41 3.17,5.3 7.03,9.97 10.38,13.95 6.95,8.27 16.55,19.54 33.72,16.85l8.18 -3.76c10.94,-18.57 14.58,-18.53 2.45,-41.92 -8.07,-9.19 -16.26,-23.32 -18.49,-40.71 -2.3,-13.73 0,-34.37 10.03,-42.43 0.73,-4.84 -0.46,-1.17 1.84,-5.67 1.06,-2.08 1.83,-2.77 3.35,-4.69 2.75,-3.47 4.22,-5.05 7.31,-9.01 4.43,-5.7 7.83,-11.13 12.35,-18.09 8.12,-12.52 15.45,-25.64 18.4,-42.41l0.62 -46.35c-2.05,-13.86 -8.33,-24.03 -9.32,-32.91 -7.11,-5.7 -11.24,-16.69 -16.4,-22.74 -30.13,-35.27 -62.15,-15.46 -49.52,23.12z"/>
 </g>
</svg>
