<?xml version="1.0" encoding="UTF-8"?>
<!DOCTYPE svg PUBLIC "-//W3C//DTD SVG 1.1//EN" "http://www.w3.org/Graphics/SVG/1.1/DTD/svg11.dtd">
<!-- Creator: CorelDRAW 2019 (64 Bit) -->
<svg xmlns="http://www.w3.org/2000/svg" xml:space="preserve" width="210mm" height="297mm" version="1.1" style="shape-rendering:geometricPrecision; text-rendering:geometricPrecision; image-rendering:optimizeQuality; fill-rule:evenodd; clip-rule:evenodd"
viewBox="0 0 21000 29700"
 xmlns:xlink="http://www.w3.org/1999/xlink">
 <defs>
  <style type="text/css">
   <![CDATA[
    .fil0 {fill:black}
   ]]>
  </style>
 </defs>
 <g id="Camada_x0020_1">
  <metadata id="CorelCorpID_0Corel-Layer"/>
  <path class="fil0" d="M10599.2 14572.54c-10.3,244.88 -75.53,434.85 -80.45,797.15 -168.11,48.16 -253.14,39.57 -420.68,0.84 -2.19,-353.94 -67.23,-546.37 -77.48,-797.55l578.61 -0.44zm-290.17 1096.88c227.54,0 296.17,34.08 297.94,-72.28 3.28,-195.49 -7.6,-327.1 19.53,-533.04 11.97,-90.83 79.76,-501.77 64.49,-559.7 -50.11,-40.59 -408.09,-21.76 -495.87,-21.76 -351.12,0 -287.34,-128.72 -191.26,682.55 13.96,117.87 -14,412.55 14.62,493.56 57.65,20.67 215.44,10.67 290.55,10.67z"/>
  <path class="fil0" d="M10170.16 15316.63c64.86,17.27 210.12,30.85 267.16,-1.06 15.53,-13.65 8.83,-102.43 12.83,-139.58l52.14 -397.04 -386.06 -0.52c20.08,183.46 54.6,351.85 53.93,538.2z"/>
  <path class="fil0" d="M11132.67 14506.57l0 -121.76c-18.97,-40.79 -23.51,-88.83 -47.8,-133.8 -189.61,-351.11 -732.21,-209.75 -735.99,158.02l86.93 1.51c58.84,-288.79 341.23,-358.65 529.82,-171.85 74.86,74.16 103.11,219.71 46.1,334.48 -49.44,99.52 -130.89,153.28 -272.76,171.48l-9.5 87.16c154.81,-0.81 274.31,-72.4 348.55,-192.54 24.74,-40.04 32.48,-93.73 54.65,-132.7z"/>
  <path class="fil0" d="M10770.13 14670.32c33.92,8.65 79.08,-12.87 108.2,-37.72 -6.67,-31.99 -77.06,-98.07 -104.9,-106.75 -15.38,31.99 -12.26,112 -3.3,144.47z"/>
  <path class="fil0" d="M10506 14409.17c42.56,3.96 108.8,10.77 145.26,-4.39 -8.04,-28.97 -78,-97.49 -105.65,-105.37 -26.02,28.11 -45.39,67.35 -39.61,109.76z"/>
  <path class="fil0" d="M10598.52 14247.06c9.53,28.22 27.6,38.18 47.22,57.59 19.36,19.16 32.22,44.64 64.07,46.34l1.09 -144.38c-45.59,-4.32 -83.99,13.76 -112.38,40.45z"/>
  <path class="fil0" d="M10828.95 14410.1l141.87 -0.02c7.51,-40.95 -15.76,-86.53 -39.68,-111.13 -28.65,10.63 -38.35,27.86 -58.29,47.62 -19.5,19.32 -45.79,31.22 -43.9,63.53z"/>
  <path class="fil0" d="M10765.76 14349.94c37.44,1.04 106.24,-81.95 113.35,-102.88 -24.79,-23.08 -70.14,-45.99 -110.18,-39.54l-3.17 142.42z"/>
  <path class="fil0" d="M10931.14 14579.62c27.11,-28.2 45.02,-66.59 40.92,-110.35l-144.21 -1.68c1.37,30.41 21.83,40.14 41.91,59.86 20.76,20.38 32.4,40.4 61.38,52.17z"/>
 </g>
</svg>
