<?xml version="1.0" encoding="UTF-8"?>
<!DOCTYPE svg PUBLIC "-//W3C//DTD SVG 1.1//EN" "http://www.w3.org/Graphics/SVG/1.1/DTD/svg11.dtd">
<!-- Creator: CorelDRAW 2019 (64 Bit) -->
<svg xmlns="http://www.w3.org/2000/svg" xml:space="preserve" width="210mm" height="297mm" version="1.1" style="shape-rendering:geometricPrecision; text-rendering:geometricPrecision; image-rendering:optimizeQuality; fill-rule:evenodd; clip-rule:evenodd"
viewBox="0 0 21000 29700"
 xmlns:xlink="http://www.w3.org/1999/xlink">
 <defs>
  <style type="text/css">
   <![CDATA[
    .fil0 {fill:#010101}
   ]]>
  </style>
 </defs>
 <g id="Camada_x0020_1">
  <metadata id="CorelCorpID_0Corel-Layer"/>
  <path class="fil0" d="M10491.13 14458.74c18.6,-15.8 33.88,-35.99 67.31,-25.43 25.48,8.04 42.29,34.38 34.9,65.65 -11.68,49.35 -114.64,70.49 -102.21,-40.22zm119.2 -374.43c14.19,29.45 19.72,20.92 34.16,70.38 8.93,30.55 17.61,60.24 22.02,90.9 14.57,101.48 -15.58,112.33 -36.75,179.95 -97.49,-20.48 -149.52,-36.31 -201.87,45.71 -57.7,90.38 -14.81,155.51 22.48,215.86 -44.36,-17.63 -70.87,-45.12 -81.54,-105.41 -13.25,-74.79 12.53,-104.82 31.8,-154.47 -151.69,16.04 -456.12,146.17 -541.17,294.22 -44.07,76.71 -26.33,437.64 -21.9,538.47 4.86,110.86 -5.69,126.79 98.67,148.98 184.28,39.16 1164.98,264.89 1210.08,254.05 32.93,-73.42 -29.15,-68.82 -89.99,-82.25 -368.4,-81.33 -788.61,-178.84 -1146.04,-249.66 -11.72,-50.24 -42.23,-155.88 31.2,-152.12 5.66,0.28 32.92,6.67 39.43,8.16l152.16 33.81c5.28,1.24 35.61,8.98 39.57,9.41 11.1,1.25 9.17,1.99 19.9,-0.04 29.2,-5.52 29.26,-28.3 27.08,-86.75 -1.34,-35.69 -1.57,-59.16 -18.07,-83.27 -65.56,-20.82 -243,-42.22 -289.03,-69.03 -14.78,-27.23 -20.82,-67.98 -16.22,-104.33 7.36,-58.17 25.82,-46.3 71.61,-37.88 14.35,29.79 1.59,36.14 32.84,54.13 36.77,21.14 69.28,6.27 76.86,35.36 10.57,40.48 -1.48,85.44 74.98,67.75 19.16,-39.07 0.54,-64.87 32.9,-94.39 78.97,8.74 57.68,158.05 57.62,231.84 -0.06,90.01 -32.57,239.94 78.32,215.2 19.58,-29.66 10.61,-51.89 17.62,-92.47 112.18,19.79 740.4,172.67 790.59,163.46 19.79,-33.34 21.41,-87.28 12.19,-127.75 -6.11,-26.85 -5.25,-23.63 -20.25,-36.69 -50.11,-37.05 -657.38,-130.51 -782.23,-177.93 -12.35,-69.52 -7.12,-92.04 27.88,-135.83 79.23,-12.29 120.06,-2.26 127.36,72.84 2.91,29.9 2.69,56.92 38.06,62.01 39.04,5.61 40.66,-27.63 47.17,-55.27 19.98,-1.47 37.53,2.03 54.33,-0.85 30.94,-5.31 14.09,-4.51 40.91,-25.8l154.69 48c0.86,1.44 2.17,3.77 3.07,5.4 11.23,20.05 10.73,41.55 64.9,55.59 90.37,23.43 69.97,-4.86 106.38,-30.72 48.27,36.92 -0.28,95.77 36.58,129.54 62.56,57.31 56.12,-55.75 56.12,-92.8 5.34,-23.86 20.88,-13.15 52.14,-23 20.89,-78.58 -30.06,-89.92 -70.35,-131.82l-110.61 -114.01c-77.32,-74 -154.82,-143.23 -228.72,-218.97 -18.6,9.78 -23.63,18.15 -46.97,31.56 15.44,-34.69 42.57,-63.37 31.05,-120.58 -10.1,-50.25 -46.18,-71.74 -61,-97.35 45.39,-87.73 50.36,-350.75 -19.38,-407.72 -18.18,12.13 -22.3,19.6 -32.63,46.58z"/>
 </g>
</svg>
