<?xml version="1.0" encoding="UTF-8"?>
<!DOCTYPE svg PUBLIC "-//W3C//DTD SVG 1.1//EN" "http://www.w3.org/Graphics/SVG/1.1/DTD/svg11.dtd">
<!-- Creator: CorelDRAW 2019 (64 Bit) -->
<svg xmlns="http://www.w3.org/2000/svg" xml:space="preserve" width="210mm" height="297mm" version="1.1" style="shape-rendering:geometricPrecision; text-rendering:geometricPrecision; image-rendering:optimizeQuality; fill-rule:evenodd; clip-rule:evenodd"
viewBox="0 0 21000 29700"
 xmlns:xlink="http://www.w3.org/1999/xlink">
 <defs>
  <style type="text/css">
   <![CDATA[
    .fil0 {fill:black}
   ]]>
  </style>
 </defs>
 <g id="Camada_x0020_1">
  <metadata id="CorelCorpID_0Corel-Layer"/>
  <g id="_853379312">
   <path class="fil0" d="M10423.98 14920.9l61.54 286.27c19.93,-27.38 53.89,-114.28 70.49,-152.34 22.06,-50.58 44.39,-105.03 67.67,-155.91 16.56,-36.23 134.71,-295.68 129.91,-311.7l-617.69 267.5 288.08 66.18z"/>
   <path class="fil0" d="M10400.11 14198.86l92.72 -160.58 96.13 171.03c104.98,14.52 205.19,53.59 286.01,118.07l-65.34 76.23c-131.46,-82.01 -253.13,-109.66 -365.53,-99.59 -121.54,10.89 -219.33,56.42 -343.12,161.86l-74.84 -64.98c91.19,-105.88 225.55,-170.14 367.46,-190.77l6.51 -11.27z"/>
   <path class="fil0" d="M10486.99 15651.83l-91.32 -158.17c-103.82,-13.8 -203.09,-52.76 -284.43,-119.1l62.52 -77.05c136.94,81.7 248.63,109.82 365.98,99.86 112.68,-9.56 227.29,-58.1 342.63,-161.41l77.64 63.6c-95.16,104.25 -230.56,170.04 -372.58,191.81l3.49 0 -96.96 172.51 -6.97 -12.05z"/>
   <path class="fil0" d="M9839.94 14943.13l-160.57 -92.72 170.71 -95.95c13.77,-108.33 53.36,-209.97 120.58,-285.68l74.92 64.21c-156.16,232.39 -131.39,505.75 62.48,708.59l-63.25 75.8c-106.25,-84.83 -171.97,-224.15 -192.93,-371.44l0 4.08 -11.94 -6.89z"/>
   <path class="fil0" d="M10877.05 14459.39c99.13,116.63 145.64,192.73 158.99,343.7 13.37,151.23 -19.97,234.34 -96.11,365.18l75.08 64.46c66.28,-77.87 104.79,-178.48 118.57,-284.48l159.34 -92 12.05 -6.96 -172.51 -96.97 0 4.11c-20.72,-149.81 -87.09,-289.91 -190.71,-371.87l-64.7 74.83z"/>
  </g>
 </g>
</svg>
