<?xml version="1.0" encoding="UTF-8"?>
<!DOCTYPE svg PUBLIC "-//W3C//DTD SVG 1.1//EN" "http://www.w3.org/Graphics/SVG/1.1/DTD/svg11.dtd">
<!-- Creator: CorelDRAW 2019 (64 Bit) -->
<svg xmlns="http://www.w3.org/2000/svg" xml:space="preserve" width="210mm" height="297mm" version="1.1" style="shape-rendering:geometricPrecision; text-rendering:geometricPrecision; image-rendering:optimizeQuality; fill-rule:evenodd; clip-rule:evenodd"
viewBox="0 0 21000 29700"
 xmlns:xlink="http://www.w3.org/1999/xlink">
 <defs>
  <style type="text/css">
   <![CDATA[
    .fil1 {fill:#999999}
    .fil0 {fill:#999999}
   ]]>
  </style>
 </defs>
 <g id="Camada_x0020_1">
  <metadata id="CorelCorpID_0Corel-Layer"/>
  <path class="fil0" d="M10410.6 15490.09l80.24 80.4c23.15,-15.83 525.63,-523.44 570.98,-568.78 59.84,-59.84 136.49,-126.93 180,-199.23 94.67,-157.32 85.55,-348.41 -29.22,-500.57 -9.26,-12.28 -13.15,-14.82 -22.11,-26.39 -25.21,-32.55 -97.52,-84.83 -135.58,-102.55 -108.66,-50.6 -210.78,-53 -319.64,-22.57 -31.75,8.88 -108.17,41.94 -124.35,64.95 -33.27,10.09 -86.95,84.95 -119.18,106.16 -24.85,-38.11 -102.58,-101.8 -145.6,-127.69 -166.21,-100.02 -385.47,-75.28 -514.69,44.95 -26.01,24.19 -44.96,46.18 -67.19,72.51 -36.79,66.28 -53.1,71.35 -75.99,172.36 -17.05,75.22 -7.78,157.73 11.64,224.12 36.68,125.43 133.83,201.37 215.38,282.92l121.27 125.68c42.97,42.97 82.7,82.71 125.67,125.68 82.1,82.1 164.65,170.43 248.37,248.05z"/>
  <path class="fil1" d="M10410.9 15487.68l79.94 80.1c23.06,-15.77 523.66,-521.47 568.83,-566.64 59.62,-59.62 135.98,-126.45 179.33,-198.49 94.31,-156.72 85.22,-347.09 -29.11,-498.67 -9.23,-12.24 -13.11,-14.77 -22.03,-26.3 -25.12,-32.43 -97.15,-84.51 -135.07,-102.16 -108.26,-50.42 -209.99,-52.8 -318.44,-22.48 -31.63,8.84 -107.76,41.77 -123.88,64.7 -33.15,10.05 -86.62,84.63 -118.73,105.76 -24.76,-37.97 -102.2,-101.42 -145.06,-127.21 -165.58,-99.65 -384.02,-75 -512.76,44.78 -25.9,24.1 -44.79,46 -66.93,72.24 -36.65,66.03 -52.9,71.08 -75.71,171.71 -16.98,74.94 -7.74,157.14 11.6,223.28 36.55,124.95 133.33,200.61 214.57,281.85l120.81 125.21c42.81,42.81 82.4,82.4 125.21,125.2 81.79,81.8 164.02,169.8 247.43,247.12z"/>
 </g>
</svg>
