<?xml version="1.0" encoding="UTF-8"?>
<!DOCTYPE svg PUBLIC "-//W3C//DTD SVG 1.1//EN" "http://www.w3.org/Graphics/SVG/1.1/DTD/svg11.dtd">
<!-- Creator: CorelDRAW 2019 (64 Bit) -->
<svg xmlns="http://www.w3.org/2000/svg" xml:space="preserve" width="210mm" height="297mm" version="1.1" style="shape-rendering:geometricPrecision; text-rendering:geometricPrecision; image-rendering:optimizeQuality; fill-rule:evenodd; clip-rule:evenodd"
viewBox="0 0 21000 29700"
 xmlns:xlink="http://www.w3.org/1999/xlink">
 <defs>
  <style type="text/css">
   <![CDATA[
    .fil0 {fill:black}
   ]]>
  </style>
 </defs>
 <g id="Camada_x0020_1">
  <metadata id="CorelCorpID_0Corel-Layer"/>
  <path class="fil0" d="M10490.9 15663.32l3.94 0 -3.94 0zm-45.45 -1040.61c-176.91,-628.11 -397.39,-116.36 -603.39,-584.98 -36.59,38.68 -46.31,89.05 -18.86,188.77 40.62,147.58 170.69,133.71 283.23,178.73 139.3,55.74 136.26,194.75 147.86,323.47 -140.3,66.7 -322.9,99.01 -459.62,172.61 24.64,50.12 97.09,98.03 128.19,110.21 88.55,34.72 215.67,-15.14 276.29,-83.02 4.49,42.16 6.47,74.33 16.91,116.07 43.76,82.43 37.22,107.13 93.84,183.74 19.24,54.02 11.22,58.63 24.49,101.24 2.58,8.31 44.47,203.13 68.83,236.23 9.37,10.36 87.11,98.52 87.68,97.54l3.94 0c0.57,0.98 78.31,-87.18 87.68,-97.54 24.36,-33.1 66.25,-227.92 68.83,-236.23 13.27,-42.61 5.25,-47.22 24.49,-101.24 56.62,-76.61 50.08,-101.31 93.84,-183.74 10.44,-41.74 12.42,-73.91 16.91,-116.07 60.62,67.88 187.74,117.74 276.29,83.02 31.1,-12.18 103.55,-60.09 128.19,-110.21 -136.72,-73.6 -319.32,-105.91 -459.62,-172.61 11.6,-128.72 8.56,-267.73 147.86,-323.47 112.54,-45.02 242.61,-31.15 283.23,-178.73 27.45,-99.72 17.73,-150.09 -18.86,-188.77 -206,468.62 -426.48,-43.13 -603.39,584.98 -31.34,111.28 -63.5,111.28 -94.84,0z"/>
 </g>
</svg>
