<?xml version="1.0" encoding="UTF-8"?>
<!DOCTYPE svg PUBLIC "-//W3C//DTD SVG 1.1//EN" "http://www.w3.org/Graphics/SVG/1.1/DTD/svg11.dtd">
<!-- Creator: CorelDRAW 2019 (64 Bit) -->
<svg xmlns="http://www.w3.org/2000/svg" xml:space="preserve" width="210mm" height="297mm" version="1.1" style="shape-rendering:geometricPrecision; text-rendering:geometricPrecision; image-rendering:optimizeQuality; fill-rule:evenodd; clip-rule:evenodd"
viewBox="0 0 21000 29700"
 xmlns:xlink="http://www.w3.org/1999/xlink">
 <defs>
  <style type="text/css">
   <![CDATA[
    .fil0 {fill:black}
   ]]>
  </style>
 </defs>
 <g id="Camada_x0020_1">
  <metadata id="CorelCorpID_0Corel-Layer"/>
  <path class="fil0" d="M10538.5 14639.71c138.64,304.57 328.44,493.89 564.33,597.72 26.06,11.47 53.21,22.73 81.35,33.52 -33.66,55.24 -73.77,106.14 -119.26,151.63 -146.39,146.39 -348.65,236.94 -572.05,236.94 -15.06,0 -30.03,-0.43 -44.89,-1.24 -44.99,-149.29 -90.38,-334.56 -101,-433.79 17.3,-45.91 50,-40.4 48.19,-107.98 -97.19,77.14 -106.2,98.32 -249.44,141.21 18.92,58.78 45.14,146.75 10.53,203.12 -64.12,-78.92 -76.93,-77.12 -147.44,-121.74l-94.49 73.09c-99.08,-117.97 -90.17,-71.04 -73.71,-230.3 19.24,-186.47 113.3,-577.04 228.86,-681.92 44.51,-40.4 89.63,-52.5 138.02,-81.29 13.94,-16.76 28.4,-40.01 58.24,-50.24 203.06,-149.37 478.85,-232.98 748.44,-126.3 -36.63,18.44 -392.43,54.57 -544.28,197.54 69.44,28.63 228.47,58.29 317.59,87.71 -31.92,58.75 -87.8,100.63 -132.36,113.26 -43.42,12.29 -78.77,9.14 -116.63,-0.94z"/>
 </g>
</svg>
