<?xml version="1.0" encoding="UTF-8"?>
<!DOCTYPE svg PUBLIC "-//W3C//DTD SVG 1.1//EN" "http://www.w3.org/Graphics/SVG/1.1/DTD/svg11.dtd">
<!-- Creator: CorelDRAW 2019 (64 Bit) -->
<svg xmlns="http://www.w3.org/2000/svg" xml:space="preserve" width="210mm" height="297mm" version="1.1" style="shape-rendering:geometricPrecision; text-rendering:geometricPrecision; image-rendering:optimizeQuality; fill-rule:evenodd; clip-rule:evenodd"
viewBox="0 0 21000 29700"
 xmlns:xlink="http://www.w3.org/1999/xlink">
 <defs>
  <style type="text/css">
   <![CDATA[
    .fil0 {fill:black}
   ]]>
  </style>
 </defs>
 <g id="Camada_x0020_1">
  <metadata id="CorelCorpID_0Corel-Layer"/>
  <g id="_853528464">
   <path class="fil0" d="M10678.48 15370.25c-12.52,-32.45 28.88,-72.56 46.95,-100.29 119.67,-183.78 222.23,-439.73 274.5,-654.92 12.27,-50.46 8.85,-91.74 67.74,-70.77 19.25,65.35 -109.69,402.29 -140.64,473.57 -58.9,135.62 -95.23,195.12 -167.53,308.09 -32.69,51.09 -46.41,73.44 -81.02,44.32zm10.84 -881.51c20.91,98.33 -143.36,497.72 -206.64,619.18 -29.67,56.94 -80.78,177.01 -121.71,134.3 -21.24,-22.15 14.78,-64.65 28.7,-88.31 70.02,-119.01 168.98,-357.86 205.02,-490.24 10.49,-38.54 21.39,-69.95 29.99,-109.45 12.12,-55.66 3.04,-80.21 64.64,-65.48zm-681.43 667.1c-17.6,-36.02 7.53,-59.99 26.31,-94.06 17.61,-31.91 32.09,-60.27 48.4,-90.91 58.77,-110.5 121.36,-278.33 157.14,-399.17 30.4,-102.66 34.2,-204.6 82.83,-177.22 35.23,19.83 -20.37,181.28 -32.81,220.1 -22.5,70.24 -44.98,136.91 -72.51,205.91 -24.18,60.6 -58.36,136.58 -87.53,190.52 -17.19,31.78 -30.07,58.71 -48.8,90.2 -20.61,34.66 -24.23,67.6 -73.03,54.63zm1185.75 -539.49c8.57,-56 12.71,-100.01 -15.03,-140.59 -115.67,-169.3 -263.9,6.96 -362.99,-10.8 -100.67,-18.02 -113.59,-106.54 -208.18,-128.32 -93.81,-21.58 -111.51,60.4 -263.34,-7.3 -49.5,-22.06 -169.62,-106.35 -247.13,-24.64 -29.38,30.96 -35.98,214.9 -55.72,281.15 -48.43,162.61 -150.51,297.44 -214.24,451.83 -47.52,115.14 17.75,156.42 127.49,172.35 42.59,6.2 121.88,-4.94 147.52,5.61 39.45,16.22 45.25,71.29 73.02,95.38 84.31,73.09 193.81,6.9 277.06,15.69 115.95,12.25 71.52,116.76 220.1,112.17 186.46,-5.78 276.61,-188.62 340.92,-335.31 59.72,-136.26 157.11,-334.26 180.52,-487.22z"/>
   <path class="fil0" d="M10533.67 14274.89c104.73,-5.98 123.5,11.22 187.87,54.77 23.76,-94.81 65.25,-224.35 -39.8,-249.93 -124.92,-30.4 -131.23,98.81 -148.07,195.16z"/>
   <path class="fil0" d="M10489.69 15406.53c-21.39,18.21 -67.26,80.57 -79.34,111.92 -41.14,106.73 101.73,193.38 176.9,88.98 15.58,-21.65 63.82,-86.8 66.83,-108.83 -99.51,-1.86 -123.97,-37.79 -164.39,-92.07z"/>
   <path class="fil0" d="M10142.31 14216.9c118.9,-15.77 105.45,10.53 190.72,38.52 16.63,-74.99 55.66,-199.98 -50.51,-223.08 -113.43,-24.67 -132.14,91.61 -140.21,184.56z"/>
   <path class="fil0" d="M10983.55 14347.98c133.87,-13.14 94.81,-2.39 194.24,37.19 5.23,-38.6 70.7,-185.56 -55.36,-212.3 -100.52,-21.33 -124.53,92.45 -138.88,175.11z"/>
   <path class="fil0" d="M10113.95 15337c-144.11,162.68 36.07,277.86 122.36,168.29 24.41,-31 48.34,-64.48 62.83,-99.41 -123.25,-3.77 -132.78,-34.65 -185.19,-68.88z"/>
   <path class="fil0" d="M9771.79 15185.55c-48.5,58.95 -74.03,147.9 14.72,184.79 88.4,36.74 136.92,-46.8 160.28,-101.68 -44.45,-6.2 -64.38,-11.9 -101.16,-30.62 -51.58,-26.24 -43.8,-33.51 -73.84,-52.49z"/>
  </g>
 </g>
</svg>
