<?xml version="1.0" encoding="UTF-8"?>
<!DOCTYPE svg PUBLIC "-//W3C//DTD SVG 1.1//EN" "http://www.w3.org/Graphics/SVG/1.1/DTD/svg11.dtd">
<!-- Creator: CorelDRAW 2019 (64 Bit) -->
<svg xmlns="http://www.w3.org/2000/svg" xml:space="preserve" width="210mm" height="297mm" version="1.1" style="shape-rendering:geometricPrecision; text-rendering:geometricPrecision; image-rendering:optimizeQuality; fill-rule:evenodd; clip-rule:evenodd"
viewBox="0 0 21000 29700"
 xmlns:xlink="http://www.w3.org/1999/xlink">
 <defs>
  <style type="text/css">
   <![CDATA[
    .str0 {stroke:black;stroke-width:20;stroke-miterlimit:22.9256}
    .fil0 {fill:black}
   ]]>
  </style>
 </defs>
 <g id="Camada_x0020_1">
  <metadata id="CorelCorpID_0Corel-Layer"/>
  <g id="_893536160">
   <polygon class="fil0 str0" points="9901.08,15555.18 10343.87,15555.18 10343.87,15173.24 10641.87,15173.24 10641.87,15555.18 11084.66,15555.18 11084.66,14904.63 10492.87,14396.78 9901.08,14904.63 "/>
   <path class="fil0" d="M9744.36 14904.42c-64.29,-75.14 0,0 -64.29,-75.14l780.17 -671.12c3.01,-2.64 6.28,-4.87 9.73,-6.68 1.34,-0.68 2.7,-1.33 4.1,-1.9 4.82,-1.99 9.87,-3.16 14.96,-3.56 2.65,-0.17 5.03,-0.17 7.67,0 5.1,0.4 10.15,1.57 14.97,3.56 1.4,0.57 2.76,1.22 4.1,1.9 3.45,1.81 6.72,4.04 9.73,6.68l780.17 671.12c-64.29,75.14 0,0 -64.29,75.14l-748.51 -643.88 -748.51 643.88z"/>
   <polygon class="fil0 str0" points="10994.42,14268.76 11116.14,14268.76 11116.14,14561.9 10994.42,14457.19 "/>
  </g>
 </g>
</svg>
