<?xml version="1.0" encoding="UTF-8"?>
<!DOCTYPE svg PUBLIC "-//W3C//DTD SVG 1.1//EN" "http://www.w3.org/Graphics/SVG/1.1/DTD/svg11.dtd">
<!-- Creator: CorelDRAW 2019 (64 Bit) -->
<svg xmlns="http://www.w3.org/2000/svg" xml:space="preserve" width="210mm" height="297mm" version="1.1" style="shape-rendering:geometricPrecision; text-rendering:geometricPrecision; image-rendering:optimizeQuality; fill-rule:evenodd; clip-rule:evenodd"
viewBox="0 0 21000 29700"
 xmlns:xlink="http://www.w3.org/1999/xlink">
 <defs>
  <style type="text/css">
   <![CDATA[
    .fil0 {fill:black}
   ]]>
  </style>
 </defs>
 <g id="Camada_x0020_1">
  <metadata id="CorelCorpID_0Corel-Layer"/>
  <g id="_711926816">
   <path class="fil0" d="M10188.88 15232.4c-8.73,-11.81 -17.14,-23.35 -25.25,-36.32 -13.65,-21.83 -35.96,-57.59 -43.63,-83.33l21.7 -7.38c5.89,22.38 30.14,61.22 42.46,80.36 8.47,13.2 16.75,24.26 25.58,35.93 26.97,35.7 52.52,61.9 87.15,90.9 22.8,19.12 47.54,28.53 73.51,47.38l-10.74 18.01c-65.07,-27.87 -112.41,-76.67 -156.97,-128.58 -5.37,-6.24 -7.79,-8.79 -13.81,-16.97zm579.5 268.79c61.9,-31.66 125.7,-78.13 172.23,-125.63 94.3,-96.37 183.68,-274.42 186.11,-405.78l-1267.66 -0.23c-1.39,65.26 40.56,181.61 65.52,232.77 18.89,38.68 75.9,128.13 106.26,157.36l76.26 70.85c22.63,19.47 84.69,58.34 112.66,72.15 53.69,26.52 61.22,20.31 126.22,20.31l297.74 0c65.19,0 71.27,5.49 124.66,-21.8z"/>
   <path class="fil0" d="M10642.59 14589.29l14.35 14.42c6.18,5.05 8.31,6.18 16.17,11.1 161.34,100.76 347.8,-10.64 359.41,-179.45 4.43,-64.64 -23.67,-135.85 -57.17,-166.6 -12.58,9.31 -27.75,25.06 -40.52,36.67 -14.56,13.19 -29.59,24.96 -41.62,40.49 -19.73,25.45 -59.93,56.2 -84.76,79.58 -11.06,10.38 -13.58,17.56 -40.33,41.75l-125.53 122.04z"/>
   <path class="fil0" d="M10351.28 14946.76l352.33 0.19c36.35,-87.99 -35.54,-234.55 -176.25,-234.55 -140.02,0 -212.97,145.94 -176.08,234.36z"/>
   <path class="fil0" d="M10275.16 15659.84c30.82,5.24 419.91,4.37 434.82,-1.32l-0.55 -112.67 -434.04 0.61 -0.23 113.38z"/>
   <path class="fil0" d="M10119.97 14610.08c31.85,59.12 130.81,78.04 219.7,62.45 267.41,-46.86 166.97,-283.96 11.81,-146.17 -67.52,59.96 -126.61,118.42 -231.51,83.72z"/>
   <path class="fil0" d="M10042.97 14287.55c126.61,-25.71 165.44,171.45 35.96,196.16 -127.12,24.25 -169.74,-169 -35.96,-196.16zm-2.16 -45.89c-74.74,9.73 -135.76,78.19 -124.44,164.57 24.12,184.19 313.26,154.15 287.71,-40.75 -9.64,-73.57 -77.61,-135.01 -163.27,-123.82z"/>
   <path class="fil0" d="M10319.11 14103.44c6.98,20.22 88.67,174.18 98.73,184.07l124.47 -64.67c-3.53,-15.98 -88.35,-176.57 -97.08,-185.11 -38.71,14.62 -86.83,48.32 -126.12,65.71z"/>
   <path class="fil0" d="M9984.7 14401.05c17.33,92.36 169.16,75.12 151.05,-29.65 -6.44,-37.32 -42.65,-69.63 -89.87,-61.41 -38.51,6.69 -70.27,42.46 -61.18,91.06z"/>
   <path class="fil0" d="M9974.51 14784.03c-79.97,20.21 -47.44,136.56 31.14,115.29 28.56,-7.73 51.03,-39.97 40.56,-75.13 -8.09,-27.16 -36.13,-49.15 -71.7,-40.16z"/>
   <path class="fil0" d="M10920.63 14796.61c-32.79,14.1 -19.92,71.4 23.35,56.01 34.53,-12.29 15.91,-72.92 -23.35,-56.01z"/>
  </g>
 </g>
</svg>
