<?xml version="1.0" encoding="UTF-8"?>
<!DOCTYPE svg PUBLIC "-//W3C//DTD SVG 1.1//EN" "http://www.w3.org/Graphics/SVG/1.1/DTD/svg11.dtd">
<!-- Creator: CorelDRAW 2019 (64 Bit) -->
<svg xmlns="http://www.w3.org/2000/svg" xml:space="preserve" width="210mm" height="297mm" version="1.1" style="shape-rendering:geometricPrecision; text-rendering:geometricPrecision; image-rendering:optimizeQuality; fill-rule:evenodd; clip-rule:evenodd"
viewBox="0 0 21000 29700"
 xmlns:xlink="http://www.w3.org/1999/xlink">
 <defs>
  <style type="text/css">
   <![CDATA[
    .fil0 {fill:black}
   ]]>
  </style>
 </defs>
 <g id="Camada_x0020_1">
  <metadata id="CorelCorpID_0Corel-Layer"/>
  <g>
   <path class="fil0" d="M10492.87 15663.33l456.07 -873.87c37.09,-71.06 58.09,-151.86 58.09,-237.57 0,-283.96 -230.2,-514.16 -514.16,-514.16 -283.96,0 -514.16,230.2 -514.16,514.16 0,85.68 20.99,166.45 58.06,237.5l0.03 0.07 456.07 873.87 0 0zm0 -1411.71c165.83,0 300.27,134.44 300.27,300.27 0,165.83 -134.44,300.27 -300.27,300.27 -165.83,0 -300.27,-134.44 -300.27,-300.27 0,-165.83 134.44,-300.27 300.27,-300.27z"/>
  </g>
 </g>
</svg>
