<?xml version="1.0" encoding="UTF-8"?>
<!DOCTYPE svg PUBLIC "-//W3C//DTD SVG 1.1//EN" "http://www.w3.org/Graphics/SVG/1.1/DTD/svg11.dtd">
<!-- Creator: CorelDRAW 2019 (64 Bit) -->
<svg xmlns="http://www.w3.org/2000/svg" xml:space="preserve" width="210mm" height="297mm" version="1.1" style="shape-rendering:geometricPrecision; text-rendering:geometricPrecision; image-rendering:optimizeQuality; fill-rule:evenodd; clip-rule:evenodd"
viewBox="0 0 21000 29700"
 xmlns:xlink="http://www.w3.org/1999/xlink">
 <defs>
  <style type="text/css">
   <![CDATA[
    .fil0 {fill:black}
   ]]>
  </style>
 </defs>
 <g id="Camada_x0020_1">
  <metadata id="CorelCorpID_0Corel-Layer"/>
  <g id="_854413664">
   <path class="fil0" d="M10687.63 14213.98c-11.75,15 -38.55,11.87 -52.67,2.13 -21.39,-0.65 -29.81,9.59 -41.37,16.3 -2.51,11.51 -8.89,16.23 -8.15,33.56 0.56,13.45 4.48,19.14 -0.04,32.96 -2.26,6.88 -21.96,47.16 -25.43,51.52 -18.37,-12.14 -30.84,-19.86 -31.96,-49.12l-11.48 -12.33c-12.83,3.67 -33.28,17.07 -41.36,24.69 -13.09,12.33 -15.67,23.72 -17.7,46.01l12.98 -0.72c17.48,-3.99 5.96,1.01 38.02,16.89 -25.08,31.56 -11.76,19.57 -55.89,21.12l-0.44 28.79 -3.63 30.2c14.9,5.91 20.27,2.78 28.21,14.21 -4.45,14.46 -10.49,13.96 -27.33,18.42 -18.44,4.89 -11.21,4.67 -20.49,22.2 -9.47,17.89 -14.74,10.57 -22.01,24.1 -7.62,14.2 -0.63,22.81 -10.64,32.67 -1.33,10.16 -3.8,9.73 -4.59,21.35 -0.72,10.5 2.13,12.66 -0.09,22.76 -1.31,25.28 5.93,25.78 -2.81,46.72 -7.57,18.13 4.21,21.9 11.75,33.95 6.2,0.94 16.08,4.19 23.91,8.13 25.35,4.08 44.14,9.82 72.35,9.84 51.11,-7.59 55.32,-17 76.09,29.25 6.72,14.96 10.37,31.26 20.08,42.43 11.12,12.8 23.33,11.85 24.17,34.33 5.64,5.51 5.98,5.83 7.87,16.1 1.18,6.44 1.24,12.93 0.78,19.44 -1.37,19.28 -6.12,20.77 -4.09,42.73 12.71,17.85 8.66,40.91 16.21,62.9 6.3,18.35 23,37.17 39.86,42.83l9.83 -11.52c10.87,-20.82 20.01,-5.76 72.41,-31.63 -2.58,-7.27 -1.11,-2.48 2.15,-2.95 6.08,-10.56 12.73,-19.06 20.12,-30.78 10.4,-16.5 8.25,-24.14 18.12,-33.72 8.24,23.47 12.06,34.65 45.16,31.43 1.24,-15.43 12.01,-8.55 26.55,-16.67 7.57,-12.56 13.83,-46.94 13.94,-63.88 -24.64,-0.48 -38.87,1.78 -55.38,-9.82 -8.7,-58.82 16.71,-41.41 36.85,-72.13 26.67,-40.68 16,-21.22 38.94,-43.58 3.57,-3.47 8.37,-9.12 11.23,-11.31 1.92,-20.31 -2.55,-13.67 -2,-26.04 0.44,-9.88 4.5,-6.05 2.37,-23.64 -28.73,-15.91 -70.15,8.8 -85.7,-25.94 -17.36,-38.8 -25.15,-37.09 -19.46,-92.21 10.81,14.27 8.78,39.68 23.03,55.74 17.05,19.21 18.56,15.06 33.52,41.91 26.76,-6.01 52.59,-6.21 68.54,-21.65 15.53,-15.03 11.39,-45.45 26.03,-62.22 30.22,9.22 45.51,3.47 56.06,35.41 11.09,33.62 -11.55,53.97 19.89,68.76 0.54,19.17 -3.96,18.8 7.04,28.93 32.59,-5.02 -2.29,-56.8 21.81,-84.12l3.45 12.85c1.46,16.46 -1.86,77.25 -10.37,90.04 3.06,18.77 -8.42,52.96 -20.04,66.73 -11.21,13.27 -34.5,2.12 -38.42,44.05 -0.49,29.97 7.2,43.24 -15.49,60.1 -6.39,4.74 -13.89,12.41 -20.48,15.77 -12,6.11 -16.36,2.08 -26.06,10.06 -8.18,11.05 -17.63,55.32 -22.33,63 -13.02,21.3 -118.39,84.52 -164.51,94.94 -9.95,6.52 -35.72,13.77 -49.39,11.92 -0.79,0.55 -1.88,1.1 -2.52,1.4 -0.64,0.3 -1.75,0.97 -2.55,1.31l-33.83 6.5c-14.01,1.75 -28.14,2.73 -42.37,3.12l-58.02 -1.79c-23.4,-1.95 -66.29,-3.41 -81.54,-17.61 -21.52,1.37 -112.15,-39.2 -119.16,-51.57 -14,-5.93 -24.95,-14.73 -36.03,-22.91 -22.88,-16.88 -7.86,-13.39 -24.13,-33.86 -28.75,-7.73 14.56,-40.25 12.13,-63.6 -12.07,-24.22 -7.15,-38.94 -5.42,-69.38 0.05,-29.15 -2.6,-39.42 -20.1,-52.36 -35.15,-25.97 -24.56,-5.95 -54.75,-10.83l-24.25 -25.2c-17.18,-14.3 -4.3,-18.2 -12.25,-33.86 -11.96,-23.53 -42.73,5.34 -52.08,-42.94 -12.36,-63.87 10.44,-123.02 14.34,-163.2 21.56,-61.37 22.88,-38.68 57.01,-58.13 15.25,-8.69 10.8,-23.51 27.87,-27.76 20.1,-5 29.15,-0.33 50.12,-7.77 1.44,-12.95 5.03,-38.88 10.85,-49.7 13.38,-3.64 20.19,-2.47 34.4,-8.58 20.73,-8.93 24.93,-1.53 31.84,-4.22 8.83,-7.18 -0.87,-24.93 -1.63,-36.03 -21.12,-15.06 -6.91,-18.2 -3.04,-34.56 3.3,-13.93 -6.81,-22.85 -8.7,-37.92 29.25,-22.7 97.14,-50.66 138.72,-58.76 43.5,-15.41 137.66,-17.19 184.28,-6.68 25.58,2.43 51.43,9.67 73.32,17.97 15.66,4.41 53.31,23.52 64.08,36.79 10.09,4.9 6.14,2.78 13.8,10.68 -8.02,12.38 -34.74,32.48 -61.18,25.59 -8.08,-2.11 -24.47,-9.22 -30.95,-15.62 -10.97,-10.85 -5.21,-16.28 -11.29,-31.2 -18.02,-2.27 -29.34,4.43 -44.49,8.49zm-262.8 -147.56l-57.21 20.67c-7.73,8.56 -72,41.38 -88.73,53.34 -145.26,103.89 -176.26,207.72 -194.8,224l-23.39 61.35c-5.83,24.33 -13.57,43.86 -18.7,69.76l-13.46 73.22 0.69 29.76 4.24 94.98c4.18,21.86 6.48,42.05 12.14,63.32 4.58,17.22 15.71,44.92 15.46,59.71l34.45 74.79c4.43,2.65 32.79,52.28 40,61.81 39.02,51.52 78.81,97.1 130.35,132.86 9.44,6.54 22.93,14.33 29.94,21.45 20.81,9.08 40.26,23.18 63.21,33.53 23.44,10.56 46,18.59 69.63,28.61l63.54 17.03c78.62,9.28 117.33,12.44 198.78,5.74l64.8 -13.08 70.02 -22.06c2.6,-3.07 53.26,-25.73 63.43,-31.34 16.13,-8.89 48.9,-32.64 60.37,-36.69 3.6,-5.31 -1.76,-3.52 10.07,-6.68 2.71,-5.83 21.46,-20.04 28.4,-25.63 7.16,-5.78 6.59,-5.19 13.65,-12.76l13.85 -10.86c5.25,-8.38 8.32,-12.74 16.33,-18.39 25.53,-29.64 44.65,-51.53 68.64,-88.91 9.39,-14.62 20.07,-33.47 28.58,-50.45 5.24,-10.44 17.93,-43.48 22.77,-49.99 3.4,-13.56 7.19,-24.05 11.52,-37.41 3.5,-10.75 5.66,-26.49 12.28,-34.85 -1.5,-16.86 9.83,-66.75 11.66,-89.22 2.46,-30.13 -2.91,-73.69 1.6,-99.34l-12.91 -71.17 -13.71 -58.44 -9.47 -18.98c-18.21,-49.31 -55.6,-109.49 -60,-122.64 -5.98,-3.39 -24.3,-30.61 -31.31,-39.22 -42.48,-52.21 -55.03,-58.48 -98.35,-95.93 -7.07,-6.12 -4.08,-0.55 -5.8,-6.94 -20.83,-9.33 -42.71,-28.61 -67.49,-41.31l-70.58 -35.91 -60.64 -18.08c-62,-9.23 -103.61,-20.79 -173.07,-17.88 -65.48,2.74 -103.52,16.05 -160.78,28.23z"/>
   <path class="fil0" d="M9894.71 14227.75l-45.45 104.68c-2.52,6.44 -3.81,11.14 -5.94,17.02l-8.84 16.08c0.59,8.54 -10.52,50.99 -14.86,58.82 -2.52,16.14 -6.34,30.77 -9.26,47.04 -1.48,8.26 -2.17,14.44 -3.41,22.41l-5.6 18.66c2.27,14.17 -0.55,28.83 -2.06,43.29l-2.49 71.53c3.05,32.02 2.65,62.76 6.85,94.4 3.13,23.45 16.52,72.12 14.44,89.97l5.24 9.65c1.03,2.56 2.16,7.19 2.99,10.36 15.08,57.38 29.54,79.92 44.5,125.46 7.75,8.09 27.76,48.88 29.18,59.18 12.81,9.4 19.3,28.47 28.61,41.89 10.89,15.69 16.88,25.41 28.32,40.68 10.37,13.82 20.05,25.71 30.52,38.65 47.48,58.65 100.87,104.65 161.47,147.66l19.13 15.46c11.09,2.26 46.59,26.07 62.63,34.5 11.74,6.17 55.23,25.08 62.13,30.9 19.87,5.7 68.96,23 76.76,29.61 3.63,-0.36 107.4,22.1 120.65,25.46l80.95 7.95 0.67 156.42 -80.59 0.9 -61.1 -0.01 -53.05 0.38 0.03 72.39c21.43,5.44 426.31,5.31 464.18,1.16l0.13 -50.87 -0.37 -22.36 -16.1 -0.7 -70.51 0.01 -61.1 -0.01 -46.98 -0.67 -0.02 -156.07 54.4 -5.24c17.49,-2.71 35.96,-7.5 53.16,-5.41 8.12,-6.28 18.93,-6.51 33.94,-9.9l101.3 -28.53c8.32,-5.35 51.63,-23.38 62.15,-23.89l178 -115.74c8.94,-7.27 13.11,-13.44 23.68,-17.71 1,-5.26 -3.44,-3.52 5.43,-4.43 5.35,-10.1 14.57,-17.25 23.46,-23.71 -4.49,-11.7 -67.49,-74.38 -80.27,-85.45l-17.7 11.7c-2.04,5.23 0.38,1.2 -4.65,7.13l-36.97 31.96c-14.63,11.71 -29.22,22.8 -45.16,33.86 -14.81,10.25 -83.55,53.35 -102.72,54.27 -11.8,12.66 -59.33,26.81 -75.17,30.67 -13.9,8.47 -84.67,22.54 -106.44,25.78 -40.69,6.06 -85.03,8.57 -127.29,7.41 -44.13,-1.22 -199.14,-24.24 -220.76,-44.98 -30.41,-7.78 -124.37,-52.95 -136.88,-71.82 -9.12,-1.74 -8.52,-2.4 -17,-8.37 -5.48,-3.86 -8.07,-5.73 -13.49,-9.65 -9.07,-6.57 -20.13,-14.87 -27.69,-21.52 -7.16,-5.61 -5.09,-4.74 -8.16,-9.9 -11.52,-2.69 -18.19,-13.16 -31.96,-25.78 -8.33,-7.63 -22.2,-18.73 -25.7,-29.21 -10.49,-6.14 -5,-1.01 -11.88,-12.28 -8.45,-1.4 -35.64,-37.19 -41.35,-47.34 -3.78,-6.74 -2,-1.7 -3.18,-8.34l-4.05 -3.54c-0.52,-0.51 -1.33,-1.24 -1.88,-1.8 -0.52,-0.54 -1.19,-1.26 -1.71,-1.83 -20.04,-22.2 -61.82,-102.14 -70.67,-128.36 -9.57,-17.53 -38.51,-97.87 -36.95,-122.29 -11.92,-14.66 -12.94,-56.53 -14.51,-78.03 -1.81,-11.63 -2.15,-8.57 0.84,-18.66 -7.06,-12.07 -5.16,-46.41 -4.74,-60.32 0.47,-15.58 -2.53,-46.9 5.44,-57.28 -1.96,-17.9 1.31,-37.87 5.71,-54.6 1.86,-13.91 10.48,-64.5 20.13,-76.15 -2.47,-32.51 71.26,-177.25 88.16,-188.1 13.66,-36.63 65.94,-80.71 84.65,-107.53 -5.51,-10.78 -30.69,-33.58 -41.06,-43.94 -14.26,-14.25 -31.44,-36.19 -43.72,-37.05l-74.91 88.56 -63.48 95.46z"/>
  </g>
 </g>
</svg>
