<?xml version="1.0" encoding="UTF-8"?>
<!DOCTYPE svg PUBLIC "-//W3C//DTD SVG 1.1//EN" "http://www.w3.org/Graphics/SVG/1.1/DTD/svg11.dtd">
<!-- Creator: CorelDRAW 2019 (64 Bit) -->
<svg xmlns="http://www.w3.org/2000/svg" xml:space="preserve" width="210mm" height="297mm" version="1.1" style="shape-rendering:geometricPrecision; text-rendering:geometricPrecision; image-rendering:optimizeQuality; fill-rule:evenodd; clip-rule:evenodd"
viewBox="0 0 21000 29700"
 xmlns:xlink="http://www.w3.org/1999/xlink">
 <defs>
  <style type="text/css">
   <![CDATA[
    .fil0 {fill:black}
   ]]>
  </style>
 </defs>
 <g id="Camada_x0020_1">
  <metadata id="CorelCorpID_0Corel-Layer"/>
  <g id="_854037728">
   <path class="fil0" d="M10306.69 14532.82c-54.73,18.08 -40.94,57.85 -33.23,89.51l160.36 669.98c2.79,12.01 13.86,45.65 9.02,55.44 -8.87,17.96 -39,8.73 -50.21,0.29 -12.54,-9.45 -14.66,-32.34 -19.38,-51.29 -4.73,-18.97 -8.89,-36.92 -13.42,-55.66l-147.04 -614.33c-4.18,-17.84 -13.07,-39.84 -6.91,-58.12 5.37,-15.93 18.11,-29.18 34.55,-34.24 11.35,-3.5 53.46,-3.63 66.26,-1.58zm-77.63 1118.16l-1.15 9.05 4.99 2.09c0.61,0.14 1.07,0.27 1.75,0.39 1.67,0.29 7.19,0.25 9.13,0.22l248.4 0.03c88.32,1.15 177.53,0.19 265.93,0.05 -3.43,-54.04 -93.78,-80.61 -140.92,-89.69 -33.75,-6.51 -25.6,9.84 -25.56,-79.87 26.47,-5.31 51.9,-24.17 62.62,-41.02 11.93,-18.74 17.14,-56.05 22.61,-80.76l151.67 -680.49c6.35,-28.33 12.55,-56.3 18.96,-84.57 5.19,-22.85 19.28,-66.78 12.75,-88.67 -7.07,-23.69 -28.34,-43.88 -56.42,-45.99 -31.91,-2.39 -72.14,-0.31 -104.94,-0.31 -68.97,0 -139.16,1.29 -207.97,-0.08 -30.9,-0.43 -286.04,-1.97 -309.94,0.36 -28.09,2.74 -49.82,23.43 -56.12,48.72 -5.02,20.12 9.19,62.41 14.22,83.85 6.66,28.36 13.3,55.3 19.99,83.37 13.47,56.53 26.7,111.68 40.33,168.26 8.06,33.44 132.77,565.38 141.17,584.01 17.3,38.38 52.01,44.61 53.68,51.49l-0.09 77.22c-35.58,6.06 -68.05,13.18 -97.92,26 -33.17,14.24 -53.01,27.09 -67.17,56.34z"/>
   <path class="fil0" d="M10491.02 14181.52c-43.46,7.27 -60.98,33.95 -70.07,74.13 -20.9,-8.4 -42.72,-23.63 -80.57,-6.14 -20.95,9.68 -41.15,31.56 -45.89,59.19 -50.87,2.11 -88.05,27.18 -104.76,69.39 -8.32,21.01 -4.64,30.04 -8.2,50.24 16.63,2.35 489.65,1.02 544.54,1.02 17.18,0 63.49,2.1 77.25,-0.96 1.61,-29.49 -5.03,-51.85 -18.39,-71.49 -9.13,-13.42 -31.81,-36.01 -52.26,-40.34l117.59 -259.54 -40.52 -19.29c-7.62,11.37 -53.92,117.35 -65.09,140.93l-47.69 104.61c-14.12,30.75 -8.45,25.4 -25.89,27.88 -9.3,-34.39 -41.84,-58.31 -86.71,-56.33 -3.91,-45.44 -42.56,-78.04 -93.34,-73.3z"/>
  </g>
 </g>
</svg>
