<?xml version="1.0" encoding="UTF-8"?>
<!DOCTYPE svg PUBLIC "-//W3C//DTD SVG 1.1//EN" "http://www.w3.org/Graphics/SVG/1.1/DTD/svg11.dtd">
<!-- Creator: CorelDRAW 2019 (64 Bit) -->
<svg xmlns="http://www.w3.org/2000/svg" xml:space="preserve" width="210mm" height="297mm" version="1.1" style="shape-rendering:geometricPrecision; text-rendering:geometricPrecision; image-rendering:optimizeQuality; fill-rule:evenodd; clip-rule:evenodd"
viewBox="0 0 21000 29700"
 xmlns:xlink="http://www.w3.org/1999/xlink">
 <defs>
  <style type="text/css">
   <![CDATA[
    .fil1 {fill:#020607}
    .fil0 {fill:#030708}
   ]]>
  </style>
 </defs>
 <g id="Camada_x0020_1">
  <metadata id="CorelCorpID_0Corel-Layer"/>
  <g id="_711649568">
   <path class="fil0" d="M10136.88 15508.64l458.84 0 84.05 -876.65 -627.86 -0.43 84.97 877.08zm195.15 -337.18c0,-26.59 3.73,-41.76 11.19,-61.07 5.63,-14.6 14.39,-29.29 26.72,-44.06 9,-10.79 25.31,-26.46 48.69,-47.14 23.51,-20.69 38.67,-37.13 45.73,-49.46 7.07,-12.46 10.54,-25.82 10.54,-40.47 0,-26.45 -10.29,-49.71 -30.83,-69.74 -20.55,-20.04 -45.74,-30.07 -75.54,-30.07 -28.9,0 -52.92,9.13 -72.19,27.24 -54.41,51.15 -35.13,84.13 -73.6,80.95l-4.26 -0.52c-65.13,-7.97 1.21,-99.94 26.22,-122.05 30.96,-27.36 71.8,-41.11 122.67,-41.11 53.83,0 96.74,14.65 128.85,44.06 31.99,29.43 48.05,65.01 48.05,106.75 0,24.15 -5.66,46.37 -16.96,66.67 -11.31,20.42 -33.4,45.09 -66.28,74.25 -22.1,19.53 -36.49,33.91 -43.29,43.16 -6.81,9.26 -13.88,19.55 -15.04,31.99 -7.73,83.1 -70.67,58.19 -70.67,30.62zm26.48 86.54c21.28,0 38.53,17.24 38.53,38.53 0,21.28 -17.25,38.53 -38.53,38.53 -21.28,0 -38.53,-17.25 -38.53,-38.53 0,-21.29 17.25,-38.53 38.53,-38.53z"/>
   <path class="fil0" d="M9975.1 14512.53l783.03 1.56 -101.24 1062.97 -581.83 -2.71 -99.96 -1061.82zm761.33 1109.94c2.25,-7.2 4.06,-27.46 4.81,-35.87 2.32,-25.84 4.6,-51.61 7.11,-77.5 4.79,-49.47 9.77,-100.68 14.5,-150.7 9.51,-100.4 19.39,-201.94 28.99,-302.12 9.26,-96.52 65.34,-553.77 49,-611.68 -53.03,-38.93 -278.73,-17.4 -363.19,-17.42 -127.44,-0.05 -254.88,-0.04 -382.33,-0.04 -209.93,0 -221.1,-43.98 -200.16,165.43l101.42 1036.84c16.74,46.86 110.99,30.44 165.23,30.43 99.05,-0.02 526.67,12.5 557.5,-9.79 15.51,-13.65 9.43,-2.99 17.12,-27.58z"/>
   <path class="fil1" d="M11095.03 14114.55c22.71,-103.14 -90.5,-72.59 -176.86,-72.59 -59.88,0.01 -197.97,-11.85 -243.12,7.11 -23.45,16.28 -9.02,0.5 -25.3,34.38l-121.7 258.26 90.18 -0.34 108.78 -212.51c91.43,-5.7 306.84,16.04 368.02,-14.31z"/>
  </g>
 </g>
</svg>
