<?xml version="1.0" encoding="UTF-8"?>
<!DOCTYPE svg PUBLIC "-//W3C//DTD SVG 1.1//EN" "http://www.w3.org/Graphics/SVG/1.1/DTD/svg11.dtd">
<!-- Creator: CorelDRAW 2019 (64 Bit) -->
<svg xmlns="http://www.w3.org/2000/svg" xml:space="preserve" width="210mm" height="297mm" version="1.1" style="shape-rendering:geometricPrecision; text-rendering:geometricPrecision; image-rendering:optimizeQuality; fill-rule:evenodd; clip-rule:evenodd"
viewBox="0 0 21000 29700"
 xmlns:xlink="http://www.w3.org/1999/xlink">
 <defs>
  <style type="text/css">
   <![CDATA[
    .fil0 {fill:black}
    .fil1 {fill:black;fill-rule:nonzero}
   ]]>
  </style>
 </defs>
 <g id="Camada_x0020_1">
  <metadata id="CorelCorpID_0Corel-Layer"/>
  <g id="_849389472">
   <path class="fil0" d="M9945.64 14037.74l1276.61 0 0 1625.6 -1276.61 0 0 -143.2 90.35 0c33.88,0 64.71,-13.78 87.18,-36.14l0.31 -0.28c22.39,-22.49 36.25,-53.38 36.25,-87.31 0,-34.16 -13.86,-65.11 -36.25,-87.5l-0.1 0.09c-22.49,-22.47 -53.4,-36.36 -87.39,-36.36l-90.35 0 0 -119.61 90.35 0c33.88,0 64.71,-13.8 87.18,-36.16l0.31 -0.28c22.39,-22.47 36.25,-53.36 36.25,-87.29 0,-34.03 -13.88,-64.92 -36.25,-87.32 -22.49,-22.5 -53.44,-36.46 -87.49,-36.46l-90.35 0 0 -119.6 90.35 0c34.17,0 65.11,-13.86 87.49,-36.26 22.39,-22.39 36.25,-53.34 36.25,-87.5 0,-34.16 -13.86,-65.1 -36.25,-87.48l-0.1 0.1c-22.49,-22.47 -53.42,-36.35 -87.39,-36.35l-90.35 0 0 -119.63 90.35 0c34.17,0 65.11,-13.87 87.49,-36.25 22.39,-22.41 36.25,-53.36 36.25,-87.5 0,-34.18 -13.86,-65.11 -36.25,-87.5l-0.1 0.12c-22.49,-22.47 -53.42,-36.37 -87.39,-36.37l-90.35 0 0 -133.56zm567.97 517.97c-59.97,-12.32 -93.18,-12.58 -142.19,17.83 -75.96,47.18 -97.56,151.72 -37.83,232.66 23.61,31.97 55.2,47.09 107.54,60.28l0.36 278.2 420.38 -0.02 0.17 -273.83c7.11,-3.95 180.99,-34.14 149.53,-194.5 -9.53,-48.65 -41.08,-83.47 -70.72,-103.78 -44.14,-30.2 -90.47,-25.93 -145.78,-14.75 -106.91,-147.19 -245.97,-76.7 -281.46,-2.09zm-567.97 -186.92l0 -147.48 90.35 0c40.72,0 73.72,33 73.72,73.74 0,40.72 -33,73.74 -73.72,73.74l-90.35 0zm0 367.13l0 -147.49 90.35 0c40.72,0 73.72,33 73.72,73.73 0,40.72 -33,73.76 -73.72,73.76l-90.35 0zm0 367.11l0 -147.49 90.35 0c40.72,0 73.72,33.04 73.72,73.76 0,40.71 -33,73.73 -73.72,73.73l-90.35 0zm0 367.12l0 -147.52 90.35 0c40.72,0 73.72,33.04 73.72,73.78 0,40.72 -33,73.74 -73.72,73.74l-90.35 0z"/>
   <path class="fil1" d="M9837.24 14368.8c-40.73,0 -73.75,-33.02 -73.75,-73.75 0,-40.72 33.02,-73.74 73.75,-73.74l198.74 0c40.73,0 73.74,33.02 73.74,73.74 0,40.73 -33.01,73.75 -73.74,73.75l-198.74 0z"/>
   <path class="fil1" d="M9837.24 14735.92c-40.73,0 -73.75,-33.02 -73.75,-73.75 0,-40.73 33.02,-73.75 73.75,-73.75l198.74 0c40.73,0 73.74,33.02 73.74,73.75 0,40.73 -33.01,73.75 -73.74,73.75l-198.74 0z"/>
   <path class="fil1" d="M9837.24 15103.03c-40.73,0 -73.75,-33.02 -73.75,-73.75 0,-40.72 33.02,-73.74 73.75,-73.74l198.74 0c40.73,0 73.74,33.02 73.74,73.74 0,40.73 -33.01,73.75 -73.74,73.75l-198.74 0z"/>
   <path class="fil1" d="M9837.24 15470.15c-40.73,0 -73.75,-33.02 -73.75,-73.75 0,-40.73 33.02,-73.75 73.75,-73.75l198.74 0c40.73,0 73.74,33.02 73.74,73.75 0,40.73 -33.01,73.75 -73.74,73.75l-198.74 0z"/>
  </g>
 </g>
</svg>
