<?xml version="1.0" encoding="UTF-8"?>
<!DOCTYPE svg PUBLIC "-//W3C//DTD SVG 1.1//EN" "http://www.w3.org/Graphics/SVG/1.1/DTD/svg11.dtd">
<!-- Creator: CorelDRAW 2019 (64 Bit) -->
<svg xmlns="http://www.w3.org/2000/svg" xml:space="preserve" width="210mm" height="297mm" version="1.1" style="shape-rendering:geometricPrecision; text-rendering:geometricPrecision; image-rendering:optimizeQuality; fill-rule:evenodd; clip-rule:evenodd"
viewBox="0 0 21000 29700"
 xmlns:xlink="http://www.w3.org/1999/xlink">
 <defs>
  <style type="text/css">
   <![CDATA[
    .fil0 {fill:black}
    .fil1 {fill:black;fill-rule:nonzero}
   ]]>
  </style>
 </defs>
 <g id="Camada_x0020_1">
  <metadata id="CorelCorpID_0Corel-Layer"/>
  <g id="_853190000">
   <path class="fil0" d="M9945.64 14037.73l1276.61 0 0 1625.6 -1276.61 0 0 -143.2 90.35 0c33.88,0 64.71,-13.78 87.18,-36.14l0.31 -0.28c22.39,-22.49 36.25,-53.38 36.25,-87.31 0,-34.16 -13.86,-65.11 -36.25,-87.5l-0.1 0.09c-22.49,-22.47 -53.4,-36.36 -87.39,-36.36l-90.35 0 0 -119.61 90.35 0c33.88,0 64.71,-13.8 87.18,-36.16l0.31 -0.28c22.39,-22.47 36.25,-53.36 36.25,-87.29 0,-34.03 -13.88,-64.92 -36.25,-87.32 -22.49,-22.5 -53.44,-36.46 -87.49,-36.46l-90.35 0 0 -119.6 90.35 0c34.17,0 65.11,-13.86 87.49,-36.26 22.39,-22.39 36.25,-53.34 36.25,-87.5 0,-34.16 -13.86,-65.1 -36.25,-87.48l-0.1 0.1c-22.49,-22.47 -53.42,-36.35 -87.39,-36.35l-90.35 0 0 -119.63 90.35 0c34.17,0 65.11,-13.87 87.49,-36.25 22.39,-22.41 36.25,-53.36 36.25,-87.5 0,-34.18 -13.86,-65.11 -36.25,-87.5l-0.1 0.12c-22.49,-22.47 -53.42,-36.37 -87.39,-36.37l-90.35 0 0 -133.56zm970.86 551.03c-9.31,-12.03 -36.03,-31.36 -50.09,-37.9 -40.15,-18.71 -77.9,-19.58 -118.11,-8.35 -11.75,3.28 -39.99,15.5 -45.95,24.01 -12.3,3.72 -32.13,31.39 -44.04,39.24 -9.2,-14.11 -37.9,-37.63 -53.8,-47.2 -61.42,-36.95 -142.43,-27.81 -190.18,16.62 -9.62,8.92 -16.62,17.07 -24.84,26.79 -13.6,24.49 -19.62,26.36 -28.06,63.69 -6.31,27.79 -2.9,58.3 4.28,82.83 13.54,46.33 49.46,74.39 79.6,104.51l44.79 46.46c15.87,15.88 30.55,30.56 46.45,46.42 30.34,30.37 60.84,63 91.76,91.69l29.67 29.7c8.57,-5.84 194.23,-193.43 210.97,-210.18 22.12,-22.12 50.44,-46.9 66.52,-73.62 35,-58.13 31.64,-128.74 -10.8,-184.97 -3.4,-4.53 -4.85,-5.46 -8.17,-9.74zm-970.86 -219.98l0 -147.48 90.35 0c40.72,0 73.72,33 73.72,73.74 0,40.72 -33,73.74 -73.72,73.74l-90.35 0zm0 367.13l0 -147.49 90.35 0c40.72,0 73.72,33 73.72,73.73 0,40.72 -33,73.76 -73.72,73.76l-90.35 0zm0 367.11l0 -147.49 90.35 0c40.72,0 73.72,33.04 73.72,73.76 0,40.71 -33,73.73 -73.72,73.73l-90.35 0zm0 367.12l0 -147.52 90.35 0c40.72,0 73.72,33.04 73.72,73.78 0,40.72 -33,73.74 -73.72,73.74l-90.35 0z"/>
   <path class="fil1" d="M9837.24 14368.79c-40.73,0 -73.75,-33.02 -73.75,-73.75 0,-40.72 33.02,-73.74 73.75,-73.74l198.74 0c40.73,0 73.74,33.02 73.74,73.74 0,40.73 -33.01,73.75 -73.74,73.75l-198.74 0z"/>
   <path class="fil1" d="M9837.24 14735.91c-40.73,0 -73.75,-33.02 -73.75,-73.75 0,-40.73 33.02,-73.75 73.75,-73.75l198.74 0c40.73,0 73.74,33.02 73.74,73.75 0,40.73 -33.01,73.75 -73.74,73.75l-198.74 0z"/>
   <path class="fil1" d="M9837.24 15103.02c-40.73,0 -73.75,-33.02 -73.75,-73.75 0,-40.72 33.02,-73.74 73.75,-73.74l198.74 0c40.73,0 73.74,33.02 73.74,73.74 0,40.73 -33.01,73.75 -73.74,73.75l-198.74 0z"/>
   <path class="fil1" d="M9837.24 15470.14c-40.73,0 -73.75,-33.02 -73.75,-73.75 0,-40.73 33.02,-73.75 73.75,-73.75l198.74 0c40.73,0 73.74,33.02 73.74,73.75 0,40.73 -33.01,73.75 -73.74,73.75l-198.74 0z"/>
  </g>
 </g>
</svg>
