<?xml version="1.0" encoding="UTF-8"?>
<!DOCTYPE svg PUBLIC "-//W3C//DTD SVG 1.1//EN" "http://www.w3.org/Graphics/SVG/1.1/DTD/svg11.dtd">
<!-- Creator: CorelDRAW 2019 (64 Bit) -->
<svg xmlns="http://www.w3.org/2000/svg" xml:space="preserve" width="210mm" height="297mm" version="1.1" style="shape-rendering:geometricPrecision; text-rendering:geometricPrecision; image-rendering:optimizeQuality; fill-rule:evenodd; clip-rule:evenodd"
viewBox="0 0 21000 29700"
 xmlns:xlink="http://www.w3.org/1999/xlink">
 <defs>
  <style type="text/css">
   <![CDATA[
    .fil0 {fill:black}
   ]]>
  </style>
 </defs>
 <g id="Camada_x0020_1">
  <metadata id="CorelCorpID_0Corel-Layer"/>
  <path class="fil0" d="M10562.83 15662.33l79.6 0.19c102.13,0.61 204.49,-0.07 306.65,-0.07 34.93,0 119.79,4.15 147.99,-5.63 28.59,-9.92 49.67,-28.56 63.66,-54.01 4.09,-7.45 10.09,-18.79 7.98,-27.05l-537.61 0.12 -80 0.2c-89.5,-3.27 -184.93,-0.24 -275.03,-0.24 -91.81,0 -183.78,-0.05 -275.1,0 -49.19,0.03 -73.09,-15.22 -95.3,-40.36 -46.32,-52.46 -31.63,-148.46 42.18,-179.39 32.48,-13.61 91.99,-8.87 129.24,-8.55 271.7,2.37 548.51,-0.22 821.26,0 45.52,0.04 91.04,0 136.55,0 43.87,0 96.41,-2.61 139.02,0.03l-1.2 -315.06c0.05,-105.14 0.74,-210.68 0.72,-316.02 -0.01,-104.76 0,-209.55 0,-314.07l0 -236.04c0.28,-30.53 -0.63,-42.31 -12.47,-67.49 -14.17,-30.11 -48.41,-58.62 -96.77,-60.34 -51.33,-1.81 -106.24,-0.03 -158.04,-0.03l-948.07 -0.01c-61.14,0.01 -87.19,3.75 -118.72,38.6 -33.06,36.53 -27.12,75.54 -27.12,130.24l-0.01 1338.28c-0.08,26.66 4.92,43.19 16.06,63.12 2.62,4.69 4.92,7.78 7.96,11.77l1.72 2.2c17.62,20.72 43.64,39.84 94.74,39.8l474.04 -0.07c51.15,0 105.31,1.71 156.07,-0.12zm-107.97 -719.66l37.08 37.13c10.71,-7.3 242.79,-241.79 263.72,-262.73 27.65,-27.65 63.04,-58.62 83.15,-92.02 43.74,-72.66 39.54,-160.93 -13.5,-231.21 -4.26,-5.67 -6.07,-6.83 -10.22,-12.18 -11.63,-15.04 -45.03,-39.2 -62.61,-47.37 -50.19,-23.39 -97.37,-24.48 -147.64,-10.44 -14.68,4.1 -49.98,19.37 -57.44,30.01 -15.37,4.65 -40.16,39.24 -55.04,49.05 -11.5,-17.63 -47.38,-47.03 -67.26,-59 -76.77,-46.18 -178.03,-34.76 -237.72,20.78 -12.03,11.15 -20.78,21.34 -31.05,33.48 -17,30.62 -24.53,32.96 -35.08,79.62 -7.88,34.74 -3.62,72.87 5.36,103.53 16.92,57.92 61.82,92.99 99.49,130.64l55.99 58.08c19.84,19.85 38.19,38.2 58.06,58.02 37.93,37.96 76.06,78.75 114.71,114.61z"/>
 </g>
</svg>
