<?xml version="1.0" encoding="UTF-8"?>
<!DOCTYPE svg PUBLIC "-//W3C//DTD SVG 1.1//EN" "http://www.w3.org/Graphics/SVG/1.1/DTD/svg11.dtd">
<!-- Creator: CorelDRAW 2019 (64 Bit) -->
<svg xmlns="http://www.w3.org/2000/svg" xml:space="preserve" width="210mm" height="297mm" version="1.1" style="shape-rendering:geometricPrecision; text-rendering:geometricPrecision; image-rendering:optimizeQuality; fill-rule:evenodd; clip-rule:evenodd"
viewBox="0 0 21000 29700"
 xmlns:xlink="http://www.w3.org/1999/xlink">
 <defs>
  <style type="text/css">
   <![CDATA[
    .fil1 {fill:black;fill-rule:nonzero}
    .fil0 {fill:black;fill-rule:nonzero}
   ]]>
  </style>
 </defs>
 <g id="Camada_x0020_1">
  <metadata id="CorelCorpID_0Corel-Layer"/>
  <g id="_854005472">
   <path class="fil0" d="M10474.44 15663.33l-610.68 0c-44.89,0 -85.92,-18.47 -115.85,-48.24l-0.34 -0.34c-29.77,-29.93 -48.24,-70.95 -48.24,-115.85l0 -1296.74c0,-44.9 18.47,-85.92 48.24,-115.85l0.34 -0.34c29.93,-29.77 70.96,-48.24 115.85,-48.24l610.68 0 0 178.09 -597.02 0 0 1269.42 597.02 0 0 178.09z"/>
   <polygon class="fil1" points="10728.44,15156.67 11034.59,14850.53 10728.44,14544.38 10854.35,14418.47 11286.41,14850.53 10854.35,15282.58 "/>
   <polygon class="fil1" points="11160.5,14939.57 10131.41,14939.57 10131.41,14761.49 11160.5,14761.49 "/>
  </g>
 </g>
</svg>
