<?xml version="1.0" encoding="UTF-8"?>
<!DOCTYPE svg PUBLIC "-//W3C//DTD SVG 1.1//EN" "http://www.w3.org/Graphics/SVG/1.1/DTD/svg11.dtd">
<!-- Creator: CorelDRAW 2019 (64 Bit) -->
<svg xmlns="http://www.w3.org/2000/svg" xml:space="preserve" width="210mm" height="297mm" version="1.1" style="shape-rendering:geometricPrecision; text-rendering:geometricPrecision; image-rendering:optimizeQuality; fill-rule:evenodd; clip-rule:evenodd"
viewBox="0 0 21000 29700"
 xmlns:xlink="http://www.w3.org/1999/xlink">
 <defs>
  <style type="text/css">
   <![CDATA[
    .fil0 {fill:black}
   ]]>
  </style>
 </defs>
 <g id="Camada_x0020_1">
  <metadata id="CorelCorpID_0Corel-Layer"/>
  <g id="_710305920">
   <path class="fil0" d="M10277.64 14180.78c176.34,-15.77 335.23,59.29 430.18,169.01 4.56,5.27 9.19,11.12 14.19,17.29 16.13,19.87 36.85,49.65 50.1,75.7 31.2,61.33 51.03,115.74 58.88,192.74 11.2,109.83 -15.14,216.2 -67.88,306.92 -19.84,34.13 -57.14,82.3 -84.15,107.1 -84.35,77.42 -180.15,126.29 -301.4,138.79 -293.78,30.31 -528.18,-191.41 -554.01,-451.5 -29.36,-295.56 190.66,-532.47 454.09,-556.05zm378.18 1062.62l383.61 384c4.83,3.81 13.6,9.5 20.43,13.7 69.64,42.81 153.87,18.06 197.87,-25.89 43.79,-43.74 68.16,-128.28 25.85,-197.83 -18.21,-29.93 -37.19,-44.02 -63.24,-70.47 -22.72,-23.06 -43.96,-43.91 -66.8,-66.85 -45.08,-45.27 -88.31,-88.81 -133.71,-133.62l-134.02 -133.01 46.56 -101.02c44.98,-117.06 52.83,-261.4 22.1,-381.94 -24.03,-94.31 -73.06,-197.99 -136.67,-266.91 -6.56,-7.11 -9.92,-13.91 -16.57,-20.23 -29.25,-27.84 -44.11,-45.04 -78.69,-70.72 -63.4,-47.09 -112.71,-75.76 -191.62,-101.87 -79.35,-26.26 -169.14,-38.57 -258.16,-30.62 -128.08,11.43 -224.12,51.35 -322.46,118.28l-81.02 68.37c-160.58,161.67 -237.41,415.46 -156.71,659.71 27.04,81.81 59.81,135.85 102.51,193.6 33.03,44.67 39.43,43.58 69.52,77.26l39.66 33.81c166.8,138.96 423.26,175.33 628.74,99.42 30.43,-11.24 98.78,-46.01 102.82,-47.17z"/>
   <path class="fil0" d="M10326.99 14365.56c85.06,-0.11 168.29,33.37 224.2,93.77 13.05,14.09 20.9,17.89 36.78,41.82 41.97,63.24 52.38,102.87 58.49,182.6l86.44 0.91c5.4,-81.6 -29.38,-167.48 -71.22,-230.97 -6.65,-10.1 -13.7,-18.68 -21.68,-28.05l-25.45 -27.04c-78.83,-79.38 -170.2,-117.02 -287.86,-120.64l0.3 87.6z"/>
  </g>
 </g>
</svg>
