<?xml version="1.0" encoding="UTF-8"?>
<!DOCTYPE svg PUBLIC "-//W3C//DTD SVG 1.1//EN" "http://www.w3.org/Graphics/SVG/1.1/DTD/svg11.dtd">
<!-- Creator: CorelDRAW 2019 (64 Bit) -->
<svg xmlns="http://www.w3.org/2000/svg" xml:space="preserve" width="210mm" height="297mm" version="1.1" style="shape-rendering:geometricPrecision; text-rendering:geometricPrecision; image-rendering:optimizeQuality; fill-rule:evenodd; clip-rule:evenodd"
viewBox="0 0 21000 29700"
 xmlns:xlink="http://www.w3.org/1999/xlink">
 <defs>
  <style type="text/css">
   <![CDATA[
    .fil0 {fill:black}
   ]]>
  </style>
 </defs>
 <g id="Camada_x0020_1">
  <metadata id="CorelCorpID_0Corel-Layer"/>
  <path class="fil0" d="M10625.36 14370.45c-42.07,17.21 -307.23,220.7 -377.99,265.22 -24.51,15.42 -11.75,13.71 -39.8,3.65 -99.42,-35.66 -183.93,-26.31 -262.94,35.53 -171.41,134.14 -106.73,426.05 123.53,459.88 39.55,5.82 79.49,2.36 116.79,-9.5 41.05,-13.07 59.93,-32.92 92.75,-44.3 14.75,19.64 304.19,220.32 345.06,247.83 1.63,80.24 -20.99,105.75 20.84,188.11 25.01,49.24 60.55,87.28 109.89,114.27 133.55,73.07 255.5,9.21 325.02,-67.15 169.81,-186.52 -47.78,-539.36 -342.35,-382.41 -63.32,-40.05 -126.69,-85.89 -187.09,-129.52 -33.96,-24.54 -155.95,-115.65 -185.49,-128.51 4,-62.57 1.76,-81.13 -12.17,-137.95l360.07 -253.39c54.95,-38.18 86.11,57.99 237.43,14.22 270.74,-78.32 239.41,-475.03 -44.69,-507.11 -97.78,-11.04 -182.2,37.4 -222.87,85.85 -59.65,71.08 -70.56,134.43 -55.99,245.28z"/>
 </g>
</svg>
