<?xml version="1.0" encoding="UTF-8"?>
<!DOCTYPE svg PUBLIC "-//W3C//DTD SVG 1.1//EN" "http://www.w3.org/Graphics/SVG/1.1/DTD/svg11.dtd">
<!-- Creator: CorelDRAW 2019 (64 Bit) -->
<svg xmlns="http://www.w3.org/2000/svg" xml:space="preserve" width="210mm" height="297mm" version="1.1" style="shape-rendering:geometricPrecision; text-rendering:geometricPrecision; image-rendering:optimizeQuality; fill-rule:evenodd; clip-rule:evenodd"
viewBox="0 0 21000 29700"
 xmlns:xlink="http://www.w3.org/1999/xlink"
 enable-background="new 0 0 24 24">
 <defs>
  <style type="text/css">
   <![CDATA[
    .fil0 {fill:black}
   ]]>
  </style>
 </defs>
 <g id="Camada_x0020_1">
  <metadata id="CorelCorpID_0Corel-Layer"/>
  <path class="fil0" d="M11224.36 14868.39c0,-446.24 -346.24,-749.38 -731.5,-749.38 -381.2,0 -731.5,296.66 -731.5,754.26 -48.78,27.62 -81.28,79.66 -81.28,139.81l0 162.57c0,89.39 73.14,162.57 162.56,162.57l81.26 -0.03 0 -495.82c0,-314.54 254.39,-568.96 568.96,-568.96 314.57,0 568.96,254.39 568.96,568.96l0 577.1 -650.25 0 0 162.57 650.25 -0.03c89.39,0 162.57,-73.15 162.57,-162.57l0 -99.16c47.95,-25.19 81.28,-74.78 81.28,-133.3l0 -186.93c-0.03,-56.89 -33.33,-106.47 -81.31,-131.66z"/>
  <circle class="fil0" cx="10249.01" cy="14931.79" r="81.28"/>
  <circle class="fil0" cx="10736.68" cy="14931.79" r="81.28"/>
  <path class="fil0" d="M10980.54 14771.68c-39.02,-231.66 -240.6,-408.85 -483.63,-408.85 -246.28,0 -511.23,204.01 -490.1,524.27 200.75,-82.09 351.93,-260.91 395.03,-478.74 106.47,213.75 325.1,360.86 578.7,363.32z"/>
 </g>
</svg>
