<?xml version="1.0" encoding="UTF-8"?>
<!DOCTYPE svg PUBLIC "-//W3C//DTD SVG 1.1//EN" "http://www.w3.org/Graphics/SVG/1.1/DTD/svg11.dtd">
<!-- Creator: CorelDRAW 2019 (64 Bit) -->
<svg xmlns="http://www.w3.org/2000/svg" xml:space="preserve" width="210mm" height="297mm" version="1.1" style="shape-rendering:geometricPrecision; text-rendering:geometricPrecision; image-rendering:optimizeQuality; fill-rule:evenodd; clip-rule:evenodd"
viewBox="0 0 21000 29700"
 xmlns:xlink="http://www.w3.org/1999/xlink"
 enable-background="new 0 0 24 24">
 <defs>
  <style type="text/css">
   <![CDATA[
    .fil0 {fill:black}
   ]]>
  </style>
 </defs>
 <g id="Camada_x0020_1">
  <metadata id="CorelCorpID_0Corel-Layer"/>
  <path class="fil0" d="M10476.79 14082.6c-18.8,12.89 -27.82,35.91 -43.42,62.21l-222.99 373.68c-10.13,16.33 -15.15,13.78 -36.17,18.3 -29.08,6.27 -58.01,13.03 -87.75,19.91 -117.91,27.27 -233.66,53.38 -350.78,79.68 -27.84,6.27 -68.07,12.75 -51.9,53.39l100.04 116.97c19.09,20.83 32.93,38.32 50.61,57.74 35.81,39.36 65.17,74.43 100,113.54 17.35,19.47 33.41,37.45 50.67,57.87 27.45,32.48 40.41,36.33 37.6,65.84 -12.64,132.61 -23.9,266.96 -36.39,399.38 -4.65,49.13 -23.76,119.39 21.29,123.37 21.6,1.91 305.1,-125.1 346.07,-142.61 22.54,-9.63 52.19,-22.77 75.84,-32.63 23.92,-9.98 54.82,-31.48 78.38,-21.46l453.35 194.57c43.95,12.7 48.24,-23.24 44.59,-59.59l-35.68 -393.45c-2.26,-24.51 -13.5,-79.7 -1.69,-96.33l302.58 -344.63c14.53,-16.21 46.46,-41.34 30.05,-69.96 -10.39,-18.17 -52.89,-22.56 -79.76,-28.86 -34.83,-8.18 -427.89,-92.55 -439.32,-102.66l-243.26 -407.05c-11.31,-19.61 -29.75,-59.32 -61.96,-37.22zm228.08 688.59c0,-50.05 -19.24,-92.71 -57.61,-128 -38.5,-35.26 -89.95,-52.83 -154.49,-52.83 -61.01,0 -109.97,16.49 -147.09,49.3 -29.99,26.5 -109.53,136.79 -31.45,146.33l5.11 0.63c46.13,3.81 23.02,-35.73 88.26,-97.07 23.1,-21.71 51.91,-32.66 86.55,-32.66 35.74,0 65.94,12.03 90.57,36.07 24.64,24 36.98,51.9 36.98,83.61 0,17.57 -4.16,33.58 -12.64,48.53 -8.46,14.79 -26.64,34.49 -54.82,59.3 -28.04,24.8 -47.6,43.6 -58.39,56.53 -14.79,17.71 -25.3,35.31 -32.04,52.83 -8.95,23.15 -13.41,41.34 -13.41,73.23 0,33.06 75.46,62.92 84.73,-36.73 1.38,-14.91 9.86,-27.25 18.02,-38.35 8.17,-11.08 25.42,-28.34 51.92,-51.75 39.42,-34.96 65.91,-64.54 79.47,-89.03 13.55,-24.33 20.33,-50.98 20.33,-79.94zm-176.52 445.76c0,-25.53 -20.7,-46.21 -46.21,-46.21 -25.52,0 -46.2,20.68 -46.2,46.21 0,25.52 20.68,46.2 46.2,46.2 25.51,0 46.21,-20.68 46.21,-46.2z"/>
 </g>
</svg>
