<?xml version="1.0" encoding="UTF-8"?>
<!DOCTYPE svg PUBLIC "-//W3C//DTD SVG 1.1//EN" "http://www.w3.org/Graphics/SVG/1.1/DTD/svg11.dtd">
<!-- Creator: CorelDRAW 2019 (64 Bit) -->
<svg xmlns="http://www.w3.org/2000/svg" xml:space="preserve" width="210mm" height="297mm" version="1.1" style="shape-rendering:geometricPrecision; text-rendering:geometricPrecision; image-rendering:optimizeQuality; fill-rule:evenodd; clip-rule:evenodd"
viewBox="0 0 21000 29700"
 xmlns:xlink="http://www.w3.org/1999/xlink">
 <defs>
  <style type="text/css">
   <![CDATA[
    .fil0 {fill:black}
   ]]>
  </style>
 </defs>
 <g id="Camada_x0020_1">
  <metadata id="CorelCorpID_0Corel-Layer"/>
  <path class="fil0" d="M10492.87 14037.73c-448.67,0 -812.8,364.13 -812.8,812.8 0,448.67 364.13,812.8 812.8,812.8 448.67,0 812.8,-364.13 812.8,-812.8 0,-448.67 -364.13,-812.8 -812.8,-812.8zm-400.72 1323.25c34.96,-73.15 247.92,-144.69 400.72,-144.69 152.8,0 366.59,71.51 400.72,144.69 -110.54,87.77 -249.54,139.81 -400.72,139.81 -151.18,0 -290.18,-52.01 -400.72,-139.81zm917.65 -117.87c-116.24,-141.44 -398.29,-189.4 -516.96,-189.4 -118.67,0 -400.72,47.96 -516.96,189.4 -82.86,-108.91 -133.27,-244.66 -133.27,-392.58 0,-358.45 291.81,-650.26 650.26,-650.26 358.45,0 650.26,291.81 650.26,650.26 0,147.92 -50.38,283.67 -133.3,392.58l-0.03 0zm-516.93 -880.27c-157.69,0 -284.47,126.82 -284.47,284.47 0,157.66 126.78,284.51 284.47,284.51 157.69,0 284.47,-126.82 284.47,-284.47 0,-157.66 -126.78,-284.51 -284.47,-284.51zm0 406.4c-67.46,0 -121.93,-54.46 -121.93,-121.93 0,-67.46 54.47,-121.89 121.93,-121.89 67.46,0 121.93,54.46 121.93,121.93 0,67.46 -54.47,121.89 -121.93,121.89z"/>
 </g>
</svg>
